# MagicaVoxel @ Ephtracy

# group
o spike1

# material
mtllib obstacle2-0-spike1.mtl
usemtl palette

# normals
vn -1 0 0
vn 1 0 0
vn 0 0 1
vn 0 0 -1
vn 0 -1 0
vn 0 1 0

# texcoords
vt 0.0136719 0.5
vt 0.0175781 0.5
vt 0.0214844 0.5
vt 0.0410156 0.5
vt 0.0449219 0.5
vt 0.0683594 0.5
vt 0.0917969 0.5
vt 0.115234 0.5
vt 0.990234 0.5

# verts
v -1 0.3 1.5
v -1 0.3 0.1
v -1 1.7 1.5
v -1 1.7 0.1
v -0.9 0.3 1.5
v -0.9 0.3 1.4
v -0.9 1.6 1.4
v -0.9 1.6 0.1
v -0.9 1.7 1.5
v -0.9 1.7 0.1
v -0.8 0.3 1.4
v -0.8 0.3 0.1
v -0.8 0.4 1.3
v -0.8 0.4 0.2
v -0.8 1.5 1.3
v -0.8 1.5 0.2
v -0.8 1.6 1.4
v -0.8 1.6 0.1
v -0.6 0.4 1.3
v -0.6 0.4 0.2
v -0.6 0.5 1.3
v -0.6 0.5 0.3
v -0.6 1.5 0.3
v -0.6 1.5 0.2
v -0.5 0.5 1.3
v -0.5 0.5 0.3
v -0.5 0.6 1.2
v -0.5 0.6 0.4
v -0.5 1.4 1.2
v -0.5 1.4 0.4
v -0.5 1.5 1.3
v -0.5 1.5 0.3
v -0.3 0.6 1.2
v -0.3 0.6 0.4
v -0.3 0.7 1.2
v -0.3 0.7 0.5
v -0.3 1.4 0.5
v -0.3 1.4 0.4
v -0.2 0.7 1.2
v -0.2 0.7 1.1
v -0.2 1.3 1.1
v -0.2 1.3 0.5
v -0.2 1.4 1.2
v -0.2 1.4 0.5
v 0 0.7 1.1
v 0 0.7 1
v 0 1.2 1
v 0 1.2 0.5
v 0 1.3 1.1
v 0 1.3 0.5
v 0.1 0.7 1
v 0.1 0.7 0.5
v 0.1 0.8 0.9
v 0.1 0.8 0.6
v 0.1 1.1 0.9
v 0.1 1.1 0.6
v 0.1 1.2 1
v 0.1 1.2 0.5
v 0.3 0.8 0.9
v 0.3 0.8 0.6
v 0.3 1 0.9
v 0.3 1 0.8
v 0.3 1.1 0.8
v 0.3 1.1 0.6
v 0.4 1 0.9
v 0.4 1 0.8
v 0.4 1.1 0.9
v 0.4 1.1 0.8
v -1 0.3 1.5
v -1 1.7 1.5
v -0.9 0.3 1.5
v -0.9 1.7 1.5
v -0.9 0.3 1.4
v -0.9 1.6 1.4
v -0.8 0.3 1.4
v -0.8 1.6 1.4
v -0.8 0.4 1.3
v -0.8 1.5 1.3
v -0.6 0.4 1.3
v -0.6 0.5 1.3
v -0.6 1.5 1.3
v -0.5 0.5 1.3
v -0.5 1.5 1.3
v -0.5 0.6 1.2
v -0.5 1.4 1.2
v -0.3 0.6 1.2
v -0.3 0.7 1.2
v -0.3 1.4 1.2
v -0.2 0.7 1.2
v -0.2 1.4 1.2
v -0.2 0.7 1.1
v -0.2 1.3 1.1
v 0 0.7 1.1
v 0 1.3 1.1
v 0 0.7 1
v 0 1.2 1
v 0.1 0.7 1
v 0.1 1.2 1
v 0.1 0.8 0.9
v 0.1 1.1 0.9
v 0.3 0.8 0.9
v 0.3 1 0.9
v 0.4 1 0.9
v 0.4 1.1 0.9
v 0.3 1 0.8
v 0.3 1.1 0.8
v 0.4 1 0.8
v 0.4 1.1 0.8
v 0.1 0.8 0.6
v 0.1 1.1 0.6
v 0.3 0.8 0.6
v 0.3 1.1 0.6
v -0.3 0.7 0.5
v -0.3 1.4 0.5
v -0.2 0.7 0.5
v -0.2 1.3 0.5
v -0.2 1.4 0.5
v 0 0.7 0.5
v 0 1.2 0.5
v 0 1.3 0.5
v 0.1 0.7 0.5
v 0.1 1.2 0.5
v -0.5 0.6 0.4
v -0.5 1.4 0.4
v -0.3 0.6 0.4
v -0.3 1.4 0.4
v -0.6 0.5 0.3
v -0.6 1.5 0.3
v -0.5 0.5 0.3
v -0.5 1.5 0.3
v -0.8 0.4 0.2
v -0.8 1.5 0.2
v -0.6 0.4 0.2
v -0.6 1.5 0.2
v -1 0.3 0.1
v -1 1.7 0.1
v -0.9 0.3 0.1
v -0.9 1.6 0.1
v -0.9 1.7 0.1
v -0.8 0.3 0.1
v -0.8 1.6 0.1
v -1 0.3 1.5
v -0.9 0.3 1.5
v -0.9 0.3 1.4
v -0.8 0.3 1.4
v -1 0.3 0.1
v -0.9 0.3 0.1
v -0.8 0.3 0.1
v -0.8 0.4 1.3
v -0.6 0.4 1.3
v -0.8 0.4 0.2
v -0.6 0.4 0.2
v -0.6 0.5 1.3
v -0.5 0.5 1.3
v -0.6 0.5 0.3
v -0.5 0.5 0.3
v -0.5 0.6 1.2
v -0.3 0.6 1.2
v -0.5 0.6 0.4
v -0.3 0.6 0.4
v -0.3 0.7 1.2
v -0.2 0.7 1.2
v -0.2 0.7 1.1
v 0 0.7 1.1
v 0 0.7 1
v 0.1 0.7 1
v -0.3 0.7 0.5
v -0.2 0.7 0.5
v 0 0.7 0.5
v 0.1 0.7 0.5
v 0.1 0.8 0.9
v 0.3 0.8 0.9
v 0.1 0.8 0.6
v 0.3 0.8 0.6
v 0.3 1 0.9
v 0.4 1 0.9
v 0.3 1 0.8
v 0.4 1 0.8
v 0.1 1.1 0.9
v 0.4 1.1 0.9
v 0.3 1.1 0.8
v 0.4 1.1 0.8
v 0.1 1.1 0.6
v 0.3 1.1 0.6
v 0 1.2 1
v 0.1 1.2 1
v 0 1.2 0.5
v 0.1 1.2 0.5
v -0.2 1.3 1.1
v 0 1.3 1.1
v -0.2 1.3 0.5
v 0 1.3 0.5
v -0.5 1.4 1.2
v -0.3 1.4 1.2
v -0.2 1.4 1.2
v -0.3 1.4 0.5
v -0.2 1.4 0.5
v -0.5 1.4 0.4
v -0.3 1.4 0.4
v -0.8 1.5 1.3
v -0.6 1.5 1.3
v -0.5 1.5 1.3
v -0.6 1.5 0.3
v -0.5 1.5 0.3
v -0.8 1.5 0.2
v -0.6 1.5 0.2
v -0.9 1.6 1.4
v -0.8 1.6 1.4
v -0.9 1.6 0.1
v -0.8 1.6 0.1
v -1 1.7 1.5
v -0.9 1.7 1.5
v -1 1.7 0.1
v -0.9 1.7 0.1

# faces
f 3/9/1 2/9/1 1/9/1
f 4/9/1 2/9/1 3/9/1
f 5/9/2 6/9/2 7/9/2
f 5/9/2 7/9/2 9/9/2
f 7/9/2 8/9/2 9/9/2
f 9/9/2 8/9/2 10/9/2
f 11/8/2 12/8/2 13/8/2
f 13/8/2 12/8/2 14/8/2
f 11/8/2 13/8/2 15/8/2
f 14/8/2 12/8/2 16/8/2
f 11/8/2 15/8/2 17/8/2
f 15/8/2 16/8/2 17/8/2
f 16/8/2 12/8/2 18/8/2
f 17/8/2 16/8/2 18/8/2
f 19/7/2 20/7/2 21/7/2
f 21/7/2 20/7/2 22/7/2
f 22/7/2 20/7/2 23/7/2
f 23/7/2 20/7/2 24/7/2
f 25/6/2 26/6/2 27/6/2
f 27/6/2 26/6/2 28/6/2
f 25/6/2 27/6/2 29/6/2
f 28/6/2 26/6/2 30/6/2
f 25/6/2 29/6/2 31/6/2
f 29/6/2 30/6/2 31/6/2
f 30/6/2 26/6/2 32/6/2
f 31/6/2 30/6/2 32/6/2
f 33/6/2 34/6/2 35/6/2
f 35/6/2 34/6/2 36/6/2
f 36/6/2 34/6/2 37/6/2
f 37/6/2 34/6/2 38/6/2
f 39/5/2 40/5/2 41/5/2
f 39/5/2 41/5/2 43/5/2
f 41/5/2 42/5/2 43/5/2
f 43/5/2 42/5/2 44/5/2
f 45/3/2 46/3/2 47/3/2
f 45/3/2 47/3/2 49/3/2
f 47/3/2 48/3/2 49/3/2
f 49/3/2 48/3/2 50/3/2
f 51/2/2 52/2/2 53/2/2
f 53/2/2 52/2/2 54/2/2
f 51/2/2 53/2/2 55/2/2
f 54/2/2 52/2/2 56/2/2
f 51/2/2 55/2/2 57/2/2
f 55/2/2 56/2/2 57/2/2
f 56/2/2 52/2/2 58/2/2
f 57/2/2 56/2/2 58/2/2
f 59/1/2 60/1/2 61/1/2
f 61/1/2 60/1/2 62/1/2
f 62/1/2 60/1/2 63/1/2
f 63/1/2 60/1/2 64/1/2
f 65/1/2 66/1/2 67/1/2
f 67/1/2 66/1/2 68/1/2
f 71/9/3 70/9/3 69/9/3
f 72/9/3 70/9/3 71/9/3
f 75/8/3 74/8/3 73/8/3
f 76/8/3 74/8/3 75/8/3
f 79/7/3 78/7/3 77/7/3
f 80/7/3 78/7/3 79/7/3
f 81/7/3 78/7/3 80/7/3
f 82/6/3 81/6/3 80/6/3
f 83/6/3 81/6/3 82/6/3
f 86/6/3 85/6/3 84/6/3
f 87/6/3 85/6/3 86/6/3
f 88/6/3 85/6/3 87/6/3
f 89/5/3 88/5/3 87/5/3
f 90/5/3 88/5/3 89/5/3
f 93/3/3 92/3/3 91/3/3
f 94/3/3 92/3/3 93/3/3
f 97/2/3 96/2/3 95/2/3
f 98/2/3 96/2/3 97/2/3
f 101/1/3 100/1/3 99/1/3
f 102/1/3 100/1/3 101/1/3
f 103/1/3 100/1/3 102/1/3
f 104/1/3 100/1/3 103/1/3
f 105/1/4 106/1/4 107/1/4
f 107/1/4 106/1/4 108/1/4
f 109/1/4 110/1/4 111/1/4
f 111/1/4 110/1/4 112/1/4
f 113/5/4 114/5/4 115/5/4
f 115/5/4 114/5/4 116/5/4
f 116/5/4 114/5/4 117/5/4
f 115/3/4 116/3/4 118/3/4
f 118/3/4 116/3/4 119/3/4
f 119/3/4 116/3/4 120/3/4
f 118/2/4 119/2/4 121/2/4
f 121/2/4 119/2/4 122/2/4
f 123/6/4 124/6/4 125/6/4
f 125/6/4 124/6/4 126/6/4
f 127/6/4 128/6/4 129/6/4
f 129/6/4 128/6/4 130/6/4
f 131/7/4 132/7/4 133/7/4
f 133/7/4 132/7/4 134/7/4
f 135/9/4 136/9/4 137/9/4
f 137/9/4 136/9/4 138/9/4
f 138/9/4 136/9/4 139/9/4
f 137/8/4 138/8/4 140/8/4
f 140/8/4 138/8/4 141/8/4
f 144/9/5 143/9/5 142/9/5
f 146/9/5 144/9/5 142/9/5
f 147/8/5 145/8/5 144/8/5
f 147/9/5 144/9/5 146/9/5
f 148/8/5 145/8/5 147/8/5
f 151/7/5 150/7/5 149/7/5
f 152/7/5 150/7/5 151/7/5
f 155/6/5 154/6/5 153/6/5
f 156/6/5 154/6/5 155/6/5
f 159/6/5 158/6/5 157/6/5
f 160/6/5 158/6/5 159/6/5
f 163/5/5 162/5/5 161/5/5
f 165/3/5 164/3/5 163/3/5
f 167/5/5 163/5/5 161/5/5
f 168/3/5 165/3/5 163/3/5
f 168/5/5 163/5/5 167/5/5
f 169/2/5 166/2/5 165/2/5
f 169/3/5 165/3/5 168/3/5
f 170/2/5 166/2/5 169/2/5
f 173/1/5 172/1/5 171/1/5
f 174/1/5 172/1/5 173/1/5
f 177/1/5 176/1/5 175/1/5
f 178/1/5 176/1/5 177/1/5
f 179/1/6 180/1/6 181/1/6
f 181/1/6 180/1/6 182/1/6
f 179/1/6 181/1/6 183/1/6
f 183/1/6 181/1/6 184/1/6
f 185/2/6 186/2/6 187/2/6
f 187/2/6 186/2/6 188/2/6
f 189/3/6 190/3/6 191/3/6
f 191/3/6 190/3/6 192/3/6
f 193/6/6 194/6/6 196/6/6
f 194/5/6 195/5/6 196/5/6
f 196/5/6 195/5/6 197/5/6
f 193/6/6 196/6/6 198/6/6
f 198/6/6 196/6/6 199/6/6
f 200/7/6 201/7/6 203/7/6
f 201/6/6 202/6/6 203/6/6
f 203/6/6 202/6/6 204/6/6
f 200/7/6 203/7/6 205/7/6
f 205/7/6 203/7/6 206/7/6
f 207/8/6 208/8/6 209/8/6
f 209/8/6 208/8/6 210/8/6
f 211/9/6 212/9/6 213/9/6
f 213/9/6 212/9/6 214/9/6
