# MagicaVoxel @ Ephtracy

# group
o spike1

# material
mtllib obstacle4-2-spike1.mtl
usemtl palette

# normals
vn -1 0 0
vn 1 0 0
vn 0 0 1
vn 0 0 -1
vn 0 -1 0
vn 0 1 0

# texcoords
vt 0.0136719 0.5
vt 0.0175781 0.5
vt 0.0214844 0.5
vt 0.0410156 0.5
vt 0.0449219 0.5
vt 0.0683594 0.5
vt 0.0917969 0.5
vt 0.115234 0.5
vt 0.990234 0.5

# verts
v 0.1 0.1 -1.5
v 0.1 0.1 -1.6
v 0.1 1.5 -1.5
v 0.1 1.5 -1.6
v 0.2 0.2 -1.4
v 0.2 0.2 -1.5
v 0.2 1.5 -1.4
v 0.2 1.5 -1.5
v 0.3 0.3 -1.1
v 0.3 0.3 -1.2
v 0.3 0.3 -1.4
v 0.3 1.3 -1.1
v 0.3 1.3 -1.2
v 0.3 1.4 -1.2
v 0.3 1.4 -1.4
v 0.4 0.4 -0.8
v 0.4 0.4 -0.9
v 0.4 0.4 -1.1
v 0.4 1.1 -0.8
v 0.4 1.1 -0.9
v 0.4 1.2 -0.9
v 0.4 1.2 -1.1
v 0.5 0.5 -0.6
v 0.5 0.5 -0.8
v 0.5 1.1 -0.6
v 0.5 1.1 -0.8
v 0.6 0.6 -0.5
v 0.6 0.6 -0.6
v 0.6 1.1 -0.5
v 0.6 1.1 -0.6
v 0.7 0.7 -0.2
v 0.7 0.7 -0.5
v 0.7 0.8 -0.2
v 0.7 0.8 -0.3
v 0.7 1 -0.3
v 0.7 1 -0.5
v 0.8 0.7 -0.2
v 0.8 0.7 -0.3
v 0.8 0.8 -0.2
v 0.8 0.8 -0.3
v 1 0.7 -0.3
v 1 0.7 -0.5
v 1 1 -0.3
v 1 1 -0.5
v 1.1 0.4 -0.8
v 1.1 0.4 -0.9
v 1.1 0.5 -0.6
v 1.1 0.5 -0.8
v 1.1 0.6 -0.5
v 1.1 0.6 -0.6
v 1.1 1.1 -0.5
v 1.1 1.1 -0.6
v 1.1 1.1 -0.8
v 1.1 1.1 -0.9
v 1.2 0.4 -0.9
v 1.2 0.4 -1.1
v 1.2 1.2 -0.9
v 1.2 1.2 -1.1
v 1.3 0.3 -1.1
v 1.3 0.3 -1.2
v 1.3 1.3 -1.1
v 1.3 1.3 -1.2
v 1.4 0.3 -1.2
v 1.4 0.3 -1.4
v 1.4 1.4 -1.2
v 1.4 1.4 -1.4
v 1.5 0.1 -1.5
v 1.5 0.1 -1.6
v 1.5 0.2 -1.4
v 1.5 0.2 -1.5
v 1.5 1.5 -1.4
v 1.5 1.5 -1.5
v 1.5 1.5 -1.6
v 0.7 0.7 -0.2
v 0.7 0.8 -0.2
v 0.8 0.7 -0.2
v 0.8 0.8 -0.2
v 0.7 0.8 -0.3
v 0.7 1 -0.3
v 0.8 0.7 -0.3
v 0.8 0.8 -0.3
v 1 0.7 -0.3
v 1 1 -0.3
v 0.6 0.6 -0.5
v 0.6 1.1 -0.5
v 0.7 0.7 -0.5
v 0.7 1 -0.5
v 1 0.7 -0.5
v 1 1 -0.5
v 1.1 0.6 -0.5
v 1.1 1.1 -0.5
v 0.5 0.5 -0.6
v 0.5 1.1 -0.6
v 0.6 0.6 -0.6
v 0.6 1.1 -0.6
v 1.1 0.5 -0.6
v 1.1 0.6 -0.6
v 0.4 0.4 -0.8
v 0.4 1.1 -0.8
v 0.5 0.5 -0.8
v 0.5 1.1 -0.8
v 1.1 0.4 -0.8
v 1.1 0.5 -0.8
v 0.4 1.1 -0.9
v 0.4 1.2 -0.9
v 1.1 0.4 -0.9
v 1.1 1.1 -0.9
v 1.2 0.4 -0.9
v 1.2 1.2 -0.9
v 0.3 0.3 -1.1
v 0.3 1.3 -1.1
v 0.4 0.4 -1.1
v 0.4 1.2 -1.1
v 1.2 0.4 -1.1
v 1.2 1.2 -1.1
v 1.3 0.3 -1.1
v 1.3 1.3 -1.1
v 0.3 1.3 -1.2
v 0.3 1.4 -1.2
v 1.3 0.3 -1.2
v 1.3 1.3 -1.2
v 1.4 0.3 -1.2
v 1.4 1.4 -1.2
v 0.2 0.2 -1.4
v 0.2 1.5 -1.4
v 0.3 0.3 -1.4
v 0.3 1.4 -1.4
v 1.4 0.3 -1.4
v 1.4 1.4 -1.4
v 1.5 0.2 -1.4
v 1.5 1.5 -1.4
v 0.1 0.1 -1.5
v 0.1 1.5 -1.5
v 0.2 0.2 -1.5
v 0.2 1.5 -1.5
v 1.5 0.1 -1.5
v 1.5 0.2 -1.5
v 0.1 0.1 -1.6
v 0.1 1.5 -1.6
v 1.5 0.1 -1.6
v 1.5 1.5 -1.6
v 0.1 0.1 -1.5
v 1.5 0.1 -1.5
v 0.1 0.1 -1.6
v 1.5 0.1 -1.6
v 0.2 0.2 -1.4
v 1.5 0.2 -1.4
v 0.2 0.2 -1.5
v 1.5 0.2 -1.5
v 0.3 0.3 -1.1
v 1.3 0.3 -1.1
v 0.3 0.3 -1.2
v 1.3 0.3 -1.2
v 1.4 0.3 -1.2
v 0.3 0.3 -1.4
v 1.4 0.3 -1.4
v 0.4 0.4 -0.8
v 1.1 0.4 -0.8
v 0.4 0.4 -0.9
v 1.1 0.4 -0.9
v 1.2 0.4 -0.9
v 0.4 0.4 -1.1
v 1.2 0.4 -1.1
v 0.5 0.5 -0.6
v 1.1 0.5 -0.6
v 0.5 0.5 -0.8
v 1.1 0.5 -0.8
v 0.6 0.6 -0.5
v 1.1 0.6 -0.5
v 0.6 0.6 -0.6
v 1.1 0.6 -0.6
v 0.7 0.7 -0.2
v 0.8 0.7 -0.2
v 0.8 0.7 -0.3
v 1 0.7 -0.3
v 0.7 0.7 -0.5
v 1 0.7 -0.5
v 0.7 0.8 -0.2
v 0.8 0.8 -0.2
v 0.7 0.8 -0.3
v 0.8 0.8 -0.3
v 0.7 1 -0.3
v 1 1 -0.3
v 0.7 1 -0.5
v 1 1 -0.5
v 0.6 1.1 -0.5
v 1.1 1.1 -0.5
v 0.5 1.1 -0.6
v 0.6 1.1 -0.6
v 1.1 1.1 -0.6
v 0.4 1.1 -0.8
v 0.5 1.1 -0.8
v 1.1 1.1 -0.8
v 0.4 1.1 -0.9
v 1.1 1.1 -0.9
v 0.4 1.2 -0.9
v 1.2 1.2 -0.9
v 0.4 1.2 -1.1
v 1.2 1.2 -1.1
v 0.3 1.3 -1.1
v 1.3 1.3 -1.1
v 0.3 1.3 -1.2
v 1.3 1.3 -1.2
v 0.3 1.4 -1.2
v 1.4 1.4 -1.2
v 0.3 1.4 -1.4
v 1.4 1.4 -1.4
v 0.2 1.5 -1.4
v 1.5 1.5 -1.4
v 0.1 1.5 -1.5
v 0.2 1.5 -1.5
v 1.5 1.5 -1.5
v 0.1 1.5 -1.6
v 1.5 1.5 -1.6

# faces
f 3/9/1 2/9/1 1/9/1
f 4/9/1 2/9/1 3/9/1
f 7/8/1 6/8/1 5/8/1
f 8/8/1 6/8/1 7/8/1
f 12/6/1 10/6/1 9/6/1
f 13/7/1 11/7/1 10/7/1
f 13/6/1 10/6/1 12/6/1
f 14/7/1 11/7/1 13/7/1
f 15/7/1 11/7/1 14/7/1
f 19/5/1 17/5/1 16/5/1
f 20/6/1 18/6/1 17/6/1
f 20/5/1 17/5/1 19/5/1
f 21/6/1 18/6/1 20/6/1
f 22/6/1 18/6/1 21/6/1
f 25/3/1 24/3/1 23/3/1
f 26/3/1 24/3/1 25/3/1
f 29/2/1 28/2/1 27/2/1
f 30/2/1 28/2/1 29/2/1
f 33/1/1 32/1/1 31/1/1
f 34/1/1 32/1/1 33/1/1
f 35/1/1 32/1/1 34/1/1
f 36/1/1 32/1/1 35/1/1
f 37/1/2 38/1/2 39/1/2
f 39/1/2 38/1/2 40/1/2
f 41/1/2 42/1/2 43/1/2
f 43/1/2 42/1/2 44/1/2
f 45/5/2 46/5/2 48/5/2
f 47/3/2 48/3/2 50/3/2
f 49/2/2 50/2/2 51/2/2
f 50/3/2 48/3/2 52/3/2
f 51/2/2 50/2/2 52/2/2
f 48/5/2 46/5/2 53/5/2
f 52/3/2 48/3/2 53/3/2
f 53/5/2 46/5/2 54/5/2
f 55/6/2 56/6/2 57/6/2
f 57/6/2 56/6/2 58/6/2
f 59/6/2 60/6/2 61/6/2
f 61/6/2 60/6/2 62/6/2
f 63/7/2 64/7/2 65/7/2
f 65/7/2 64/7/2 66/7/2
f 67/9/2 68/9/2 70/9/2
f 69/8/2 70/8/2 71/8/2
f 70/9/2 68/9/2 72/9/2
f 71/8/2 70/8/2 72/8/2
f 72/9/2 68/9/2 73/9/2
f 76/1/3 75/1/3 74/1/3
f 77/1/3 75/1/3 76/1/3
f 81/1/3 79/1/3 78/1/3
f 82/1/3 81/1/3 80/1/3
f 83/1/3 79/1/3 81/1/3
f 83/1/3 81/1/3 82/1/3
f 86/2/3 85/2/3 84/2/3
f 87/2/3 85/2/3 86/2/3
f 88/2/3 86/2/3 84/2/3
f 89/2/3 85/2/3 87/2/3
f 90/2/3 88/2/3 84/2/3
f 90/2/3 89/2/3 88/2/3
f 91/2/3 85/2/3 89/2/3
f 91/2/3 89/2/3 90/2/3
f 94/3/3 93/3/3 92/3/3
f 95/3/3 93/3/3 94/3/3
f 96/3/3 94/3/3 92/3/3
f 97/3/3 94/3/3 96/3/3
f 100/5/3 99/5/3 98/5/3
f 101/5/3 99/5/3 100/5/3
f 102/5/3 100/5/3 98/5/3
f 103/5/3 100/5/3 102/5/3
f 107/6/3 105/6/3 104/6/3
f 108/6/3 107/6/3 106/6/3
f 109/6/3 105/6/3 107/6/3
f 109/6/3 107/6/3 108/6/3
f 112/6/3 111/6/3 110/6/3
f 113/6/3 111/6/3 112/6/3
f 114/6/3 112/6/3 110/6/3
f 115/6/3 111/6/3 113/6/3
f 116/6/3 114/6/3 110/6/3
f 116/6/3 115/6/3 114/6/3
f 117/6/3 111/6/3 115/6/3
f 117/6/3 115/6/3 116/6/3
f 121/7/3 119/7/3 118/7/3
f 122/7/3 121/7/3 120/7/3
f 123/7/3 119/7/3 121/7/3
f 123/7/3 121/7/3 122/7/3
f 126/8/3 125/8/3 124/8/3
f 127/8/3 125/8/3 126/8/3
f 128/8/3 126/8/3 124/8/3
f 129/8/3 125/8/3 127/8/3
f 130/8/3 128/8/3 124/8/3
f 130/8/3 129/8/3 128/8/3
f 131/8/3 125/8/3 129/8/3
f 131/8/3 129/8/3 130/8/3
f 134/9/3 133/9/3 132/9/3
f 135/9/3 133/9/3 134/9/3
f 136/9/3 134/9/3 132/9/3
f 137/9/3 134/9/3 136/9/3
f 138/9/4 139/9/4 140/9/4
f 140/9/4 139/9/4 141/9/4
f 144/9/5 143/9/5 142/9/5
f 145/9/5 143/9/5 144/9/5
f 148/8/5 147/8/5 146/8/5
f 149/8/5 147/8/5 148/8/5
f 152/6/5 151/6/5 150/6/5
f 153/6/5 151/6/5 152/6/5
f 155/7/5 153/7/5 152/7/5
f 155/7/5 154/7/5 153/7/5
f 156/7/5 154/7/5 155/7/5
f 159/5/5 158/5/5 157/5/5
f 160/5/5 158/5/5 159/5/5
f 162/6/5 160/6/5 159/6/5
f 162/6/5 161/6/5 160/6/5
f 163/6/5 161/6/5 162/6/5
f 166/3/5 165/3/5 164/3/5
f 167/3/5 165/3/5 166/3/5
f 170/2/5 169/2/5 168/2/5
f 171/2/5 169/2/5 170/2/5
f 174/1/5 173/1/5 172/1/5
f 176/1/5 174/1/5 172/1/5
f 176/1/5 175/1/5 174/1/5
f 177/1/5 175/1/5 176/1/5
f 178/1/6 179/1/6 180/1/6
f 180/1/6 179/1/6 181/1/6
f 182/1/6 183/1/6 184/1/6
f 184/1/6 183/1/6 185/1/6
f 186/2/6 187/2/6 189/2/6
f 189/2/6 187/2/6 190/2/6
f 188/3/6 189/3/6 192/3/6
f 189/3/6 190/3/6 192/3/6
f 192/3/6 190/3/6 193/3/6
f 191/5/6 192/5/6 194/5/6
f 192/5/6 193/5/6 194/5/6
f 194/5/6 193/5/6 195/5/6
f 196/6/6 197/6/6 198/6/6
f 198/6/6 197/6/6 199/6/6
f 200/6/6 201/6/6 202/6/6
f 202/6/6 201/6/6 203/6/6
f 204/7/6 205/7/6 206/7/6
f 206/7/6 205/7/6 207/7/6
f 208/8/6 209/8/6 211/8/6
f 211/8/6 209/8/6 212/8/6
f 210/9/6 211/9/6 213/9/6
f 211/9/6 212/9/6 213/9/6
f 213/9/6 212/9/6 214/9/6
