# MagicaVoxel @ Ephtracy

# group
o arm0

# material
mtllib papaNoel-0-arm0.mtl
usemtl palette

# normals
vn -1 0 0
vn 1 0 0
vn 0 0 1
vn 0 0 -1
vn 0 -1 0
vn 0 1 0

# texcoords
vt 0.0332031 0.5
vt 0.845703 0.5
vt 0.958984 0.5

# verts
v -0.7 3.7 -1.7
v -0.7 3.7 -2.5
v -0.7 4.8 -1.7
v -0.7 4.8 -2.5
v 1.7 3.5 -1.5
v 1.7 3.5 -2.7
v 1.7 3.7 -1.7
v 1.7 3.7 -2.5
v 1.7 4.8 -1.7
v 1.7 4.8 -2.5
v 1.7 5 -1.5
v 1.7 5 -2.7
v 2.6 3.5 -1.5
v 2.6 3.5 -2.7
v 2.6 3.7 -1.7
v 2.6 3.7 -2.5
v 2.6 4.8 -1.7
v 2.6 4.8 -2.5
v 2.6 5 -1.5
v 2.6 5 -2.7
v 2.9 3.7 -1.7
v 2.9 3.7 -2.5
v 2.9 4.8 -1.7
v 2.9 4.8 -2.5
v 1.7 3.5 -1.5
v 1.7 5 -1.5
v 2.6 3.5 -1.5
v 2.6 5 -1.5
v -0.7 3.7 -1.7
v -0.7 4.8 -1.7
v 1.7 3.7 -1.7
v 1.7 4.8 -1.7
v 2.6 3.7 -1.7
v 2.6 4.8 -1.7
v 2.9 3.7 -1.7
v 2.9 4.8 -1.7
v -0.7 3.7 -2.5
v -0.7 4.8 -2.5
v 1.7 3.7 -2.5
v 1.7 4.8 -2.5
v 2.6 3.7 -2.5
v 2.6 4.8 -2.5
v 2.9 3.7 -2.5
v 2.9 4.8 -2.5
v 1.7 3.5 -2.7
v 1.7 5 -2.7
v 2.6 3.5 -2.7
v 2.6 5 -2.7
v 1.7 3.5 -1.5
v 2.6 3.5 -1.5
v 1.7 3.5 -2.7
v 2.6 3.5 -2.7
v -0.7 3.7 -1.7
v 1.7 3.7 -1.7
v 2.6 3.7 -1.7
v 2.9 3.7 -1.7
v -0.7 3.7 -2.5
v 1.7 3.7 -2.5
v 2.6 3.7 -2.5
v 2.9 3.7 -2.5
v -0.7 4.8 -1.7
v 1.7 4.8 -1.7
v 2.6 4.8 -1.7
v 2.9 4.8 -1.7
v -0.7 4.8 -2.5
v 1.7 4.8 -2.5
v 2.6 4.8 -2.5
v 2.9 4.8 -2.5
v 1.7 5 -1.5
v 2.6 5 -1.5
v 1.7 5 -2.7
v 2.6 5 -2.7

# faces
f 3/2/1 2/2/1 1/2/1
f 4/2/1 2/2/1 3/2/1
f 7/3/1 6/3/1 5/3/1
f 8/3/1 6/3/1 7/3/1
f 9/3/1 7/3/1 5/3/1
f 10/3/1 6/3/1 8/3/1
f 11/3/1 9/3/1 5/3/1
f 11/3/1 10/3/1 9/3/1
f 12/3/1 6/3/1 10/3/1
f 12/3/1 10/3/1 11/3/1
f 13/3/2 14/3/2 15/3/2
f 15/3/2 14/3/2 16/3/2
f 13/3/2 15/3/2 17/3/2
f 16/3/2 14/3/2 18/3/2
f 13/3/2 17/3/2 19/3/2
f 17/3/2 18/3/2 19/3/2
f 18/3/2 14/3/2 20/3/2
f 19/3/2 18/3/2 20/3/2
f 21/1/2 22/1/2 23/1/2
f 23/1/2 22/1/2 24/1/2
f 27/3/3 26/3/3 25/3/3
f 28/3/3 26/3/3 27/3/3
f 31/2/3 30/2/3 29/2/3
f 32/2/3 30/2/3 31/2/3
f 35/1/3 34/1/3 33/1/3
f 36/1/3 34/1/3 35/1/3
f 37/2/4 38/2/4 39/2/4
f 39/2/4 38/2/4 40/2/4
f 41/1/4 42/1/4 43/1/4
f 43/1/4 42/1/4 44/1/4
f 45/3/4 46/3/4 47/3/4
f 47/3/4 46/3/4 48/3/4
f 51/3/5 50/3/5 49/3/5
f 52/3/5 50/3/5 51/3/5
f 57/2/5 54/2/5 53/2/5
f 58/2/5 54/2/5 57/2/5
f 59/1/5 56/1/5 55/1/5
f 60/1/5 56/1/5 59/1/5
f 61/2/6 62/2/6 65/2/6
f 65/2/6 62/2/6 66/2/6
f 63/1/6 64/1/6 67/1/6
f 67/1/6 64/1/6 68/1/6
f 69/3/6 70/3/6 71/3/6
f 71/3/6 70/3/6 72/3/6
