# MagicaVoxel @ Ephtracy

# group
o body

# material
mtllib papaNoel-10-body.mtl
usemtl palette

# normals
vn -1 0 0
vn 1 0 0
vn 0 0 1
vn 0 0 -1
vn 0 -1 0
vn 0 1 0

# texcoords
vt 0.0449219 0.5
vt 0.845703 0.5
vt 0.958984 0.5
vt 0.994141 0.5

# verts
v -2 2.2 1.6
v -2 2.2 -1.6
v -2 2.5 1.6
v -2 2.5 -1.6
v -2 3.2 1.6
v -2 3.2 -1.6
v -2 6.2 1.6
v -2 6.2 -1.6
v -1.9 2.2 1.7
v -1.9 2.2 1.6
v -1.9 2.2 -1.6
v -1.9 2.2 -1.7
v -1.9 2.5 1.7
v -1.9 2.5 1.6
v -1.9 2.5 -1.6
v -1.9 2.5 -1.7
v -1.9 3.2 1.7
v -1.9 3.2 1.6
v -1.9 3.2 -1.6
v -1.9 3.2 -1.7
v -1.9 6.2 1.7
v -1.9 6.2 1.6
v -1.9 6.2 -1.6
v -1.9 6.2 -1.7
v -1.8 2.2 1.8
v -1.8 2.2 1.7
v -1.8 2.2 -1.7
v -1.8 2.2 -1.8
v -1.8 2.5 1.8
v -1.8 2.5 1.7
v -1.8 2.5 -1.7
v -1.8 2.5 -1.8
v -1.8 3.2 1.8
v -1.8 3.2 1.7
v -1.8 3.2 -1.7
v -1.8 3.2 -1.8
v -1.8 6.2 1.8
v -1.8 6.2 1.7
v -1.8 6.2 -1.7
v -1.8 6.2 -1.8
v -1.7 2.2 1.9
v -1.7 2.2 1.8
v -1.7 2.2 -1.8
v -1.7 2.2 -1.9
v -1.7 2.5 1.9
v -1.7 2.5 1.8
v -1.7 2.5 -1.8
v -1.7 2.5 -1.9
v -1.7 3.2 1.9
v -1.7 3.2 1.8
v -1.7 3.2 -1.8
v -1.7 3.2 -1.9
v -1.7 6.2 1.9
v -1.7 6.2 1.8
v -1.7 6.2 -1.8
v -1.7 6.2 -1.9
v -1.6 2.2 2
v -1.6 2.2 1.9
v -1.6 2.2 -1.9
v -1.6 2.2 -2
v -1.6 2.5 2
v -1.6 2.5 1.9
v -1.6 2.5 -1.9
v -1.6 2.5 -2
v -1.6 3.2 2
v -1.6 3.2 1.9
v -1.6 3.2 -1.9
v -1.6 3.2 -2
v -1.6 6.2 2
v -1.6 6.2 1.9
v -1.6 6.2 -1.9
v -1.6 6.2 -2
v 1.6 2.2 2
v 1.6 2.2 1.9
v 1.6 2.2 -1.9
v 1.6 2.2 -2
v 1.6 2.5 2
v 1.6 2.5 1.9
v 1.6 2.5 -1.9
v 1.6 2.5 -2
v 1.6 3.2 2
v 1.6 3.2 1.9
v 1.6 3.2 -1.9
v 1.6 3.2 -2
v 1.6 6.2 2
v 1.6 6.2 1.9
v 1.6 6.2 -1.9
v 1.6 6.2 -2
v 1.7 2.2 1.9
v 1.7 2.2 1.8
v 1.7 2.2 -1.8
v 1.7 2.2 -1.9
v 1.7 2.5 1.9
v 1.7 2.5 1.8
v 1.7 2.5 -1.8
v 1.7 2.5 -1.9
v 1.7 3.2 1.9
v 1.7 3.2 1.8
v 1.7 3.2 -1.8
v 1.7 3.2 -1.9
v 1.7 6.2 1.9
v 1.7 6.2 1.8
v 1.7 6.2 -1.8
v 1.7 6.2 -1.9
v 1.8 2.2 1.8
v 1.8 2.2 1.7
v 1.8 2.2 -1.7
v 1.8 2.2 -1.8
v 1.8 2.5 1.8
v 1.8 2.5 1.7
v 1.8 2.5 -1.7
v 1.8 2.5 -1.8
v 1.8 3.2 1.8
v 1.8 3.2 1.7
v 1.8 3.2 -1.7
v 1.8 3.2 -1.8
v 1.8 6.2 1.8
v 1.8 6.2 1.7
v 1.8 6.2 -1.7
v 1.8 6.2 -1.8
v 1.9 2.2 1.7
v 1.9 2.2 1.6
v 1.9 2.2 -1.6
v 1.9 2.2 -1.7
v 1.9 2.5 1.7
v 1.9 2.5 1.6
v 1.9 2.5 -1.6
v 1.9 2.5 -1.7
v 1.9 3.2 1.7
v 1.9 3.2 1.6
v 1.9 3.2 -1.6
v 1.9 3.2 -1.7
v 1.9 6.2 1.7
v 1.9 6.2 1.6
v 1.9 6.2 -1.6
v 1.9 6.2 -1.7
v 2 2.2 1.6
v 2 2.2 -1.6
v 2 2.5 1.6
v 2 2.5 0.5
v 2 2.5 -0.5
v 2 2.5 -1.6
v 2 2.6 0.3
v 2 2.6 -0.3
v 2 2.7 -0.2
v 2 2.7 -0.3
v 2 2.7 -0.5
v 2 2.7 -0.6
v 2 2.9 -0.2
v 2 2.9 -0.3
v 2 2.9 -0.5
v 2 2.9 -0.6
v 2 3 0.3
v 2 3 -0.3
v 2 3.2 1.6
v 2 3.2 0.5
v 2 3.2 -0.5
v 2 3.2 -1.6
v 2 3.5 0.2
v 2 3.5 -0.1
v 2 3.6 0.3
v 2 3.6 0.2
v 2 3.6 -0.1
v 2 3.6 -0.2
v 2 3.9 0.3
v 2 3.9 0.2
v 2 3.9 -0.1
v 2 3.9 -0.2
v 2 4 0.2
v 2 4 -0.1
v 2 4.3 0.2
v 2 4.3 -0.1
v 2 4.4 0.3
v 2 4.4 0.2
v 2 4.4 -0.1
v 2 4.4 -0.2
v 2 4.7 0.3
v 2 4.7 0.2
v 2 4.7 -0.1
v 2 4.7 -0.2
v 2 4.8 0.2
v 2 4.8 -0.1
v 2 6.2 1.6
v 2 6.2 -1.6
v -1.6 2.2 2
v -1.6 2.5 2
v -1.6 3.2 2
v -1.6 6.2 2
v 1.6 2.2 2
v 1.6 2.5 2
v 1.6 3.2 2
v 1.6 6.2 2
v -1.7 2.2 1.9
v -1.7 2.5 1.9
v -1.7 3.2 1.9
v -1.7 6.2 1.9
v -1.6 2.2 1.9
v -1.6 2.5 1.9
v -1.6 3.2 1.9
v -1.6 6.2 1.9
v 1.6 2.2 1.9
v 1.6 2.5 1.9
v 1.6 3.2 1.9
v 1.6 6.2 1.9
v 1.7 2.2 1.9
v 1.7 2.5 1.9
v 1.7 3.2 1.9
v 1.7 6.2 1.9
v -1.8 2.2 1.8
v -1.8 2.5 1.8
v -1.8 3.2 1.8
v -1.8 6.2 1.8
v -1.7 2.2 1.8
v -1.7 2.5 1.8
v -1.7 3.2 1.8
v -1.7 6.2 1.8
v 1.7 2.2 1.8
v 1.7 2.5 1.8
v 1.7 3.2 1.8
v 1.7 6.2 1.8
v 1.8 2.2 1.8
v 1.8 2.5 1.8
v 1.8 3.2 1.8
v 1.8 6.2 1.8
v -1.9 2.2 1.7
v -1.9 2.5 1.7
v -1.9 3.2 1.7
v -1.9 6.2 1.7
v -1.8 2.2 1.7
v -1.8 2.5 1.7
v -1.8 3.2 1.7
v -1.8 6.2 1.7
v 1.8 2.2 1.7
v 1.8 2.5 1.7
v 1.8 3.2 1.7
v 1.8 6.2 1.7
v 1.9 2.2 1.7
v 1.9 2.5 1.7
v 1.9 3.2 1.7
v 1.9 6.2 1.7
v -2 2.2 1.6
v -2 2.5 1.6
v -2 3.2 1.6
v -2 6.2 1.6
v -1.9 2.2 1.6
v -1.9 2.5 1.6
v -1.9 3.2 1.6
v -1.9 6.2 1.6
v 1.9 2.2 1.6
v 1.9 2.5 1.6
v 1.9 3.2 1.6
v 1.9 6.2 1.6
v 2 2.2 1.6
v 2 2.5 1.6
v 2 3.2 1.6
v 2 6.2 1.6
v -2 2.2 -1.6
v -2 2.5 -1.6
v -2 3.2 -1.6
v -2 6.2 -1.6
v -1.9 2.2 -1.6
v -1.9 2.5 -1.6
v -1.9 3.2 -1.6
v -1.9 6.2 -1.6
v 1.9 2.2 -1.6
v 1.9 2.5 -1.6
v 1.9 3.2 -1.6
v 1.9 6.2 -1.6
v 2 2.2 -1.6
v 2 2.5 -1.6
v 2 3.2 -1.6
v 2 6.2 -1.6
v -1.9 2.2 -1.7
v -1.9 2.5 -1.7
v -1.9 3.2 -1.7
v -1.9 6.2 -1.7
v -1.8 2.2 -1.7
v -1.8 2.5 -1.7
v -1.8 3.2 -1.7
v -1.8 6.2 -1.7
v 1.8 2.2 -1.7
v 1.8 2.5 -1.7
v 1.8 3.2 -1.7
v 1.8 6.2 -1.7
v 1.9 2.2 -1.7
v 1.9 2.5 -1.7
v 1.9 3.2 -1.7
v 1.9 6.2 -1.7
v -1.8 2.2 -1.8
v -1.8 2.5 -1.8
v -1.8 3.2 -1.8
v -1.8 6.2 -1.8
v -1.7 2.2 -1.8
v -1.7 2.5 -1.8
v -1.7 3.2 -1.8
v -1.7 6.2 -1.8
v 1.7 2.2 -1.8
v 1.7 2.5 -1.8
v 1.7 3.2 -1.8
v 1.7 6.2 -1.8
v 1.8 2.2 -1.8
v 1.8 2.5 -1.8
v 1.8 3.2 -1.8
v 1.8 6.2 -1.8
v -1.7 2.2 -1.9
v -1.7 2.5 -1.9
v -1.7 3.2 -1.9
v -1.7 6.2 -1.9
v -1.6 2.2 -1.9
v -1.6 2.5 -1.9
v -1.6 3.2 -1.9
v -1.6 6.2 -1.9
v 1.6 2.2 -1.9
v 1.6 2.5 -1.9
v 1.6 3.2 -1.9
v 1.6 6.2 -1.9
v 1.7 2.2 -1.9
v 1.7 2.5 -1.9
v 1.7 3.2 -1.9
v 1.7 6.2 -1.9
v -1.6 2.2 -2
v -1.6 2.5 -2
v -1.6 3.2 -2
v -1.6 6.2 -2
v 1.6 2.2 -2
v 1.6 2.5 -2
v 1.6 3.2 -2
v 1.6 6.2 -2
v -1.6 2.2 2
v 1.6 2.2 2
v -1.7 2.2 1.9
v -1.6 2.2 1.9
v 1.6 2.2 1.9
v 1.7 2.2 1.9
v -1.8 2.2 1.8
v -1.7 2.2 1.8
v 1.7 2.2 1.8
v 1.8 2.2 1.8
v -1.9 2.2 1.7
v -1.8 2.2 1.7
v 1.8 2.2 1.7
v 1.9 2.2 1.7
v -2 2.2 1.6
v -1.9 2.2 1.6
v 1.9 2.2 1.6
v 2 2.2 1.6
v -2 2.2 -1.6
v -1.9 2.2 -1.6
v 1.9 2.2 -1.6
v 2 2.2 -1.6
v -1.9 2.2 -1.7
v -1.8 2.2 -1.7
v 1.8 2.2 -1.7
v 1.9 2.2 -1.7
v -1.8 2.2 -1.8
v -1.7 2.2 -1.8
v 1.7 2.2 -1.8
v 1.8 2.2 -1.8
v -1.7 2.2 -1.9
v -1.6 2.2 -1.9
v 1.6 2.2 -1.9
v 1.7 2.2 -1.9
v -1.6 2.2 -2
v 1.6 2.2 -2
v -1.6 6.2 2
v 1.6 6.2 2
v -1.7 6.2 1.9
v -1.6 6.2 1.9
v 1.6 6.2 1.9
v 1.7 6.2 1.9
v -1.8 6.2 1.8
v -1.7 6.2 1.8
v 1.7 6.2 1.8
v 1.8 6.2 1.8
v -1.9 6.2 1.7
v -1.8 6.2 1.7
v 1.8 6.2 1.7
v 1.9 6.2 1.7
v -2 6.2 1.6
v -1.9 6.2 1.6
v 1.9 6.2 1.6
v 2 6.2 1.6
v -2 6.2 -1.6
v -1.9 6.2 -1.6
v 1.9 6.2 -1.6
v 2 6.2 -1.6
v -1.9 6.2 -1.7
v -1.8 6.2 -1.7
v 1.8 6.2 -1.7
v 1.9 6.2 -1.7
v -1.8 6.2 -1.8
v -1.7 6.2 -1.8
v 1.7 6.2 -1.8
v 1.8 6.2 -1.8
v -1.7 6.2 -1.9
v -1.6 6.2 -1.9
v 1.6 6.2 -1.9
v 1.7 6.2 -1.9
v -1.6 6.2 -2
v 1.6 6.2 -2

# faces
f 3/2/1 2/2/1 1/2/1
f 4/2/1 2/2/1 3/2/1
f 5/4/1 4/4/1 3/4/1
f 6/4/1 4/4/1 5/4/1
f 7/2/1 6/2/1 5/2/1
f 8/2/1 6/2/1 7/2/1
f 13/2/1 10/2/1 9/2/1
f 14/2/1 10/2/1 13/2/1
f 15/2/1 12/2/1 11/2/1
f 16/2/1 12/2/1 15/2/1
f 17/4/1 14/4/1 13/4/1
f 18/4/1 14/4/1 17/4/1
f 19/4/1 16/4/1 15/4/1
f 20/4/1 16/4/1 19/4/1
f 21/2/1 18/2/1 17/2/1
f 22/2/1 18/2/1 21/2/1
f 23/2/1 20/2/1 19/2/1
f 24/2/1 20/2/1 23/2/1
f 29/2/1 26/2/1 25/2/1
f 30/2/1 26/2/1 29/2/1
f 31/2/1 28/2/1 27/2/1
f 32/2/1 28/2/1 31/2/1
f 33/4/1 30/4/1 29/4/1
f 34/4/1 30/4/1 33/4/1
f 35/4/1 32/4/1 31/4/1
f 36/4/1 32/4/1 35/4/1
f 37/2/1 34/2/1 33/2/1
f 38/2/1 34/2/1 37/2/1
f 39/2/1 36/2/1 35/2/1
f 40/2/1 36/2/1 39/2/1
f 45/2/1 42/2/1 41/2/1
f 46/2/1 42/2/1 45/2/1
f 47/2/1 44/2/1 43/2/1
f 48/2/1 44/2/1 47/2/1
f 49/4/1 46/4/1 45/4/1
f 50/4/1 46/4/1 49/4/1
f 51/4/1 48/4/1 47/4/1
f 52/4/1 48/4/1 51/4/1
f 53/2/1 50/2/1 49/2/1
f 54/2/1 50/2/1 53/2/1
f 55/2/1 52/2/1 51/2/1
f 56/2/1 52/2/1 55/2/1
f 61/2/1 58/2/1 57/2/1
f 62/2/1 58/2/1 61/2/1
f 63/2/1 60/2/1 59/2/1
f 64/2/1 60/2/1 63/2/1
f 65/4/1 62/4/1 61/4/1
f 66/4/1 62/4/1 65/4/1
f 67/4/1 64/4/1 63/4/1
f 68/4/1 64/4/1 67/4/1
f 69/2/1 66/2/1 65/2/1
f 70/2/1 66/2/1 69/2/1
f 71/2/1 68/2/1 67/2/1
f 72/2/1 68/2/1 71/2/1
f 73/2/2 74/2/2 77/2/2
f 77/2/2 74/2/2 78/2/2
f 75/2/2 76/2/2 79/2/2
f 79/2/2 76/2/2 80/2/2
f 77/4/2 78/4/2 81/4/2
f 81/4/2 78/4/2 82/4/2
f 79/4/2 80/4/2 83/4/2
f 83/4/2 80/4/2 84/4/2
f 81/2/2 82/2/2 85/2/2
f 85/2/2 82/2/2 86/2/2
f 83/2/2 84/2/2 87/2/2
f 87/2/2 84/2/2 88/2/2
f 89/2/2 90/2/2 93/2/2
f 93/2/2 90/2/2 94/2/2
f 91/2/2 92/2/2 95/2/2
f 95/2/2 92/2/2 96/2/2
f 93/4/2 94/4/2 97/4/2
f 97/4/2 94/4/2 98/4/2
f 95/4/2 96/4/2 99/4/2
f 99/4/2 96/4/2 100/4/2
f 97/2/2 98/2/2 101/2/2
f 101/2/2 98/2/2 102/2/2
f 99/2/2 100/2/2 103/2/2
f 103/2/2 100/2/2 104/2/2
f 105/2/2 106/2/2 109/2/2
f 109/2/2 106/2/2 110/2/2
f 107/2/2 108/2/2 111/2/2
f 111/2/2 108/2/2 112/2/2
f 109/4/2 110/4/2 113/4/2
f 113/4/2 110/4/2 114/4/2
f 111/4/2 112/4/2 115/4/2
f 115/4/2 112/4/2 116/4/2
f 113/2/2 114/2/2 117/2/2
f 117/2/2 114/2/2 118/2/2
f 115/2/2 116/2/2 119/2/2
f 119/2/2 116/2/2 120/2/2
f 121/2/2 122/2/2 125/2/2
f 125/2/2 122/2/2 126/2/2
f 123/2/2 124/2/2 127/2/2
f 127/2/2 124/2/2 128/2/2
f 125/4/2 126/4/2 129/4/2
f 129/4/2 126/4/2 130/4/2
f 127/4/2 128/4/2 131/4/2
f 131/4/2 128/4/2 132/4/2
f 129/2/2 130/2/2 133/2/2
f 133/2/2 130/2/2 134/2/2
f 131/2/2 132/2/2 135/2/2
f 135/2/2 132/2/2 136/2/2
f 137/2/2 138/2/2 139/2/2
f 139/2/2 138/2/2 140/2/2
f 140/2/2 138/2/2 141/2/2
f 141/2/2 138/2/2 142/2/2
f 140/1/2 141/1/2 143/1/2
f 143/1/2 141/1/2 144/1/2
f 143/4/2 144/4/2 145/4/2
f 144/1/2 141/1/2 146/1/2
f 145/4/2 144/4/2 146/4/2
f 141/4/2 142/4/2 147/4/2
f 146/1/2 141/1/2 147/1/2
f 147/4/2 142/4/2 148/4/2
f 145/1/2 146/1/2 149/1/2
f 143/4/2 145/4/2 149/4/2
f 147/1/2 148/1/2 149/1/2
f 146/1/2 147/1/2 149/1/2
f 149/1/2 148/1/2 150/1/2
f 150/1/2 148/1/2 151/1/2
f 148/4/2 142/4/2 152/4/2
f 151/1/2 148/1/2 152/1/2
f 140/1/2 143/1/2 153/1/2
f 143/4/2 149/4/2 153/4/2
f 149/4/2 150/4/2 153/4/2
f 150/1/2 151/1/2 154/1/2
f 153/4/2 150/4/2 154/4/2
f 139/4/2 140/4/2 155/4/2
f 140/1/2 153/1/2 156/1/2
f 155/4/2 140/4/2 156/4/2
f 153/1/2 154/1/2 156/1/2
f 154/1/2 151/1/2 157/1/2
f 156/1/2 154/1/2 157/1/2
f 151/4/2 152/4/2 157/4/2
f 152/4/2 142/4/2 158/4/2
f 157/4/2 152/4/2 158/4/2
f 155/2/2 156/2/2 159/2/2
f 156/2/2 157/2/2 159/2/2
f 157/2/2 158/2/2 159/2/2
f 159/2/2 158/2/2 160/2/2
f 155/2/2 159/2/2 161/2/2
f 159/3/2 160/3/2 162/3/2
f 161/2/2 159/2/2 162/2/2
f 160/2/2 158/2/2 163/2/2
f 162/3/2 160/3/2 163/3/2
f 163/2/2 158/2/2 164/2/2
f 161/3/2 162/3/2 165/3/2
f 155/2/2 161/2/2 165/2/2
f 163/3/2 164/3/2 165/3/2
f 162/3/2 163/3/2 165/3/2
f 165/3/2 164/3/2 166/3/2
f 166/3/2 164/3/2 167/3/2
f 164/2/2 158/2/2 168/2/2
f 167/3/2 164/3/2 168/3/2
f 166/3/2 167/3/2 169/3/2
f 165/2/2 166/2/2 169/2/2
f 167/2/2 168/2/2 170/2/2
f 169/3/2 167/3/2 170/3/2
f 165/2/2 169/2/2 171/2/2
f 169/2/2 170/2/2 171/2/2
f 170/2/2 168/2/2 172/2/2
f 171/2/2 170/2/2 172/2/2
f 155/2/2 165/2/2 173/2/2
f 165/2/2 171/2/2 173/2/2
f 171/3/2 172/3/2 174/3/2
f 173/2/2 171/2/2 174/2/2
f 172/2/2 168/2/2 175/2/2
f 174/3/2 172/3/2 175/3/2
f 168/2/2 158/2/2 176/2/2
f 175/2/2 168/2/2 176/2/2
f 174/3/2 175/3/2 177/3/2
f 173/3/2 174/3/2 177/3/2
f 175/3/2 176/3/2 177/3/2
f 155/2/2 173/2/2 177/2/2
f 177/3/2 176/3/2 178/3/2
f 178/3/2 176/3/2 179/3/2
f 176/2/2 158/2/2 180/2/2
f 179/3/2 176/3/2 180/3/2
f 178/3/2 179/3/2 181/3/2
f 177/2/2 178/2/2 181/2/2
f 179/2/2 180/2/2 182/2/2
f 181/3/2 179/3/2 182/3/2
f 155/2/2 177/2/2 183/2/2
f 177/2/2 181/2/2 183/2/2
f 181/2/2 182/2/2 183/2/2
f 180/2/2 158/2/2 184/2/2
f 183/2/2 182/2/2 184/2/2
f 182/2/2 180/2/2 184/2/2
f 189/2/3 186/2/3 185/2/3
f 190/4/3 187/4/3 186/4/3
f 190/2/3 186/2/3 189/2/3
f 191/2/3 188/2/3 187/2/3
f 191/4/3 187/4/3 190/4/3
f 192/2/3 188/2/3 191/2/3
f 197/2/3 194/2/3 193/2/3
f 198/4/3 195/4/3 194/4/3
f 198/2/3 194/2/3 197/2/3
f 199/2/3 196/2/3 195/2/3
f 199/4/3 195/4/3 198/4/3
f 200/2/3 196/2/3 199/2/3
f 205/2/3 202/2/3 201/2/3
f 206/4/3 203/4/3 202/4/3
f 206/2/3 202/2/3 205/2/3
f 207/2/3 204/2/3 203/2/3
f 207/4/3 203/4/3 206/4/3
f 208/2/3 204/2/3 207/2/3
f 213/2/3 210/2/3 209/2/3
f 214/4/3 211/4/3 210/4/3
f 214/2/3 210/2/3 213/2/3
f 215/2/3 212/2/3 211/2/3
f 215/4/3 211/4/3 214/4/3
f 216/2/3 212/2/3 215/2/3
f 221/2/3 218/2/3 217/2/3
f 222/4/3 219/4/3 218/4/3
f 222/2/3 218/2/3 221/2/3
f 223/2/3 220/2/3 219/2/3
f 223/4/3 219/4/3 222/4/3
f 224/2/3 220/2/3 223/2/3
f 229/2/3 226/2/3 225/2/3
f 230/4/3 227/4/3 226/4/3
f 230/2/3 226/2/3 229/2/3
f 231/2/3 228/2/3 227/2/3
f 231/4/3 227/4/3 230/4/3
f 232/2/3 228/2/3 231/2/3
f 237/2/3 234/2/3 233/2/3
f 238/4/3 235/4/3 234/4/3
f 238/2/3 234/2/3 237/2/3
f 239/2/3 236/2/3 235/2/3
f 239/4/3 235/4/3 238/4/3
f 240/2/3 236/2/3 239/2/3
f 245/2/3 242/2/3 241/2/3
f 246/4/3 243/4/3 242/4/3
f 246/2/3 242/2/3 245/2/3
f 247/2/3 244/2/3 243/2/3
f 247/4/3 243/4/3 246/4/3
f 248/2/3 244/2/3 247/2/3
f 253/2/3 250/2/3 249/2/3
f 254/4/3 251/4/3 250/4/3
f 254/2/3 250/2/3 253/2/3
f 255/2/3 252/2/3 251/2/3
f 255/4/3 251/4/3 254/4/3
f 256/2/3 252/2/3 255/2/3
f 257/2/4 258/2/4 261/2/4
f 258/4/4 259/4/4 262/4/4
f 261/2/4 258/2/4 262/2/4
f 259/2/4 260/2/4 263/2/4
f 262/4/4 259/4/4 263/4/4
f 263/2/4 260/2/4 264/2/4
f 265/2/4 266/2/4 269/2/4
f 266/4/4 267/4/4 270/4/4
f 269/2/4 266/2/4 270/2/4
f 267/2/4 268/2/4 271/2/4
f 270/4/4 267/4/4 271/4/4
f 271/2/4 268/2/4 272/2/4
f 273/2/4 274/2/4 277/2/4
f 274/4/4 275/4/4 278/4/4
f 277/2/4 274/2/4 278/2/4
f 275/2/4 276/2/4 279/2/4
f 278/4/4 275/4/4 279/4/4
f 279/2/4 276/2/4 280/2/4
f 281/2/4 282/2/4 285/2/4
f 282/4/4 283/4/4 286/4/4
f 285/2/4 282/2/4 286/2/4
f 283/2/4 284/2/4 287/2/4
f 286/4/4 283/4/4 287/4/4
f 287/2/4 284/2/4 288/2/4
f 289/2/4 290/2/4 293/2/4
f 290/4/4 291/4/4 294/4/4
f 293/2/4 290/2/4 294/2/4
f 291/2/4 292/2/4 295/2/4
f 294/4/4 291/4/4 295/4/4
f 295/2/4 292/2/4 296/2/4
f 297/2/4 298/2/4 301/2/4
f 298/4/4 299/4/4 302/4/4
f 301/2/4 298/2/4 302/2/4
f 299/2/4 300/2/4 303/2/4
f 302/4/4 299/4/4 303/4/4
f 303/2/4 300/2/4 304/2/4
f 305/2/4 306/2/4 309/2/4
f 306/4/4 307/4/4 310/4/4
f 309/2/4 306/2/4 310/2/4
f 307/2/4 308/2/4 311/2/4
f 310/4/4 307/4/4 311/4/4
f 311/2/4 308/2/4 312/2/4
f 313/2/4 314/2/4 317/2/4
f 314/4/4 315/4/4 318/4/4
f 317/2/4 314/2/4 318/2/4
f 315/2/4 316/2/4 319/2/4
f 318/4/4 315/4/4 319/4/4
f 319/2/4 316/2/4 320/2/4
f 321/2/4 322/2/4 325/2/4
f 322/4/4 323/4/4 326/4/4
f 325/2/4 322/2/4 326/2/4
f 323/2/4 324/2/4 327/2/4
f 326/4/4 323/4/4 327/4/4
f 327/2/4 324/2/4 328/2/4
f 332/2/5 330/2/5 329/2/5
f 333/2/5 330/2/5 332/2/5
f 336/2/5 332/2/5 331/2/5
f 336/2/5 334/2/5 333/2/5
f 336/2/5 333/2/5 332/2/5
f 337/2/5 334/2/5 336/2/5
f 340/2/5 336/2/5 335/2/5
f 340/2/5 338/2/5 337/2/5
f 340/2/5 337/2/5 336/2/5
f 341/2/5 338/2/5 340/2/5
f 344/2/5 340/2/5 339/2/5
f 344/2/5 342/2/5 341/2/5
f 344/2/5 341/2/5 340/2/5
f 345/2/5 342/2/5 344/2/5
f 347/2/5 344/2/5 343/2/5
f 347/2/5 346/2/5 345/2/5
f 347/2/5 345/2/5 344/2/5
f 348/2/5 346/2/5 347/2/5
f 349/2/5 346/2/5 348/2/5
f 350/2/5 346/2/5 349/2/5
f 351/2/5 349/2/5 348/2/5
f 352/2/5 349/2/5 351/2/5
f 353/2/5 349/2/5 352/2/5
f 354/2/5 349/2/5 353/2/5
f 355/2/5 353/2/5 352/2/5
f 356/2/5 353/2/5 355/2/5
f 357/2/5 353/2/5 356/2/5
f 358/2/5 353/2/5 357/2/5
f 359/2/5 357/2/5 356/2/5
f 360/2/5 357/2/5 359/2/5
f 361/2/5 357/2/5 360/2/5
f 362/2/5 357/2/5 361/2/5
f 363/2/5 361/2/5 360/2/5
f 364/2/5 361/2/5 363/2/5
f 365/2/6 366/2/6 368/2/6
f 368/2/6 366/2/6 369/2/6
f 367/2/6 368/2/6 372/2/6
f 369/2/6 370/2/6 372/2/6
f 368/2/6 369/2/6 372/2/6
f 372/2/6 370/2/6 373/2/6
f 371/2/6 372/2/6 376/2/6
f 373/2/6 374/2/6 376/2/6
f 372/2/6 373/2/6 376/2/6
f 376/2/6 374/2/6 377/2/6
f 375/2/6 376/2/6 380/2/6
f 377/2/6 378/2/6 380/2/6
f 376/2/6 377/2/6 380/2/6
f 380/2/6 378/2/6 381/2/6
f 379/2/6 380/2/6 383/2/6
f 381/2/6 382/2/6 383/2/6
f 380/2/6 381/2/6 383/2/6
f 383/2/6 382/2/6 384/2/6
f 384/2/6 382/2/6 385/2/6
f 385/2/6 382/2/6 386/2/6
f 384/2/6 385/2/6 387/2/6
f 387/2/6 385/2/6 388/2/6
f 388/2/6 385/2/6 389/2/6
f 389/2/6 385/2/6 390/2/6
f 388/2/6 389/2/6 391/2/6
f 391/2/6 389/2/6 392/2/6
f 392/2/6 389/2/6 393/2/6
f 393/2/6 389/2/6 394/2/6
f 392/2/6 393/2/6 395/2/6
f 395/2/6 393/2/6 396/2/6
f 396/2/6 393/2/6 397/2/6
f 397/2/6 393/2/6 398/2/6
f 396/2/6 397/2/6 399/2/6
f 399/2/6 397/2/6 400/2/6
