# MagicaVoxel @ Ephtracy

# group
o tree

# material
mtllib tree-1-tree.mtl
usemtl palette

# normals
vn -1 0 0
vn 1 0 0
vn 0 0 1
vn 0 0 -1
vn 0 -1 0
vn 0 1 0

# texcoords
vt 0.884766 0.5
vt 0.892578 0.5
vt 0.896484 0.5
vt 0.904297 0.5
vt 0.908203 0.5

# verts
v -2 0 2
v -2 0 -2
v -2 0.2 2
v -2 0.2 -2
v -1.9 0.2 1.9
v -1.9 0.2 -1.9
v -1.9 0.4 -1.8
v -1.9 0.4 -1.9
v -1.9 0.5 1.9
v -1.9 0.5 -1.8
v -1.8 0.5 1.8
v -1.8 0.5 -1.8
v -1.8 0.8 1.8
v -1.8 0.8 -1.8
v -1.7 0.8 1.7
v -1.7 0.8 -1.7
v -1.7 1.1 1.7
v -1.7 1.1 -1.7
v -1.6 1.1 1.6
v -1.6 1.1 -1.6
v -1.6 1.4 1.6
v -1.6 1.4 -1.6
v -1.5 1.4 1.5
v -1.5 1.4 -1.5
v -1.5 1.7 1.5
v -1.5 1.7 -1.5
v -1.4 1.7 1.4
v -1.4 1.7 -1.4
v -1.4 2 1.4
v -1.4 2 -1.4
v -1.3 2 1.3
v -1.3 2 -1.3
v -1.3 2.3 1.3
v -1.3 2.3 -1.3
v -1.2 2.3 1.2
v -1.2 2.3 -1.2
v -1.2 2.6 1.2
v -1.2 2.6 -1.2
v -1.1 2.6 1.1
v -1.1 2.6 -1.1
v -1.1 2.9 1.1
v -1.1 2.9 -1.1
v -1 2.9 1
v -1 2.9 -1
v -1 3.2 1
v -1 3.2 -1
v -0.9 3.2 0.9
v -0.9 3.2 -0.9
v -0.9 3.5 0.9
v -0.9 3.5 -0.9
v -0.8 3.5 0.8
v -0.8 3.5 -0.8
v -0.8 3.8 0.8
v -0.8 3.8 -0.8
v -0.7 3.8 0.7
v -0.7 3.8 -0.7
v -0.7 4.1 0.7
v -0.7 4.1 -0.7
v -0.6 4.1 0.6
v -0.6 4.1 -0.6
v -0.6 4.4 0.6
v -0.6 4.4 -0.6
v -0.5 4.4 0.5
v -0.5 4.4 -0.5
v -0.5 4.7 0.5
v -0.5 4.7 -0.5
v -0.4 4.7 0.4
v -0.4 4.7 -0.4
v -0.4 5 0.4
v -0.4 5 -0.4
v -0.3 5 0.3
v -0.3 5 -0.3
v -0.3 5.3 0.3
v -0.3 5.3 -0.3
v -0.2 5.3 0.2
v -0.2 5.3 -0.2
v -0.2 5.6 0.2
v -0.2 5.6 -0.2
v -0.0999999 5.6 0.0999999
v -0.0999999 5.6 -0.1
v -0.0999999 5.9 0.0999999
v -0.0999999 5.9 -0.1
v 0.1 5.6 0.0999999
v 0.1 5.6 -0.1
v 0.1 5.9 0.0999999
v 0.1 5.9 -0.1
v 0.2 5.3 0.2
v 0.2 5.3 -0.2
v 0.2 5.6 0.2
v 0.2 5.6 -0.2
v 0.3 5 0.3
v 0.3 5 -0.3
v 0.3 5.3 0.3
v 0.3 5.3 -0.3
v 0.4 4.7 0.4
v 0.4 4.7 -0.4
v 0.4 5 0.4
v 0.4 5 -0.4
v 0.5 4.4 0.5
v 0.5 4.4 -0.5
v 0.5 4.7 0.5
v 0.5 4.7 -0.5
v 0.6 4.1 0.6
v 0.6 4.1 -0.6
v 0.6 4.4 0.6
v 0.6 4.4 -0.6
v 0.7 3.8 0.7
v 0.7 3.8 -0.7
v 0.7 4.1 0.7
v 0.7 4.1 -0.7
v 0.8 3.5 0.8
v 0.8 3.5 -0.8
v 0.8 3.8 0.8
v 0.8 3.8 -0.8
v 0.9 3.2 0.9
v 0.9 3.2 -0.9
v 0.9 3.5 0.9
v 0.9 3.5 -0.9
v 1 2.9 1
v 1 2.9 -1
v 1 3.2 1
v 1 3.2 -1
v 1.1 2.6 1.1
v 1.1 2.6 -1.1
v 1.1 2.9 1.1
v 1.1 2.9 -1.1
v 1.2 2.3 1.2
v 1.2 2.3 -1.2
v 1.2 2.6 1.2
v 1.2 2.6 -1.2
v 1.3 2 1.3
v 1.3 2 -1.3
v 1.3 2.3 1.3
v 1.3 2.3 -1.3
v 1.4 1.7 1.4
v 1.4 1.7 -1.4
v 1.4 2 1.4
v 1.4 2 -1.4
v 1.5 1.4 1.5
v 1.5 1.4 -1.5
v 1.5 1.7 1.5
v 1.5 1.7 -1.5
v 1.6 1.1 1.6
v 1.6 1.1 -1.6
v 1.6 1.4 1.6
v 1.6 1.4 -1.6
v 1.7 0.8 1.7
v 1.7 0.8 -1.7
v 1.7 1.1 1.7
v 1.7 1.1 -1.7
v 1.8 0.4 1.9
v 1.8 0.4 -1.8
v 1.8 0.5 1.9
v 1.8 0.5 1.8
v 1.8 0.8 1.8
v 1.8 0.8 -1.8
v 1.9 0.2 1.9
v 1.9 0.2 -1.9
v 1.9 0.4 1.9
v 1.9 0.4 -1.9
v 2 0 2
v 2 0 -2
v 2 0.2 2
v 2 0.2 -2
v -2 0 2
v -2 0.2 2
v 2 0 2
v 2 0.2 2
v -1.9 0.2 1.9
v -1.9 0.5 1.9
v 1.8 0.4 1.9
v 1.8 0.5 1.9
v 1.9 0.2 1.9
v 1.9 0.4 1.9
v -1.8 0.5 1.8
v -1.8 0.8 1.8
v 1.8 0.5 1.8
v 1.8 0.8 1.8
v -1.7 0.8 1.7
v -1.7 1.1 1.7
v 1.7 0.8 1.7
v 1.7 1.1 1.7
v -1.6 1.1 1.6
v -1.6 1.4 1.6
v 1.6 1.1 1.6
v 1.6 1.4 1.6
v -1.5 1.4 1.5
v -1.5 1.7 1.5
v 1.5 1.4 1.5
v 1.5 1.7 1.5
v -1.4 1.7 1.4
v -1.4 2 1.4
v 1.4 1.7 1.4
v 1.4 2 1.4
v -1.3 2 1.3
v -1.3 2.3 1.3
v 1.3 2 1.3
v 1.3 2.3 1.3
v -1.2 2.3 1.2
v -1.2 2.6 1.2
v 1.2 2.3 1.2
v 1.2 2.6 1.2
v -1.1 2.6 1.1
v -1.1 2.9 1.1
v 1.1 2.6 1.1
v 1.1 2.9 1.1
v -1 2.9 1
v -1 3.2 1
v 1 2.9 1
v 1 3.2 1
v -0.9 3.2 0.9
v -0.9 3.5 0.9
v 0.9 3.2 0.9
v 0.9 3.5 0.9
v -0.8 3.5 0.8
v -0.8 3.8 0.8
v 0.8 3.5 0.8
v 0.8 3.8 0.8
v -0.7 3.8 0.7
v -0.7 4.1 0.7
v 0.7 3.8 0.7
v 0.7 4.1 0.7
v -0.6 4.1 0.6
v -0.6 4.4 0.6
v 0.6 4.1 0.6
v 0.6 4.4 0.6
v -0.5 4.4 0.5
v -0.5 4.7 0.5
v 0.5 4.4 0.5
v 0.5 4.7 0.5
v -0.4 4.7 0.4
v -0.4 5 0.4
v 0.4 4.7 0.4
v 0.4 5 0.4
v -0.3 5 0.3
v -0.3 5.3 0.3
v 0.3 5 0.3
v 0.3 5.3 0.3
v -0.2 5.3 0.2
v -0.2 5.6 0.2
v 0.2 5.3 0.2
v 0.2 5.6 0.2
v -0.0999999 5.6 0.0999999
v -0.0999999 5.9 0.0999999
v 0.1 5.6 0.0999999
v 0.1 5.9 0.0999999
v -0.0999999 5.6 -0.1
v -0.0999999 5.9 -0.1
v 0.1 5.6 -0.1
v 0.1 5.9 -0.1
v -0.2 5.3 -0.2
v -0.2 5.6 -0.2
v 0.2 5.3 -0.2
v 0.2 5.6 -0.2
v -0.3 5 -0.3
v -0.3 5.3 -0.3
v 0.3 5 -0.3
v 0.3 5.3 -0.3
v -0.4 4.7 -0.4
v -0.4 5 -0.4
v 0.4 4.7 -0.4
v 0.4 5 -0.4
v -0.5 4.4 -0.5
v -0.5 4.7 -0.5
v 0.5 4.4 -0.5
v 0.5 4.7 -0.5
v -0.6 4.1 -0.6
v -0.6 4.4 -0.6
v 0.6 4.1 -0.6
v 0.6 4.4 -0.6
v -0.7 3.8 -0.7
v -0.7 4.1 -0.7
v 0.7 3.8 -0.7
v 0.7 4.1 -0.7
v -0.8 3.5 -0.8
v -0.8 3.8 -0.8
v 0.8 3.5 -0.8
v 0.8 3.8 -0.8
v -0.9 3.2 -0.9
v -0.9 3.5 -0.9
v 0.9 3.2 -0.9
v 0.9 3.5 -0.9
v -1 2.9 -1
v -1 3.2 -1
v 1 2.9 -1
v 1 3.2 -1
v -1.1 2.6 -1.1
v -1.1 2.9 -1.1
v 1.1 2.6 -1.1
v 1.1 2.9 -1.1
v -1.2 2.3 -1.2
v -1.2 2.6 -1.2
v 1.2 2.3 -1.2
v 1.2 2.6 -1.2
v -1.3 2 -1.3
v -1.3 2.3 -1.3
v 1.3 2 -1.3
v 1.3 2.3 -1.3
v -1.4 1.7 -1.4
v -1.4 2 -1.4
v 1.4 1.7 -1.4
v 1.4 2 -1.4
v -1.5 1.4 -1.5
v -1.5 1.7 -1.5
v 1.5 1.4 -1.5
v 1.5 1.7 -1.5
v -1.6 1.1 -1.6
v -1.6 1.4 -1.6
v 1.6 1.1 -1.6
v 1.6 1.4 -1.6
v -1.7 0.8 -1.7
v -1.7 1.1 -1.7
v 1.7 0.8 -1.7
v 1.7 1.1 -1.7
v -1.9 0.4 -1.8
v -1.9 0.5 -1.8
v -1.8 0.5 -1.8
v -1.8 0.8 -1.8
v 1.8 0.4 -1.8
v 1.8 0.8 -1.8
v -1.9 0.2 -1.9
v -1.9 0.4 -1.9
v 1.9 0.2 -1.9
v 1.9 0.4 -1.9
v -2 0 -2
v -2 0.2 -2
v 2 0 -2
v 2 0.2 -2
v -2 0 2
v 2 0 2
v -2 0 -2
v 2 0 -2
v -2 0.2 2
v 2 0.2 2
v -1.9 0.2 1.9
v 1.9 0.2 1.9
v -1.9 0.2 -1.9
v 1.9 0.2 -1.9
v -2 0.2 -2
v 2 0.2 -2
v 1.8 0.4 1.9
v 1.9 0.4 1.9
v -1.9 0.4 -1.8
v 1.8 0.4 -1.8
v -1.9 0.4 -1.9
v 1.9 0.4 -1.9
v -1.9 0.5 1.9
v 1.8 0.5 1.9
v -1.8 0.5 1.8
v 1.8 0.5 1.8
v -1.9 0.5 -1.8
v -1.8 0.5 -1.8
v -1.8 0.8 1.8
v 1.8 0.8 1.8
v -1.7 0.8 1.7
v 1.7 0.8 1.7
v -1.7 0.8 -1.7
v 1.7 0.8 -1.7
v -1.8 0.8 -1.8
v 1.8 0.8 -1.8
v -1.7 1.1 1.7
v 1.7 1.1 1.7
v -1.6 1.1 1.6
v 1.6 1.1 1.6
v -1.6 1.1 -1.6
v 1.6 1.1 -1.6
v -1.7 1.1 -1.7
v 1.7 1.1 -1.7
v -1.6 1.4 1.6
v 1.6 1.4 1.6
v -1.5 1.4 1.5
v 1.5 1.4 1.5
v -1.5 1.4 -1.5
v 1.5 1.4 -1.5
v -1.6 1.4 -1.6
v 1.6 1.4 -1.6
v -1.5 1.7 1.5
v 1.5 1.7 1.5
v -1.4 1.7 1.4
v 1.4 1.7 1.4
v -1.4 1.7 -1.4
v 1.4 1.7 -1.4
v -1.5 1.7 -1.5
v 1.5 1.7 -1.5
v -1.4 2 1.4
v 1.4 2 1.4
v -1.3 2 1.3
v 1.3 2 1.3
v -1.3 2 -1.3
v 1.3 2 -1.3
v -1.4 2 -1.4
v 1.4 2 -1.4
v -1.3 2.3 1.3
v 1.3 2.3 1.3
v -1.2 2.3 1.2
v 1.2 2.3 1.2
v -1.2 2.3 -1.2
v 1.2 2.3 -1.2
v -1.3 2.3 -1.3
v 1.3 2.3 -1.3
v -1.2 2.6 1.2
v 1.2 2.6 1.2
v -1.1 2.6 1.1
v 1.1 2.6 1.1
v -1.1 2.6 -1.1
v 1.1 2.6 -1.1
v -1.2 2.6 -1.2
v 1.2 2.6 -1.2
v -1.1 2.9 1.1
v 1.1 2.9 1.1
v -1 2.9 1
v 1 2.9 1
v -1 2.9 -1
v 1 2.9 -1
v -1.1 2.9 -1.1
v 1.1 2.9 -1.1
v -1 3.2 1
v 1 3.2 1
v -0.9 3.2 0.9
v 0.9 3.2 0.9
v -0.9 3.2 -0.9
v 0.9 3.2 -0.9
v -1 3.2 -1
v 1 3.2 -1
v -0.9 3.5 0.9
v 0.9 3.5 0.9
v -0.8 3.5 0.8
v 0.8 3.5 0.8
v -0.8 3.5 -0.8
v 0.8 3.5 -0.8
v -0.9 3.5 -0.9
v 0.9 3.5 -0.9
v -0.8 3.8 0.8
v 0.8 3.8 0.8
v -0.7 3.8 0.7
v 0.7 3.8 0.7
v -0.7 3.8 -0.7
v 0.7 3.8 -0.7
v -0.8 3.8 -0.8
v 0.8 3.8 -0.8
v -0.7 4.1 0.7
v 0.7 4.1 0.7
v -0.6 4.1 0.6
v 0.6 4.1 0.6
v -0.6 4.1 -0.6
v 0.6 4.1 -0.6
v -0.7 4.1 -0.7
v 0.7 4.1 -0.7
v -0.6 4.4 0.6
v 0.6 4.4 0.6
v -0.5 4.4 0.5
v 0.5 4.4 0.5
v -0.5 4.4 -0.5
v 0.5 4.4 -0.5
v -0.6 4.4 -0.6
v 0.6 4.4 -0.6
v -0.5 4.7 0.5
v 0.5 4.7 0.5
v -0.4 4.7 0.4
v 0.4 4.7 0.4
v -0.4 4.7 -0.4
v 0.4 4.7 -0.4
v -0.5 4.7 -0.5
v 0.5 4.7 -0.5
v -0.4 5 0.4
v 0.4 5 0.4
v -0.3 5 0.3
v 0.3 5 0.3
v -0.3 5 -0.3
v 0.3 5 -0.3
v -0.4 5 -0.4
v 0.4 5 -0.4
v -0.3 5.3 0.3
v 0.3 5.3 0.3
v -0.2 5.3 0.2
v 0.2 5.3 0.2
v -0.2 5.3 -0.2
v 0.2 5.3 -0.2
v -0.3 5.3 -0.3
v 0.3 5.3 -0.3
v -0.2 5.6 0.2
v 0.2 5.6 0.2
v -0.0999999 5.6 0.0999999
v 0.1 5.6 0.0999999
v -0.0999999 5.6 -0.1
v 0.1 5.6 -0.1
v -0.2 5.6 -0.2
v 0.2 5.6 -0.2
v -0.0999999 5.9 0.0999999
v 0.1 5.9 0.0999999
v -0.0999999 5.9 -0.1
v 0.1 5.9 -0.1

# faces
f 3/4/1 2/4/1 1/4/1
f 4/4/1 2/4/1 3/4/1
f 7/4/1 6/4/1 5/4/1
f 8/4/1 6/4/1 7/4/1
f 9/4/1 7/4/1 5/4/1
f 10/4/1 7/4/1 9/4/1
f 13/4/1 12/4/1 11/4/1
f 14/4/1 12/4/1 13/4/1
f 17/4/1 16/4/1 15/4/1
f 18/4/1 16/4/1 17/4/1
f 21/4/1 20/4/1 19/4/1
f 22/4/1 20/4/1 21/4/1
f 25/5/1 24/5/1 23/5/1
f 26/5/1 24/5/1 25/5/1
f 29/3/1 28/3/1 27/3/1
f 30/3/1 28/3/1 29/3/1
f 33/3/1 32/3/1 31/3/1
f 34/3/1 32/3/1 33/3/1
f 37/3/1 36/3/1 35/3/1
f 38/3/1 36/3/1 37/3/1
f 41/3/1 40/3/1 39/3/1
f 42/3/1 40/3/1 41/3/1
f 45/5/1 44/5/1 43/5/1
f 46/5/1 44/5/1 45/5/1
f 49/2/1 48/2/1 47/2/1
f 50/2/1 48/2/1 49/2/1
f 53/2/1 52/2/1 51/2/1
f 54/2/1 52/2/1 53/2/1
f 57/2/1 56/2/1 55/2/1
f 58/2/1 56/2/1 57/2/1
f 61/5/1 60/5/1 59/5/1
f 62/5/1 60/5/1 61/5/1
f 65/1/1 64/1/1 63/1/1
f 66/1/1 64/1/1 65/1/1
f 69/1/1 68/1/1 67/1/1
f 70/1/1 68/1/1 69/1/1
f 73/1/1 72/1/1 71/1/1
f 74/1/1 72/1/1 73/1/1
f 77/1/1 76/1/1 75/1/1
f 78/1/1 76/1/1 77/1/1
f 81/1/1 80/1/1 79/1/1
f 82/1/1 80/1/1 81/1/1
f 83/1/2 84/1/2 85/1/2
f 85/1/2 84/1/2 86/1/2
f 87/1/2 88/1/2 89/1/2
f 89/1/2 88/1/2 90/1/2
f 91/1/2 92/1/2 93/1/2
f 93/1/2 92/1/2 94/1/2
f 95/1/2 96/1/2 97/1/2
f 97/1/2 96/1/2 98/1/2
f 99/1/2 100/1/2 101/1/2
f 101/1/2 100/1/2 102/1/2
f 103/5/2 104/5/2 105/5/2
f 105/5/2 104/5/2 106/5/2
f 107/2/2 108/2/2 109/2/2
f 109/2/2 108/2/2 110/2/2
f 111/2/2 112/2/2 113/2/2
f 113/2/2 112/2/2 114/2/2
f 115/2/2 116/2/2 117/2/2
f 117/2/2 116/2/2 118/2/2
f 119/5/2 120/5/2 121/5/2
f 121/5/2 120/5/2 122/5/2
f 123/3/2 124/3/2 125/3/2
f 125/3/2 124/3/2 126/3/2
f 127/3/2 128/3/2 129/3/2
f 129/3/2 128/3/2 130/3/2
f 131/3/2 132/3/2 133/3/2
f 133/3/2 132/3/2 134/3/2
f 135/3/2 136/3/2 137/3/2
f 137/3/2 136/3/2 138/3/2
f 139/5/2 140/5/2 141/5/2
f 141/5/2 140/5/2 142/5/2
f 143/4/2 144/4/2 145/4/2
f 145/4/2 144/4/2 146/4/2
f 147/4/2 148/4/2 149/4/2
f 149/4/2 148/4/2 150/4/2
f 151/4/2 152/4/2 153/4/2
f 153/4/2 152/4/2 154/4/2
f 154/4/2 152/4/2 155/4/2
f 155/4/2 152/4/2 156/4/2
f 157/4/2 158/4/2 159/4/2
f 159/4/2 158/4/2 160/4/2
f 161/4/2 162/4/2 163/4/2
f 163/4/2 162/4/2 164/4/2
f 167/4/3 166/4/3 165/4/3
f 168/4/3 166/4/3 167/4/3
f 171/4/3 170/4/3 169/4/3
f 172/4/3 170/4/3 171/4/3
f 173/4/3 171/4/3 169/4/3
f 174/4/3 171/4/3 173/4/3
f 177/4/3 176/4/3 175/4/3
f 178/4/3 176/4/3 177/4/3
f 181/4/3 180/4/3 179/4/3
f 182/4/3 180/4/3 181/4/3
f 185/4/3 184/4/3 183/4/3
f 186/4/3 184/4/3 185/4/3
f 189/5/3 188/5/3 187/5/3
f 190/5/3 188/5/3 189/5/3
f 193/3/3 192/3/3 191/3/3
f 194/3/3 192/3/3 193/3/3
f 197/3/3 196/3/3 195/3/3
f 198/3/3 196/3/3 197/3/3
f 201/3/3 200/3/3 199/3/3
f 202/3/3 200/3/3 201/3/3
f 205/3/3 204/3/3 203/3/3
f 206/3/3 204/3/3 205/3/3
f 209/5/3 208/5/3 207/5/3
f 210/5/3 208/5/3 209/5/3
f 213/2/3 212/2/3 211/2/3
f 214/2/3 212/2/3 213/2/3
f 217/2/3 216/2/3 215/2/3
f 218/2/3 216/2/3 217/2/3
f 221/2/3 220/2/3 219/2/3
f 222/2/3 220/2/3 221/2/3
f 225/5/3 224/5/3 223/5/3
f 226/5/3 224/5/3 225/5/3
f 229/1/3 228/1/3 227/1/3
f 230/1/3 228/1/3 229/1/3
f 233/1/3 232/1/3 231/1/3
f 234/1/3 232/1/3 233/1/3
f 237/1/3 236/1/3 235/1/3
f 238/1/3 236/1/3 237/1/3
f 241/1/3 240/1/3 239/1/3
f 242/1/3 240/1/3 241/1/3
f 245/1/3 244/1/3 243/1/3
f 246/1/3 244/1/3 245/1/3
f 247/1/4 248/1/4 249/1/4
f 249/1/4 248/1/4 250/1/4
f 251/1/4 252/1/4 253/1/4
f 253/1/4 252/1/4 254/1/4
f 255/1/4 256/1/4 257/1/4
f 257/1/4 256/1/4 258/1/4
f 259/1/4 260/1/4 261/1/4
f 261/1/4 260/1/4 262/1/4
f 263/1/4 264/1/4 265/1/4
f 265/1/4 264/1/4 266/1/4
f 267/5/4 268/5/4 269/5/4
f 269/5/4 268/5/4 270/5/4
f 271/2/4 272/2/4 273/2/4
f 273/2/4 272/2/4 274/2/4
f 275/2/4 276/2/4 277/2/4
f 277/2/4 276/2/4 278/2/4
f 279/2/4 280/2/4 281/2/4
f 281/2/4 280/2/4 282/2/4
f 283/5/4 284/5/4 285/5/4
f 285/5/4 284/5/4 286/5/4
f 287/3/4 288/3/4 289/3/4
f 289/3/4 288/3/4 290/3/4
f 291/3/4 292/3/4 293/3/4
f 293/3/4 292/3/4 294/3/4
f 295/3/4 296/3/4 297/3/4
f 297/3/4 296/3/4 298/3/4
f 299/3/4 300/3/4 301/3/4
f 301/3/4 300/3/4 302/3/4
f 303/5/4 304/5/4 305/5/4
f 305/5/4 304/5/4 306/5/4
f 307/4/4 308/4/4 309/4/4
f 309/4/4 308/4/4 310/4/4
f 311/4/4 312/4/4 313/4/4
f 313/4/4 312/4/4 314/4/4
f 315/4/4 316/4/4 317/4/4
f 315/4/4 317/4/4 319/4/4
f 317/4/4 318/4/4 319/4/4
f 319/4/4 318/4/4 320/4/4
f 321/4/4 322/4/4 323/4/4
f 323/4/4 322/4/4 324/4/4
f 325/4/4 326/4/4 327/4/4
f 327/4/4 326/4/4 328/4/4
f 331/4/5 330/4/5 329/4/5
f 332/4/5 330/4/5 331/4/5
f 333/4/6 334/4/6 335/4/6
f 335/4/6 334/4/6 336/4/6
f 333/4/6 335/4/6 337/4/6
f 336/4/6 334/4/6 338/4/6
f 333/4/6 337/4/6 339/4/6
f 337/4/6 338/4/6 339/4/6
f 338/4/6 334/4/6 340/4/6
f 339/4/6 338/4/6 340/4/6
f 341/4/6 342/4/6 344/4/6
f 343/4/6 344/4/6 345/4/6
f 344/4/6 342/4/6 346/4/6
f 345/4/6 344/4/6 346/4/6
f 347/4/6 348/4/6 349/4/6
f 349/4/6 348/4/6 350/4/6
f 347/4/6 349/4/6 351/4/6
f 351/4/6 349/4/6 352/4/6
f 353/4/6 354/4/6 355/4/6
f 355/4/6 354/4/6 356/4/6
f 353/4/6 355/4/6 357/4/6
f 356/4/6 354/4/6 358/4/6
f 353/4/6 357/4/6 359/4/6
f 357/4/6 358/4/6 359/4/6
f 358/4/6 354/4/6 360/4/6
f 359/4/6 358/4/6 360/4/6
f 361/4/6 362/4/6 363/4/6
f 363/4/6 362/4/6 364/4/6
f 361/4/6 363/4/6 365/4/6
f 364/4/6 362/4/6 366/4/6
f 361/4/6 365/4/6 367/4/6
f 365/4/6 366/4/6 367/4/6
f 366/4/6 362/4/6 368/4/6
f 367/4/6 366/4/6 368/4/6
f 369/4/6 370/4/6 371/4/6
f 371/4/6 370/4/6 372/4/6
f 369/4/6 371/4/6 373/4/6
f 372/4/6 370/4/6 374/4/6
f 369/4/6 373/4/6 375/4/6
f 373/4/6 374/4/6 375/4/6
f 374/4/6 370/4/6 376/4/6
f 375/4/6 374/4/6 376/4/6
f 377/5/6 378/5/6 379/5/6
f 379/5/6 378/5/6 380/5/6
f 377/5/6 379/5/6 381/5/6
f 380/5/6 378/5/6 382/5/6
f 377/5/6 381/5/6 383/5/6
f 381/5/6 382/5/6 383/5/6
f 382/5/6 378/5/6 384/5/6
f 383/5/6 382/5/6 384/5/6
f 385/3/6 386/3/6 387/3/6
f 387/3/6 386/3/6 388/3/6
f 385/3/6 387/3/6 389/3/6
f 388/3/6 386/3/6 390/3/6
f 385/3/6 389/3/6 391/3/6
f 389/3/6 390/3/6 391/3/6
f 390/3/6 386/3/6 392/3/6
f 391/3/6 390/3/6 392/3/6
f 393/3/6 394/3/6 395/3/6
f 395/3/6 394/3/6 396/3/6
f 393/3/6 395/3/6 397/3/6
f 396/3/6 394/3/6 398/3/6
f 393/3/6 397/3/6 399/3/6
f 397/3/6 398/3/6 399/3/6
f 398/3/6 394/3/6 400/3/6
f 399/3/6 398/3/6 400/3/6
f 401/3/6 402/3/6 403/3/6
f 403/3/6 402/3/6 404/3/6
f 401/3/6 403/3/6 405/3/6
f 404/3/6 402/3/6 406/3/6
f 401/3/6 405/3/6 407/3/6
f 405/3/6 406/3/6 407/3/6
f 406/3/6 402/3/6 408/3/6
f 407/3/6 406/3/6 408/3/6
f 409/3/6 410/3/6 411/3/6
f 411/3/6 410/3/6 412/3/6
f 409/3/6 411/3/6 413/3/6
f 412/3/6 410/3/6 414/3/6
f 409/3/6 413/3/6 415/3/6
f 413/3/6 414/3/6 415/3/6
f 414/3/6 410/3/6 416/3/6
f 415/3/6 414/3/6 416/3/6
f 417/5/6 418/5/6 419/5/6
f 419/5/6 418/5/6 420/5/6
f 417/5/6 419/5/6 421/5/6
f 420/5/6 418/5/6 422/5/6
f 417/5/6 421/5/6 423/5/6
f 421/5/6 422/5/6 423/5/6
f 422/5/6 418/5/6 424/5/6
f 423/5/6 422/5/6 424/5/6
f 425/2/6 426/2/6 427/2/6
f 427/2/6 426/2/6 428/2/6
f 425/2/6 427/2/6 429/2/6
f 428/2/6 426/2/6 430/2/6
f 425/2/6 429/2/6 431/2/6
f 429/2/6 430/2/6 431/2/6
f 430/2/6 426/2/6 432/2/6
f 431/2/6 430/2/6 432/2/6
f 433/2/6 434/2/6 435/2/6
f 435/2/6 434/2/6 436/2/6
f 433/2/6 435/2/6 437/2/6
f 436/2/6 434/2/6 438/2/6
f 433/2/6 437/2/6 439/2/6
f 437/2/6 438/2/6 439/2/6
f 438/2/6 434/2/6 440/2/6
f 439/2/6 438/2/6 440/2/6
f 441/2/6 442/2/6 443/2/6
f 443/2/6 442/2/6 444/2/6
f 441/2/6 443/2/6 445/2/6
f 444/2/6 442/2/6 446/2/6
f 441/2/6 445/2/6 447/2/6
f 445/2/6 446/2/6 447/2/6
f 446/2/6 442/2/6 448/2/6
f 447/2/6 446/2/6 448/2/6
f 449/5/6 450/5/6 451/5/6
f 451/5/6 450/5/6 452/5/6
f 449/5/6 451/5/6 453/5/6
f 452/5/6 450/5/6 454/5/6
f 449/5/6 453/5/6 455/5/6
f 453/5/6 454/5/6 455/5/6
f 454/5/6 450/5/6 456/5/6
f 455/5/6 454/5/6 456/5/6
f 457/1/6 458/1/6 459/1/6
f 459/1/6 458/1/6 460/1/6
f 457/1/6 459/1/6 461/1/6
f 460/1/6 458/1/6 462/1/6
f 457/1/6 461/1/6 463/1/6
f 461/1/6 462/1/6 463/1/6
f 462/1/6 458/1/6 464/1/6
f 463/1/6 462/1/6 464/1/6
f 465/1/6 466/1/6 467/1/6
f 467/1/6 466/1/6 468/1/6
f 465/1/6 467/1/6 469/1/6
f 468/1/6 466/1/6 470/1/6
f 465/1/6 469/1/6 471/1/6
f 469/1/6 470/1/6 471/1/6
f 470/1/6 466/1/6 472/1/6
f 471/1/6 470/1/6 472/1/6
f 473/1/6 474/1/6 475/1/6
f 475/1/6 474/1/6 476/1/6
f 473/1/6 475/1/6 477/1/6
f 476/1/6 474/1/6 478/1/6
f 473/1/6 477/1/6 479/1/6
f 477/1/6 478/1/6 479/1/6
f 478/1/6 474/1/6 480/1/6
f 479/1/6 478/1/6 480/1/6
f 481/1/6 482/1/6 483/1/6
f 483/1/6 482/1/6 484/1/6
f 481/1/6 483/1/6 485/1/6
f 484/1/6 482/1/6 486/1/6
f 481/1/6 485/1/6 487/1/6
f 485/1/6 486/1/6 487/1/6
f 486/1/6 482/1/6 488/1/6
f 487/1/6 486/1/6 488/1/6
f 489/1/6 490/1/6 491/1/6
f 491/1/6 490/1/6 492/1/6
