# MagicaVoxel @ Ephtracy

# group
o 

# material
mtllib CrossBlockW2.mtl
usemtl palette

# normals
vn -1 0 0
vn 1 0 0
vn 0 0 1
vn 0 0 -1
vn 0 -1 0
vn 0 1 0

# texcoords
vt 0.177734 0.5
vt 0.306641 0.5
vt 0.345703 0.5
vt 0.509766 0.5
vt 0.677734 0.5
vt 0.994141 0.5

# verts
v -2 0 2
v -2 0 -2
v -2 11.2 2
v -2 11.2 1.9
v -2 11.2 -2
v -2 11.3 1.6
v -2 11.3 -1.6
v -2 13.7 2
v -2 13.7 1.9
v -2 13.7 1.6
v -2 13.7 -1.6
v -2 13.7 -2
v -2 14.4 0.0999999
v -2 14.4 -0.4
v -2 14.6 1.3
v -2 14.6 0.7
v -2 14.9 0.0999999
v -2 14.9 -0.4
v -2 15.2 1.3
v -2 15.2 0.7
v -2 15.6 -1.5
v -2 15.6 -1.6
v -2 15.7 -1.5
v -2 15.7 -1.6
v -2 16.4 0.7
v -2 16.4 0.4
v -2 16.7 0.7
v -2 16.7 0.4
v -2 16.8 -0.7
v -2 16.8 -1
v -2 17.1 -0.7
v -2 17.1 -1
v -2 17.2 2
v -2 17.2 1.6
v -2 17.2 -1.6
v -2 17.2 -2
v -2 17.4 2
v -2 17.4 1.6
v -2 17.4 1.3
v -2 17.4 1.1
v -2 17.4 -1.6
v -2 17.4 -2
v -2 17.6 1.3
v -2 17.6 1.1
v -2 18.3 -1.3
v -2 18.3 -1.6
v -2 18.4 0.5
v -2 18.4 -0.3
v -2 18.6 2
v -2 18.6 1.6
v -2 18.6 -1.3
v -2 18.6 -1.6
v -2 18.6 -2
v -2 18.8 2
v -2 18.8 1.6
v -2 18.8 -1.6
v -2 18.8 -2
v -2 19.2 2
v -2 19.2 1.6
v -2 19.2 0.5
v -2 19.2 -0.3
v -2 19.2 -1.6
v -2 19.2 -2
v -2 19.4 2
v -2 19.4 1.6
v -2 19.4 -1.6
v -2 19.4 -2
v -2 19.7 1.5
v -2 19.7 1
v -2 20 2
v -2 20 1.6
v -2 20 1.5
v -2 20 1
v -2 20 -1.6
v -2 20 -2
v 2 0 2
v 2 0 -2
v 2 11.2 2
v 2 11.2 1.9
v 2 11.2 -2
v 2 11.3 1.6
v 2 11.3 -1.6
v 2 13.7 2
v 2 13.7 1.9
v 2 13.7 1.6
v 2 13.7 -1.6
v 2 13.7 -2
v 2 14.4 0.0999999
v 2 14.4 -0.4
v 2 14.6 1.3
v 2 14.6 0.7
v 2 14.9 0.0999999
v 2 14.9 -0.4
v 2 15.2 1.3
v 2 15.2 0.7
v 2 15.5 2
v 2 15.5 1.6
v 2 15.5 -1.6
v 2 15.5 -2
v 2 15.6 -1.5
v 2 15.6 -1.6
v 2 15.7 1.8
v 2 15.7 1.6
v 2 15.7 -1.5
v 2 15.7 -1.6
v 2 15.7 -1.8
v 2 16.4 0.7
v 2 16.4 0.4
v 2 16.7 0.7
v 2 16.7 0.4
v 2 16.8 -0.7
v 2 16.8 -1
v 2 17.1 -0.7
v 2 17.1 -1
v 2 17.4 1.3
v 2 17.4 1.1
v 2 17.6 1.3
v 2 17.6 1.1
v 2 18.3 -1.3
v 2 18.3 -1.6
v 2 18.4 0.5
v 2 18.4 -0.3
v 2 18.6 1.8
v 2 18.6 1.6
v 2 18.6 -1.3
v 2 18.6 -1.6
v 2 18.6 -1.8
v 2 18.8 2
v 2 18.8 1.6
v 2 18.8 -1.6
v 2 18.8 -2
v 2 19.2 2
v 2 19.2 1.6
v 2 19.2 0.5
v 2 19.2 -0.3
v 2 19.2 -1.6
v 2 19.2 -2
v 2 19.4 2
v 2 19.4 1.6
v 2 19.4 -1.6
v 2 19.4 -2
v 2 19.7 1.5
v 2 19.7 1
v 2 20 2
v 2 20 1.6
v 2 20 1.5
v 2 20 1
v 2 20 -1.6
v 2 20 -2
v -2 0 2
v -2 11.2 2
v -2 13.7 2
v -2 17.2 2
v -2 17.4 2
v -2 18.6 2
v -2 18.8 2
v -2 19.2 2
v -2 19.4 2
v -2 20 2
v -1.6 13.7 2
v -1.6 17.2 2
v -1.6 17.4 2
v -1.6 18.6 2
v -1.6 18.8 2
v -1.6 19.2 2
v -1.6 19.4 2
v -1.6 20 2
v 1.6 13.7 2
v 1.6 15.5 2
v 1.6 15.7 2
v 1.6 17.7 2
v 1.6 17.9 2
v 1.6 18.6 2
v 1.6 18.8 2
v 1.6 19.2 2
v 1.6 19.4 2
v 1.6 20 2
v 1.8 15.7 2
v 1.8 17.7 2
v 1.8 17.9 2
v 1.8 18.6 2
v 2 0 2
v 2 11.2 2
v 2 13.7 2
v 2 15.5 2
v 2 18.8 2
v 2 19.2 2
v 2 19.4 2
v 2 20 2
v -2 0 -2
v -2 11.2 -2
v -2 13.7 -2
v -2 17.2 -2
v -2 17.4 -2
v -2 18.6 -2
v -2 18.8 -2
v -2 19.2 -2
v -2 19.4 -2
v -2 20 -2
v -1.6 11.2 -2
v -1.6 13.7 -2
v -1.6 17.2 -2
v -1.6 17.4 -2
v -1.6 18.6 -2
v -1.6 18.8 -2
v -1.6 19.2 -2
v -1.6 19.4 -2
v -1.6 20 -2
v 1.5 11.1 -2
v 1.5 11.2 -2
v 1.6 11.1 -2
v 1.6 11.2 -2
v 1.6 13.7 -2
v 1.6 15.5 -2
v 1.6 15.7 -2
v 1.6 17.7 -2
v 1.6 17.9 -2
v 1.6 18.6 -2
v 1.6 18.8 -2
v 1.6 19.2 -2
v 1.6 19.4 -2
v 1.6 20 -2
v 1.8 15.7 -2
v 1.8 17.7 -2
v 1.8 17.9 -2
v 1.8 18.6 -2
v 2 0 -2
v 2 11.2 -2
v 2 13.7 -2
v 2 15.5 -2
v 2 18.8 -2
v 2 19.2 -2
v 2 19.4 -2
v 2 20 -2
v -2 0 2
v 2 0 2
v -2 0 -2
v 2 0 -2
v -2 20 2
v -1.6 20 2
v 1.6 20 2
v 2 20 2
v -0.4 20 1.7
v -0.2 20 1.7
v -2 20 1.6
v -1.6 20 1.6
v 1.6 20 1.6
v 2 20 1.6
v -2 20 1.5
v -1.7 20 1.5
v -0.4 20 1.5
v -0.2 20 1.5
v 1.7 20 1.5
v 2 20 1.5
v -2 20 1
v -1.7 20 1
v 1.7 20 1
v 2 20 1
v -1.1 20 0.8
v -0.7 20 0.8
v 0.8 20 0.8
v 1.1 20 0.8
v 0.8 20 0.5
v 1.1 20 0.5
v -1.1 20 0.4
v -0.7 20 0.4
v -1.8 20 0.0999999
v -1.5 20 0.0999999
v 0.7 20 -2.38419e-07
v 1.1 20 -2.38419e-07
v -1.8 20 -0.2
v -1.5 20 -0.2
v -0.5 20 -0.4
v -0.4 20 -0.4
v 0.7 20 -0.4
v 1.1 20 -0.4
v -0.5 20 -0.5
v -0.4 20 -0.5
v -1.7 20 -0.7
v -1 20 -0.7
v 1.6 20 -1.1
v 1.8 20 -1.1
v 0.1 20 -1.3
v 0.7 20 -1.3
v 1.6 20 -1.3
v 1.8 20 -1.3
v -1.7 20 -1.4
v -1 20 -1.4
v -2 20 -1.6
v -1.6 20 -1.6
v 1.6 20 -1.6
v 2 20 -1.6
v 0.1 20 -1.9
v 0.7 20 -1.9
v -2 20 -2
v -1.6 20 -2
v 1.6 20 -2
v 2 20 -2

# faces
f 3/6/1 2/6/1 1/6/1
f 4/6/1 2/6/1 3/6/1
f 5/6/1 2/6/1 4/6/1
f 6/4/1 5/4/1 4/4/1
f 7/4/1 5/4/1 6/4/1
f 8/3/1 4/3/1 3/3/1
f 9/4/1 6/4/1 4/4/1
f 9/3/1 4/3/1 8/3/1
f 10/3/1 7/3/1 6/3/1
f 10/4/1 6/4/1 9/4/1
f 11/4/1 5/4/1 7/4/1
f 11/3/1 7/3/1 10/3/1
f 12/4/1 5/4/1 11/4/1
f 13/3/1 11/3/1 10/3/1
f 14/3/1 11/3/1 13/3/1
f 15/3/1 13/3/1 10/3/1
f 16/3/1 13/3/1 15/3/1
f 17/1/1 14/1/1 13/1/1
f 17/3/1 13/3/1 16/3/1
f 18/3/1 11/3/1 14/3/1
f 18/1/1 14/1/1 17/1/1
f 19/1/1 16/1/1 15/1/1
f 19/3/1 15/3/1 10/3/1
f 20/3/1 17/3/1 16/3/1
f 20/1/1 16/1/1 19/1/1
f 20/3/1 18/3/1 17/3/1
f 21/3/1 11/3/1 18/3/1
f 21/3/1 18/3/1 20/3/1
f 21/3/1 20/3/1 19/3/1
f 22/5/1 12/5/1 11/5/1
f 22/3/1 11/3/1 21/3/1
f 23/3/1 21/3/1 19/3/1
f 23/1/1 22/1/1 21/1/1
f 24/5/1 12/5/1 22/5/1
f 24/1/1 22/1/1 23/1/1
f 25/3/1 23/3/1 19/3/1
f 25/3/1 24/3/1 23/3/1
f 26/3/1 24/3/1 25/3/1
f 27/3/1 25/3/1 19/3/1
f 27/1/1 26/1/1 25/1/1
f 28/3/1 24/3/1 26/3/1
f 28/1/1 26/1/1 27/1/1
f 29/3/1 28/3/1 27/3/1
f 29/3/1 24/3/1 28/3/1
f 30/3/1 24/3/1 29/3/1
f 31/3/1 29/3/1 27/3/1
f 31/1/1 30/1/1 29/1/1
f 32/3/1 24/3/1 30/3/1
f 32/1/1 30/1/1 31/1/1
f 33/5/1 10/5/1 9/5/1
f 33/5/1 9/5/1 8/5/1
f 34/3/1 32/3/1 31/3/1
f 34/5/1 10/5/1 33/5/1
f 34/3/1 19/3/1 10/3/1
f 34/3/1 31/3/1 27/3/1
f 34/3/1 27/3/1 19/3/1
f 35/3/1 24/3/1 32/3/1
f 35/3/1 32/3/1 34/3/1
f 35/5/1 12/5/1 24/5/1
f 36/5/1 12/5/1 35/5/1
f 37/4/1 34/4/1 33/4/1
f 38/3/1 35/3/1 34/3/1
f 38/4/1 34/4/1 37/4/1
f 39/3/1 35/3/1 38/3/1
f 40/3/1 35/3/1 39/3/1
f 41/4/1 36/4/1 35/4/1
f 41/3/1 35/3/1 40/3/1
f 42/4/1 36/4/1 41/4/1
f 43/1/1 40/1/1 39/1/1
f 43/3/1 39/3/1 38/3/1
f 44/3/1 41/3/1 40/3/1
f 44/1/1 40/1/1 43/1/1
f 45/3/1 44/3/1 43/3/1
f 45/3/1 41/3/1 44/3/1
f 46/5/1 42/5/1 41/5/1
f 46/3/1 41/3/1 45/3/1
f 47/3/1 45/3/1 43/3/1
f 48/3/1 45/3/1 47/3/1
f 49/5/1 38/5/1 37/5/1
f 50/3/1 43/3/1 38/3/1
f 50/5/1 38/5/1 49/5/1
f 50/3/1 47/3/1 43/3/1
f 51/3/1 45/3/1 48/3/1
f 51/1/1 46/1/1 45/1/1
f 52/5/1 42/5/1 46/5/1
f 52/1/1 46/1/1 51/1/1
f 53/5/1 42/5/1 52/5/1
f 54/4/1 50/4/1 49/4/1
f 55/3/1 47/3/1 50/3/1
f 55/4/1 50/4/1 54/4/1
f 56/3/1 52/3/1 51/3/1
f 56/4/1 53/4/1 52/4/1
f 57/4/1 53/4/1 56/4/1
f 58/5/1 55/5/1 54/5/1
f 59/3/1 47/3/1 55/3/1
f 59/5/1 55/5/1 58/5/1
f 60/1/1 48/1/1 47/1/1
f 60/3/1 47/3/1 59/3/1
f 61/3/1 51/3/1 48/3/1
f 61/1/1 48/1/1 60/1/1
f 61/3/1 56/3/1 51/3/1
f 62/5/1 57/5/1 56/5/1
f 62/3/1 56/3/1 61/3/1
f 63/5/1 57/5/1 62/5/1
f 64/4/1 59/4/1 58/4/1
f 65/3/1 60/3/1 59/3/1
f 65/4/1 59/4/1 64/4/1
f 65/3/1 61/3/1 60/3/1
f 65/3/1 62/3/1 61/3/1
f 66/4/1 63/4/1 62/4/1
f 66/3/1 62/3/1 65/3/1
f 67/4/1 63/4/1 66/4/1
f 68/3/1 66/3/1 65/3/1
f 69/3/1 66/3/1 68/3/1
f 70/5/1 65/5/1 64/5/1
f 71/3/1 68/3/1 65/3/1
f 71/5/1 65/5/1 70/5/1
f 72/1/1 69/1/1 68/1/1
f 72/3/1 68/3/1 71/3/1
f 73/3/1 66/3/1 69/3/1
f 73/1/1 69/1/1 72/1/1
f 74/5/1 67/5/1 66/5/1
f 74/3/1 66/3/1 73/3/1
f 75/5/1 67/5/1 74/5/1
f 76/6/2 77/6/2 78/6/2
f 78/6/2 77/6/2 79/6/2
f 79/6/2 77/6/2 80/6/2
f 79/4/2 80/4/2 81/4/2
f 81/4/2 80/4/2 82/4/2
f 78/3/2 79/3/2 83/3/2
f 79/4/2 81/4/2 84/4/2
f 83/3/2 79/3/2 84/3/2
f 81/3/2 82/3/2 85/3/2
f 84/4/2 81/4/2 85/4/2
f 82/4/2 80/4/2 86/4/2
f 85/3/2 82/3/2 86/3/2
f 86/4/2 80/4/2 87/4/2
f 85/3/2 86/3/2 88/3/2
f 88/3/2 86/3/2 89/3/2
f 85/3/2 88/3/2 90/3/2
f 90/3/2 88/3/2 91/3/2
f 88/1/2 89/1/2 92/1/2
f 91/3/2 88/3/2 92/3/2
f 89/3/2 86/3/2 93/3/2
f 92/1/2 89/1/2 93/1/2
f 90/1/2 91/1/2 94/1/2
f 85/3/2 90/3/2 94/3/2
f 91/3/2 92/3/2 95/3/2
f 94/1/2 91/1/2 95/1/2
f 92/3/2 93/3/2 95/3/2
f 84/5/2 85/5/2 96/5/2
f 83/5/2 84/5/2 96/5/2
f 94/3/2 95/3/2 97/3/2
f 96/5/2 85/5/2 97/5/2
f 85/3/2 94/3/2 97/3/2
f 95/3/2 93/3/2 98/3/2
f 97/3/2 95/3/2 98/3/2
f 86/5/2 87/5/2 98/5/2
f 93/3/2 86/3/2 98/3/2
f 98/5/2 87/5/2 99/5/2
f 97/3/2 98/3/2 100/3/2
f 98/4/2 99/4/2 101/4/2
f 100/3/2 98/3/2 101/3/2
f 96/4/2 97/4/2 102/4/2
f 97/3/2 100/3/2 103/3/2
f 102/4/2 97/4/2 103/4/2
f 100/1/2 101/1/2 104/1/2
f 103/3/2 100/3/2 104/3/2
f 101/4/2 99/4/2 105/4/2
f 104/1/2 101/1/2 105/1/2
f 105/4/2 99/4/2 106/4/2
f 103/3/2 104/3/2 107/3/2
f 104/3/2 105/3/2 107/3/2
f 107/3/2 105/3/2 108/3/2
f 103/3/2 107/3/2 109/3/2
f 107/1/2 108/1/2 109/1/2
f 108/3/2 105/3/2 110/3/2
f 109/1/2 108/1/2 110/1/2
f 109/3/2 110/3/2 111/3/2
f 110/3/2 105/3/2 111/3/2
f 111/3/2 105/3/2 112/3/2
f 109/3/2 111/3/2 113/3/2
f 111/1/2 112/1/2 113/1/2
f 112/3/2 105/3/2 114/3/2
f 113/1/2 112/1/2 114/1/2
f 103/3/2 109/3/2 115/3/2
f 109/3/2 113/3/2 115/3/2
f 113/3/2 114/3/2 115/3/2
f 115/3/2 114/3/2 116/3/2
f 103/3/2 115/3/2 117/3/2
f 115/1/2 116/1/2 117/1/2
f 116/3/2 114/3/2 118/3/2
f 117/1/2 116/1/2 118/1/2
f 114/3/2 105/3/2 119/3/2
f 118/3/2 114/3/2 119/3/2
f 117/3/2 118/3/2 119/3/2
f 105/5/2 106/5/2 120/5/2
f 119/3/2 105/3/2 120/3/2
f 117/3/2 119/3/2 121/3/2
f 121/3/2 119/3/2 122/3/2
f 96/4/2 102/4/2 123/4/2
f 102/5/2 103/5/2 123/5/2
f 103/3/2 117/3/2 124/3/2
f 123/5/2 103/5/2 124/5/2
f 117/3/2 121/3/2 124/3/2
f 122/3/2 119/3/2 125/3/2
f 119/1/2 120/1/2 125/1/2
f 120/5/2 106/5/2 126/5/2
f 125/1/2 120/1/2 126/1/2
f 106/4/2 99/4/2 127/4/2
f 126/5/2 106/5/2 127/5/2
f 96/4/2 123/4/2 128/4/2
f 123/4/2 124/4/2 128/4/2
f 124/3/2 121/3/2 129/3/2
f 128/4/2 124/4/2 129/4/2
f 125/3/2 126/3/2 130/3/2
f 126/4/2 127/4/2 130/4/2
f 127/4/2 99/4/2 131/4/2
f 130/4/2 127/4/2 131/4/2
f 128/5/2 129/5/2 132/5/2
f 129/3/2 121/3/2 133/3/2
f 132/5/2 129/5/2 133/5/2
f 121/1/2 122/1/2 134/1/2
f 133/3/2 121/3/2 134/3/2
f 122/3/2 125/3/2 135/3/2
f 134/1/2 122/1/2 135/1/2
f 125/3/2 130/3/2 135/3/2
f 130/5/2 131/5/2 136/5/2
f 135/3/2 130/3/2 136/3/2
f 136/5/2 131/5/2 137/5/2
f 132/4/2 133/4/2 138/4/2
f 133/3/2 134/3/2 139/3/2
f 138/4/2 133/4/2 139/4/2
f 134/3/2 135/3/2 139/3/2
f 135/3/2 136/3/2 139/3/2
f 136/4/2 137/4/2 140/4/2
f 139/3/2 136/3/2 140/3/2
f 140/4/2 137/4/2 141/4/2
f 139/3/2 140/3/2 142/3/2
f 142/3/2 140/3/2 143/3/2
f 138/5/2 139/5/2 144/5/2
f 139/3/2 142/3/2 145/3/2
f 144/5/2 139/5/2 145/5/2
f 142/1/2 143/1/2 146/1/2
f 145/3/2 142/3/2 146/3/2
f 143/3/2 140/3/2 147/3/2
f 146/1/2 143/1/2 147/1/2
f 140/5/2 141/5/2 148/5/2
f 147/3/2 140/3/2 148/3/2
f 148/5/2 141/5/2 149/5/2
f 160/3/3 152/3/3 151/3/3
f 160/5/3 153/5/3 152/5/3
f 161/4/3 154/4/3 153/4/3
f 161/5/3 153/5/3 160/5/3
f 162/5/3 155/5/3 154/5/3
f 162/4/3 154/4/3 161/4/3
f 163/4/3 156/4/3 155/4/3
f 163/5/3 155/5/3 162/5/3
f 164/5/3 157/5/3 156/5/3
f 164/4/3 156/4/3 163/4/3
f 165/4/3 158/4/3 157/4/3
f 165/5/3 157/5/3 164/5/3
f 166/5/3 159/5/3 158/5/3
f 166/4/3 158/4/3 165/4/3
f 167/5/3 159/5/3 166/5/3
f 168/3/3 165/3/3 164/3/3
f 168/3/3 164/3/3 163/3/3
f 168/3/3 167/3/3 166/3/3
f 168/3/3 166/3/3 165/3/3
f 168/3/3 163/3/3 162/3/3
f 168/3/3 162/3/3 161/3/3
f 168/3/3 161/3/3 160/3/3
f 168/3/3 160/3/3 151/3/3
f 169/3/3 167/3/3 168/3/3
f 170/3/3 167/3/3 169/3/3
f 171/3/3 167/3/3 170/3/3
f 172/3/3 167/3/3 171/3/3
f 173/3/3 167/3/3 172/3/3
f 174/3/3 167/3/3 173/3/3
f 175/3/3 167/3/3 174/3/3
f 176/3/3 167/3/3 175/3/3
f 177/3/3 167/3/3 176/3/3
f 178/4/3 170/4/3 169/4/3
f 178/5/3 171/5/3 170/5/3
f 179/4/3 172/4/3 171/4/3
f 179/5/3 171/5/3 178/5/3
f 180/5/3 173/5/3 172/5/3
f 180/4/3 172/4/3 179/4/3
f 181/4/3 174/4/3 173/4/3
f 181/5/3 173/5/3 180/5/3
f 182/6/3 151/6/3 150/6/3
f 183/3/3 168/3/3 151/3/3
f 183/6/3 151/6/3 182/6/3
f 184/5/3 169/5/3 168/5/3
f 184/3/3 168/3/3 183/3/3
f 185/4/3 178/4/3 169/4/3
f 185/5/3 169/5/3 184/5/3
f 185/4/3 179/4/3 178/4/3
f 185/4/3 181/4/3 180/4/3
f 185/4/3 180/4/3 179/4/3
f 186/4/3 174/4/3 181/4/3
f 186/4/3 181/4/3 185/4/3
f 186/5/3 175/5/3 174/5/3
f 187/4/3 176/4/3 175/4/3
f 187/5/3 175/5/3 186/5/3
f 188/5/3 177/5/3 176/5/3
f 188/4/3 176/4/3 187/4/3
f 189/5/3 177/5/3 188/5/3
f 190/6/4 191/6/4 200/6/4
f 191/4/4 192/4/4 200/4/4
f 192/5/4 193/5/4 201/5/4
f 200/4/4 192/4/4 201/4/4
f 193/4/4 194/4/4 202/4/4
f 201/5/4 193/5/4 202/5/4
f 194/5/4 195/5/4 203/5/4
f 202/4/4 194/4/4 203/4/4
f 195/4/4 196/4/4 204/4/4
f 203/5/4 195/5/4 204/5/4
f 196/5/4 197/5/4 205/5/4
f 204/4/4 196/4/4 205/4/4
f 197/4/4 198/4/4 206/4/4
f 205/5/4 197/5/4 206/5/4
f 198/5/4 199/5/4 207/5/4
f 206/4/4 198/4/4 207/4/4
f 207/5/4 199/5/4 208/5/4
f 190/6/4 200/6/4 209/6/4
f 205/3/4 206/3/4 210/3/4
f 209/6/4 200/6/4 210/6/4
f 204/3/4 205/3/4 210/3/4
f 207/3/4 208/3/4 210/3/4
f 206/3/4 207/3/4 210/3/4
f 203/3/4 204/3/4 210/3/4
f 202/3/4 203/3/4 210/3/4
f 201/3/4 202/3/4 210/3/4
f 200/3/4 201/3/4 210/3/4
f 190/6/4 209/6/4 211/6/4
f 209/3/4 210/3/4 211/3/4
f 210/3/4 208/3/4 212/3/4
f 211/3/4 210/3/4 212/3/4
f 212/3/4 208/3/4 213/3/4
f 213/3/4 208/3/4 214/3/4
f 214/3/4 208/3/4 215/3/4
f 215/3/4 208/3/4 216/3/4
f 216/3/4 208/3/4 217/3/4
f 217/3/4 208/3/4 218/3/4
f 218/3/4 208/3/4 219/3/4
f 219/3/4 208/3/4 220/3/4
f 220/3/4 208/3/4 221/3/4
f 221/3/4 208/3/4 222/3/4
f 214/4/4 215/4/4 223/4/4
f 215/5/4 216/5/4 223/5/4
f 216/4/4 217/4/4 224/4/4
f 223/5/4 216/5/4 224/5/4
f 217/5/4 218/5/4 225/5/4
f 224/4/4 217/4/4 225/4/4
f 218/4/4 219/4/4 226/4/4
f 225/5/4 218/5/4 226/5/4
f 190/6/4 211/6/4 227/6/4
f 211/6/4 212/6/4 227/6/4
f 212/4/4 213/4/4 228/4/4
f 227/6/4 212/6/4 228/6/4
f 213/5/4 214/5/4 229/5/4
f 228/4/4 213/4/4 229/4/4
f 225/4/4 226/4/4 230/4/4
f 229/5/4 214/5/4 230/5/4
f 214/4/4 223/4/4 230/4/4
f 223/4/4 224/4/4 230/4/4
f 224/4/4 225/4/4 230/4/4
f 226/4/4 219/4/4 231/4/4
f 230/4/4 226/4/4 231/4/4
f 219/5/4 220/5/4 231/5/4
f 220/4/4 221/4/4 232/4/4
f 231/5/4 220/5/4 232/5/4
f 221/5/4 222/5/4 233/5/4
f 232/4/4 221/4/4 233/4/4
f 233/5/4 222/5/4 234/5/4
f 237/6/5 236/6/5 235/6/5
f 238/6/5 236/6/5 237/6/5
f 240/3/6 241/3/6 243/3/6
f 243/3/6 241/3/6 244/3/6
f 239/5/6 240/5/6 245/5/6
f 240/3/6 243/3/6 246/3/6
f 245/5/6 240/5/6 246/5/6
f 244/3/6 241/3/6 247/3/6
f 241/5/6 242/5/6 247/5/6
f 247/5/6 242/5/6 248/5/6
f 245/3/6 246/3/6 249/3/6
f 249/3/6 246/3/6 250/3/6
f 246/3/6 243/3/6 251/3/6
f 250/3/6 246/3/6 251/3/6
f 243/1/6 244/1/6 251/1/6
f 244/3/6 247/3/6 252/3/6
f 251/1/6 244/1/6 252/1/6
f 247/3/6 248/3/6 252/3/6
f 252/3/6 248/3/6 253/3/6
f 253/3/6 248/3/6 254/3/6
f 249/1/6 250/1/6 255/1/6
f 250/3/6 251/3/6 256/3/6
f 255/1/6 250/1/6 256/1/6
f 251/3/6 252/3/6 256/3/6
f 252/3/6 253/3/6 256/3/6
f 253/1/6 254/1/6 257/1/6
f 256/3/6 253/3/6 257/3/6
f 257/1/6 254/1/6 258/1/6
f 255/3/6 256/3/6 259/3/6
f 256/3/6 257/3/6 259/3/6
f 257/3/6 258/3/6 259/3/6
f 259/3/6 258/3/6 260/3/6
f 260/3/6 258/3/6 261/3/6
f 261/3/6 258/3/6 262/3/6
f 260/3/6 261/3/6 263/3/6
f 261/1/6 262/1/6 263/1/6
f 262/3/6 258/3/6 264/3/6
f 263/1/6 262/1/6 264/1/6
f 255/3/6 259/3/6 265/3/6
f 259/1/6 260/1/6 265/1/6
f 263/3/6 264/3/6 266/3/6
f 265/1/6 260/1/6 266/1/6
f 260/3/6 263/3/6 266/3/6
f 255/3/6 265/3/6 267/3/6
f 265/3/6 266/3/6 267/3/6
f 267/3/6 266/3/6 268/3/6
f 266/3/6 264/3/6 269/3/6
f 268/3/6 266/3/6 269/3/6
f 264/3/6 258/3/6 270/3/6
f 269/3/6 264/3/6 270/3/6
f 267/1/6 268/1/6 271/1/6
f 255/3/6 267/3/6 271/3/6
f 268/3/6 269/3/6 272/3/6
f 271/1/6 268/1/6 272/1/6
f 271/3/6 272/3/6 273/3/6
f 272/3/6 269/3/6 273/3/6
f 273/3/6 269/3/6 274/3/6
f 269/1/6 270/1/6 275/1/6
f 274/3/6 269/3/6 275/3/6
f 270/3/6 258/3/6 276/3/6
f 275/1/6 270/1/6 276/1/6
f 273/1/6 274/1/6 277/1/6
f 271/3/6 273/3/6 277/3/6
f 274/3/6 275/3/6 278/3/6
f 277/1/6 274/1/6 278/1/6
f 275/3/6 276/3/6 278/3/6
f 271/3/6 277/3/6 279/3/6
f 277/3/6 278/3/6 279/3/6
f 279/3/6 278/3/6 280/3/6
f 278/3/6 276/3/6 281/3/6
f 280/3/6 278/3/6 281/3/6
f 276/3/6 258/3/6 281/3/6
f 281/3/6 258/3/6 282/3/6
f 280/3/6 281/3/6 283/3/6
f 283/3/6 281/3/6 284/3/6
f 281/1/6 282/1/6 285/1/6
f 284/3/6 281/3/6 285/3/6
f 282/3/6 258/3/6 286/3/6
f 285/1/6 282/1/6 286/1/6
f 279/1/6 280/1/6 287/1/6
f 271/3/6 279/3/6 287/3/6
f 280/3/6 283/3/6 288/3/6
f 287/1/6 280/1/6 288/1/6
f 255/3/6 271/3/6 289/3/6
f 271/3/6 287/3/6 289/3/6
f 287/3/6 288/3/6 289/3/6
f 289/3/6 288/3/6 290/3/6
f 285/3/6 286/3/6 291/3/6
f 284/3/6 285/3/6 291/3/6
f 286/3/6 258/3/6 292/3/6
f 291/3/6 286/3/6 292/3/6
f 288/3/6 283/3/6 293/3/6
f 290/3/6 288/3/6 293/3/6
f 283/1/6 284/1/6 293/1/6
f 284/3/6 291/3/6 294/3/6
f 293/1/6 284/1/6 294/1/6
f 289/5/6 290/5/6 295/5/6
f 290/3/6 293/3/6 296/3/6
f 295/5/6 290/5/6 296/5/6
f 293/3/6 294/3/6 296/3/6
f 291/5/6 292/5/6 297/5/6
f 296/3/6 294/3/6 297/3/6
f 294/3/6 291/3/6 297/3/6
f 297/5/6 292/5/6 298/5/6
