# MagicaVoxel @ Ephtracy

# group
o 

# material
mtllib terrainTreeDeco-1.mtl
usemtl palette

# normals
vn -1 0 0
vn 1 0 0
vn 0 0 1
vn 0 0 -1
vn 0 -1 0
vn 0 1 0

# texcoords
vt 0.224609 0.5
vt 0.318359 0.5
vt 0.947266 0.5
vt 0.955078 0.5

# verts
v -0.6 0 0.6
v -0.6 0 -0.5
v -0.6 0.1 0.6
v -0.6 0.1 0.5
v -0.6 0.1 0.3
v -0.6 0.1 0.2
v -0.6 0.1 0.1
v -0.6 0.1 -0.1
v -0.6 0.1 -0.2
v -0.6 0.1 -0.3
v -0.6 0.1 -0.4
v -0.6 0.1 -0.5
v -0.6 0.2 0.4
v -0.6 0.2 0.3
v -0.6 0.2 0.2
v -0.6 0.2 0.1
v -0.6 0.2 -0.1
v -0.6 0.2 -0.2
v -0.6 0.2 -0.3
v -0.6 0.2 -0.4
v -0.6 0.3 0.6
v -0.6 0.3 0.5
v -0.6 0.3 0.4
v -0.6 0.3 0.3
v -0.6 0.3 0.2
v -0.6 0.3 0.1
v -0.6 0.3 -0.1
v -0.6 0.3 -0.2
v -0.6 0.3 -0.3
v -0.6 0.3 -0.4
v -0.6 0.3 -0.5
v -0.6 0.4 0.6
v -0.6 0.4 0.5
v -0.6 0.4 0.3
v -0.6 0.4 0.2
v -0.6 0.4 0.1
v -0.6 0.4 -0.2
v -0.6 0.4 -0.4
v -0.6 0.5 -0.2
v -0.6 0.5 -0.4
v -0.6 1.1 0.6
v -0.6 1.1 -0.5
v 0.5 0 0.6
v 0.5 0 0.4
v 0.5 0 0.3
v 0.5 0 -0.5
v 0.5 0.1 0.6
v 0.5 0.1 0.5
v 0.5 0.1 0.4
v 0.5 0.1 0.3
v 0.5 0.1 0.1
v 0.5 0.1 0
v 0.5 0.1 -0.2
v 0.5 0.1 -0.3
v 0.5 0.1 -0.4
v 0.5 0.2 0.1
v 0.5 0.2 0
v 0.5 0.2 -0.1
v 0.5 0.2 -0.2
v 0.5 0.2 -0.3
v 0.5 0.2 -0.4
v 0.5 0.2 -0.5
v 0.5 0.3 0.6
v 0.5 0.3 0.5
v 0.5 0.3 0.4
v 0.5 0.3 0.3
v 0.5 0.3 0.2
v 0.5 0.3 0.1
v 0.5 0.3 0
v 0.5 0.3 -0.1
v 0.5 0.3 -0.3
v 0.5 0.3 -0.4
v 0.5 0.3 -0.5
v 0.5 0.4 0.4
v 0.5 0.4 0.3
v 0.5 0.4 0.2
v 0.5 0.4 0.1
v 0.5 0.4 -0.2
v 0.5 0.4 -0.3
v 0.5 0.4 -0.4
v 0.5 0.5 -0.2
v 0.5 0.5 -0.3
v 0.5 1.1 0.6
v 0.5 1.1 -0.5
v -0.6 0 0.6
v -0.6 0.1 0.6
v -0.6 0.3 0.6
v -0.6 0.4 0.6
v -0.6 1.1 0.6
v -0.5 0.1 0.6
v -0.5 0.2 0.6
v -0.5 0.3 0.6
v -0.5 0.4 0.6
v -0.4 0.1 0.6
v -0.4 0.2 0.6
v -0.4 0.3 0.6
v -0.4 0.4 0.6
v -0.4 0.5 0.6
v -0.3 0.2 0.6
v -0.3 0.3 0.6
v -0.3 0.4 0.6
v -0.3 0.5 0.6
v -0.1 0.3 0.6
v -0.1 0.4 0.6
v -0.1 0.5 0.6
v 0 0.1 0.6
v 0 0.2 0.6
v 0 0.3 0.6
v 0 0.4 0.6
v 0 0.5 0.6
v 0.1 0 0.6
v 0.1 0.1 0.6
v 0.1 0.2 0.6
v 0.1 0.3 0.6
v 0.1 0.4 0.6
v 0.2 0 0.6
v 0.2 0.1 0.6
v 0.2 0.2 0.6
v 0.2 0.3 0.6
v 0.2 0.4 0.6
v 0.3 0.1 0.6
v 0.3 0.2 0.6
v 0.5 0 0.6
v 0.5 0.1 0.6
v 0.5 0.3 0.6
v 0.5 1.1 0.6
v -0.6 0 -0.5
v -0.6 0.1 -0.5
v -0.6 0.3 -0.5
v -0.6 1.1 -0.5
v -0.5 0.1 -0.5
v -0.5 0.3 -0.5
v -0.5 0.4 -0.5
v -0.4 0.3 -0.5
v -0.4 0.4 -0.5
v -0.3 0.2 -0.5
v -0.3 0.3 -0.5
v -0.2 0.1 -0.5
v -0.2 0.2 -0.5
v -0.2 0.3 -0.5
v -0.1 0.1 -0.5
v -0.1 0.2 -0.5
v -0.1 0.3 -0.5
v -0.1 0.4 -0.5
v 0 0.3 -0.5
v 0 0.4 -0.5
v 0.1 0.1 -0.5
v 0.1 0.2 -0.5
v 0.1 0.3 -0.5
v 0.1 0.4 -0.5
v 0.2 0.1 -0.5
v 0.2 0.2 -0.5
v 0.2 0.3 -0.5
v 0.3 0.2 -0.5
v 0.3 0.3 -0.5
v 0.3 0.4 -0.5
v 0.4 0.2 -0.5
v 0.4 0.3 -0.5
v 0.4 0.4 -0.5
v 0.5 0 -0.5
v 0.5 0.2 -0.5
v 0.5 0.3 -0.5
v 0.5 1.1 -0.5
v -0.6 0 0.6
v 0.1 0 0.6
v 0.2 0 0.6
v 0.5 0 0.6
v 0.1 0 0.5
v 0.2 0 0.5
v 0.4 0 0.4
v 0.5 0 0.4
v 0.4 0 0.3
v 0.5 0 0.3
v -0.3 0 0.1
v -0.2 0 0.1
v -0.3 0 0
v -0.2 0 0
v -0.6 0 -0.5
v 0.5 0 -0.5
v -0.6 1.1 0.6
v 0.5 1.1 0.6
v -0.6 1.1 -0.5
v 0.5 1.1 -0.5

# faces
f 3/4/1 2/4/1 1/4/1
f 4/4/1 2/4/1 3/4/1
f 5/4/1 2/4/1 4/4/1
f 6/4/1 2/4/1 5/4/1
f 7/4/1 2/4/1 6/4/1
f 8/4/1 2/4/1 7/4/1
f 9/4/1 2/4/1 8/4/1
f 10/4/1 2/4/1 9/4/1
f 11/4/1 2/4/1 10/4/1
f 12/4/1 2/4/1 11/4/1
f 13/4/1 5/4/1 4/4/1
f 14/1/1 6/1/1 5/1/1
f 14/4/1 5/4/1 13/4/1
f 15/4/1 7/4/1 6/4/1
f 15/1/1 6/1/1 14/1/1
f 16/3/1 8/3/1 7/3/1
f 16/4/1 7/4/1 15/4/1
f 17/4/1 9/4/1 8/4/1
f 17/3/1 8/3/1 16/3/1
f 18/1/1 10/1/1 9/1/1
f 18/4/1 9/4/1 17/4/1
f 19/2/1 11/2/1 10/2/1
f 19/1/1 10/1/1 18/1/1
f 20/1/1 12/1/1 11/1/1
f 20/2/1 11/2/1 19/2/1
f 21/3/1 4/3/1 3/3/1
f 22/4/1 13/4/1 4/4/1
f 22/3/1 4/3/1 21/3/1
f 23/1/1 14/1/1 13/1/1
f 23/4/1 13/4/1 22/4/1
f 24/4/1 15/4/1 14/4/1
f 24/1/1 14/1/1 23/1/1
f 24/4/1 16/4/1 15/4/1
f 24/4/1 17/4/1 16/4/1
f 25/4/1 17/4/1 24/4/1
f 26/4/1 17/4/1 25/4/1
f 27/2/1 18/2/1 17/2/1
f 27/4/1 17/4/1 26/4/1
f 28/4/1 19/4/1 18/4/1
f 28/2/1 18/2/1 27/2/1
f 29/3/1 20/3/1 19/3/1
f 29/4/1 19/4/1 28/4/1
f 30/1/1 12/1/1 20/1/1
f 30/3/1 20/3/1 29/3/1
f 31/1/1 12/1/1 30/1/1
f 32/2/1 22/2/1 21/2/1
f 33/4/1 23/4/1 22/4/1
f 33/2/1 22/2/1 32/2/1
f 33/4/1 24/4/1 23/4/1
f 34/3/1 25/3/1 24/3/1
f 34/4/1 24/4/1 33/4/1
f 35/2/1 26/2/1 25/2/1
f 35/3/1 25/3/1 34/3/1
f 36/4/1 29/4/1 28/4/1
f 36/2/1 26/2/1 35/2/1
f 36/4/1 28/4/1 27/4/1
f 36/4/1 30/4/1 29/4/1
f 36/4/1 27/4/1 26/4/1
f 36/4/1 31/4/1 30/4/1
f 37/4/1 31/4/1 36/4/1
f 38/4/1 31/4/1 37/4/1
f 39/4/1 35/4/1 34/4/1
f 39/4/1 33/4/1 32/4/1
f 39/1/1 38/1/1 37/1/1
f 39/4/1 37/4/1 36/4/1
f 39/4/1 36/4/1 35/4/1
f 39/4/1 34/4/1 33/4/1
f 40/4/1 31/4/1 38/4/1
f 40/1/1 38/1/1 39/1/1
f 41/4/1 39/4/1 32/4/1
f 41/4/1 40/4/1 39/4/1
f 42/4/1 31/4/1 40/4/1
f 42/4/1 40/4/1 41/4/1
f 43/4/2 44/4/2 47/4/2
f 47/4/2 44/4/2 48/4/2
f 44/3/2 45/3/2 49/3/2
f 48/4/2 44/4/2 49/4/2
f 45/4/2 46/4/2 50/4/2
f 49/3/2 45/3/2 50/3/2
f 50/4/2 46/4/2 51/4/2
f 51/4/2 46/4/2 52/4/2
f 52/4/2 46/4/2 53/4/2
f 53/4/2 46/4/2 54/4/2
f 54/4/2 46/4/2 55/4/2
f 48/4/2 49/4/2 56/4/2
f 49/4/2 50/4/2 56/4/2
f 50/4/2 51/4/2 56/4/2
f 51/2/2 52/2/2 56/2/2
f 52/1/2 53/1/2 57/1/2
f 56/2/2 52/2/2 57/2/2
f 57/1/2 53/1/2 58/1/2
f 53/4/2 54/4/2 59/4/2
f 58/1/2 53/1/2 59/1/2
f 54/2/2 55/2/2 60/2/2
f 59/4/2 54/4/2 60/4/2
f 55/4/2 46/4/2 61/4/2
f 60/2/2 55/2/2 61/2/2
f 61/4/2 46/4/2 62/4/2
f 47/1/2 48/1/2 63/1/2
f 48/4/2 56/4/2 64/4/2
f 63/1/2 48/1/2 64/1/2
f 56/4/2 57/4/2 64/4/2
f 64/4/2 57/4/2 65/4/2
f 65/4/2 57/4/2 66/4/2
f 66/4/2 57/4/2 67/4/2
f 67/4/2 57/4/2 68/4/2
f 57/1/2 58/1/2 69/1/2
f 68/4/2 57/4/2 69/4/2
f 59/4/2 60/4/2 70/4/2
f 69/1/2 58/1/2 70/1/2
f 58/4/2 59/4/2 70/4/2
f 60/4/2 61/4/2 70/4/2
f 70/4/2 61/4/2 71/4/2
f 61/1/2 62/1/2 72/1/2
f 71/4/2 61/4/2 72/4/2
f 72/1/2 62/1/2 73/1/2
f 65/1/2 66/1/2 74/1/2
f 63/4/2 64/4/2 74/4/2
f 64/4/2 65/4/2 74/4/2
f 66/4/2 67/4/2 75/4/2
f 74/1/2 66/1/2 75/1/2
f 67/2/2 68/2/2 76/2/2
f 75/4/2 67/4/2 76/4/2
f 68/4/2 69/4/2 77/4/2
f 76/2/2 68/2/2 77/2/2
f 70/4/2 71/4/2 77/4/2
f 69/4/2 70/4/2 77/4/2
f 77/4/2 71/4/2 78/4/2
f 71/3/2 72/3/2 79/3/2
f 78/4/2 71/4/2 79/4/2
f 72/4/2 73/4/2 80/4/2
f 79/3/2 72/3/2 80/3/2
f 75/4/2 76/4/2 81/4/2
f 74/4/2 75/4/2 81/4/2
f 77/4/2 78/4/2 81/4/2
f 76/4/2 77/4/2 81/4/2
f 78/2/2 79/2/2 81/2/2
f 79/4/2 80/4/2 82/4/2
f 81/2/2 79/2/2 82/2/2
f 63/4/2 74/4/2 83/4/2
f 74/4/2 81/4/2 83/4/2
f 81/4/2 82/4/2 83/4/2
f 80/4/2 73/4/2 84/4/2
f 83/4/2 82/4/2 84/4/2
f 82/4/2 80/4/2 84/4/2
f 90/4/3 86/4/3 85/4/3
f 90/3/3 87/3/3 86/3/3
f 91/3/3 87/3/3 90/3/3
f 92/2/3 88/2/3 87/2/3
f 92/3/3 87/3/3 91/3/3
f 93/4/3 89/4/3 88/4/3
f 93/2/3 88/2/3 92/2/3
f 94/2/3 91/2/3 90/2/3
f 94/4/3 90/4/3 85/4/3
f 95/4/3 92/4/3 91/4/3
f 95/2/3 91/2/3 94/2/3
f 95/4/3 93/4/3 92/4/3
f 96/4/3 93/4/3 95/4/3
f 97/4/3 89/4/3 93/4/3
f 97/4/3 93/4/3 96/4/3
f 98/4/3 89/4/3 97/4/3
f 99/3/3 96/3/3 95/3/3
f 99/4/3 95/4/3 94/4/3
f 100/4/3 97/4/3 96/4/3
f 100/3/3 96/3/3 99/3/3
f 101/3/3 98/3/3 97/3/3
f 101/4/3 97/4/3 100/4/3
f 102/4/3 89/4/3 98/4/3
f 102/3/3 98/3/3 101/3/3
f 103/4/3 101/4/3 100/4/3
f 103/4/3 100/4/3 99/4/3
f 103/4/3 102/4/3 101/4/3
f 104/4/3 102/4/3 103/4/3
f 105/4/3 89/4/3 102/4/3
f 105/4/3 102/4/3 104/4/3
f 106/4/3 94/4/3 85/4/3
f 106/4/3 99/4/3 94/4/3
f 106/4/3 103/4/3 99/4/3
f 107/4/3 103/4/3 106/4/3
f 108/3/3 104/3/3 103/3/3
f 108/4/3 103/4/3 107/4/3
f 109/2/3 105/2/3 104/2/3
f 109/3/3 104/3/3 108/3/3
f 110/4/3 89/4/3 105/4/3
f 110/2/3 105/2/3 109/2/3
f 111/4/3 106/4/3 85/4/3
f 112/3/3 107/3/3 106/3/3
f 112/4/3 106/4/3 111/4/3
f 113/4/3 109/4/3 108/4/3
f 113/3/3 107/3/3 112/3/3
f 113/4/3 108/4/3 107/4/3
f 113/4/3 110/4/3 109/4/3
f 114/4/3 110/4/3 113/4/3
f 115/4/3 110/4/3 114/4/3
f 116/2/3 112/2/3 111/2/3
f 117/1/3 113/1/3 112/1/3
f 117/2/3 112/2/3 116/2/3
f 118/4/3 114/4/3 113/4/3
f 118/1/3 113/1/3 117/1/3
f 119/3/3 115/3/3 114/3/3
f 119/4/3 114/4/3 118/4/3
f 120/4/3 110/4/3 115/4/3
f 120/3/3 115/3/3 119/3/3
f 121/4/3 117/4/3 116/4/3
f 121/4/3 118/4/3 117/4/3
f 122/1/3 119/1/3 118/1/3
f 122/4/3 118/4/3 121/4/3
f 123/4/3 121/4/3 116/4/3
f 124/1/3 122/1/3 121/1/3
f 124/4/3 121/4/3 123/4/3
f 125/1/3 119/1/3 122/1/3
f 125/1/3 122/1/3 124/1/3
f 125/4/3 120/4/3 119/4/3
f 126/4/3 89/4/3 110/4/3
f 126/4/3 120/4/3 125/4/3
f 126/4/3 110/4/3 120/4/3
f 127/4/4 128/4/4 131/4/4
f 128/1/4 129/1/4 131/1/4
f 129/4/4 130/4/4 132/4/4
f 131/1/4 129/1/4 132/1/4
f 132/4/4 130/4/4 133/4/4
f 131/4/4 132/4/4 134/4/4
f 132/2/4 133/2/4 134/2/4
f 133/4/4 130/4/4 135/4/4
f 134/2/4 133/2/4 135/2/4
f 131/4/4 134/4/4 136/4/4
f 134/4/4 135/4/4 136/4/4
f 136/4/4 135/4/4 137/4/4
f 127/4/4 131/4/4 138/4/4
f 131/4/4 136/4/4 138/4/4
f 136/2/4 137/2/4 139/2/4
f 138/4/4 136/4/4 139/4/4
f 137/4/4 135/4/4 140/4/4
f 139/2/4 137/2/4 140/2/4
f 138/1/4 139/1/4 141/1/4
f 127/4/4 138/4/4 141/4/4
f 139/4/4 140/4/4 142/4/4
f 141/1/4 139/1/4 142/1/4
f 140/4/4 135/4/4 143/4/4
f 142/4/4 140/4/4 143/4/4
f 135/4/4 130/4/4 144/4/4
f 143/4/4 135/4/4 144/4/4
f 141/4/4 142/4/4 145/4/4
f 142/4/4 143/4/4 145/4/4
f 143/1/4 144/1/4 145/1/4
f 144/4/4 130/4/4 146/4/4
f 145/1/4 144/1/4 146/1/4
f 141/4/4 145/4/4 147/4/4
f 127/4/4 141/4/4 147/4/4
f 147/4/4 145/4/4 148/4/4
f 145/2/4 146/2/4 149/2/4
f 148/4/4 145/4/4 149/4/4
f 146/4/4 130/4/4 150/4/4
f 149/2/4 146/2/4 150/2/4
f 147/1/4 148/1/4 151/1/4
f 127/4/4 147/4/4 151/4/4
f 148/3/4 149/3/4 152/3/4
f 151/1/4 148/1/4 152/1/4
f 149/4/4 150/4/4 153/4/4
f 152/3/4 149/3/4 153/3/4
f 151/4/4 152/4/4 154/4/4
f 152/1/4 153/1/4 154/1/4
f 153/4/4 150/4/4 155/4/4
f 154/1/4 153/1/4 155/1/4
f 150/4/4 130/4/4 156/4/4
f 155/4/4 150/4/4 156/4/4
f 154/4/4 155/4/4 157/4/4
f 151/4/4 154/4/4 157/4/4
f 155/3/4 156/3/4 158/3/4
f 157/4/4 155/4/4 158/4/4
f 156/4/4 130/4/4 159/4/4
f 158/3/4 156/3/4 159/3/4
f 127/4/4 151/4/4 160/4/4
f 151/4/4 157/4/4 160/4/4
f 157/1/4 158/1/4 161/1/4
f 160/4/4 157/4/4 161/4/4
f 158/4/4 159/4/4 162/4/4
f 161/1/4 158/1/4 162/1/4
f 159/4/4 130/4/4 163/4/4
f 162/4/4 159/4/4 163/4/4
f 168/4/5 165/4/5 164/4/5
f 168/2/5 166/2/5 165/2/5
f 169/4/5 167/4/5 166/4/5
f 169/2/5 166/2/5 168/2/5
f 170/4/5 169/4/5 168/4/5
f 170/4/5 167/4/5 169/4/5
f 171/4/5 167/4/5 170/4/5
f 172/4/5 170/4/5 168/4/5
f 172/3/5 171/3/5 170/3/5
f 173/3/5 171/3/5 172/3/5
f 174/4/5 168/4/5 164/4/5
f 174/4/5 172/4/5 168/4/5
f 174/4/5 173/4/5 172/4/5
f 175/4/5 173/4/5 174/4/5
f 176/4/5 174/4/5 164/4/5
f 176/1/5 175/1/5 174/1/5
f 177/4/5 173/4/5 175/4/5
f 177/1/5 175/1/5 176/1/5
f 178/4/5 176/4/5 164/4/5
f 178/4/5 177/4/5 176/4/5
f 179/4/5 173/4/5 177/4/5
f 179/4/5 177/4/5 178/4/5
f 180/4/6 181/4/6 182/4/6
f 182/4/6 181/4/6 183/4/6
