# MagicaVoxel @ Ephtracy

# group
o hat1

# material
mtllib snowman-3-hat1.mtl
usemtl palette

# normals
vn -1 0 0
vn 1 0 0
vn 0 0 1
vn 0 0 -1
vn 0 -1 0
vn 0 1 0

# texcoords
vt 0.845703 0.5
vt 0.994141 0.5

# verts
v -1 6.1 0.4
v -1 6.1 -0.2
v -1 6.6 0.4
v -1 6.6 -0.2
v -1 7.7 0.4
v -1 7.7 -0.2
v -0.9 6.1 0.6
v -0.9 6.1 0.4
v -0.9 6.1 -0.2
v -0.9 6.1 -0.4
v -0.9 6.6 0.6
v -0.9 6.6 0.4
v -0.9 6.6 -0.2
v -0.9 6.6 -0.4
v -0.9 7.7 0.6
v -0.9 7.7 0.4
v -0.9 7.7 -0.2
v -0.9 7.7 -0.4
v -0.8 6.1 0.8
v -0.8 6.1 0.6
v -0.8 6.1 -0.4
v -0.8 6.1 -0.6
v -0.8 6.6 0.8
v -0.8 6.6 0.6
v -0.8 6.6 -0.4
v -0.8 6.6 -0.6
v -0.8 7.7 0.8
v -0.8 7.7 0.6
v -0.8 7.7 -0.4
v -0.8 7.7 -0.6
v -0.7 6.1 0.9
v -0.7 6.1 0.8
v -0.7 6.1 -0.6
v -0.7 6.1 -0.7
v -0.7 6.6 0.9
v -0.7 6.6 0.8
v -0.7 6.6 -0.6
v -0.7 6.6 -0.7
v -0.7 7.7 0.9
v -0.7 7.7 0.8
v -0.7 7.7 -0.6
v -0.7 7.7 -0.7
v -0.5 6.1 1
v -0.5 6.1 0.9
v -0.5 6.1 -0.7
v -0.5 6.1 -0.8
v -0.5 6.6 1
v -0.5 6.6 0.9
v -0.5 6.6 -0.7
v -0.5 6.6 -0.8
v -0.5 7.7 1
v -0.5 7.7 0.9
v -0.5 7.7 -0.7
v -0.5 7.7 -0.8
v -0.3 6.1 1.1
v -0.3 6.1 1
v -0.3 6.1 -0.8
v -0.3 6.1 -0.9
v -0.3 6.6 1.1
v -0.3 6.6 1
v -0.3 6.6 -0.8
v -0.3 6.6 -0.9
v -0.3 7.7 1.1
v -0.3 7.7 1
v -0.3 7.7 -0.8
v -0.3 7.7 -0.9
v 0.3 6.1 1.1
v 0.3 6.1 1
v 0.3 6.1 -0.8
v 0.3 6.1 -0.9
v 0.3 6.6 1.1
v 0.3 6.6 1
v 0.3 6.6 -0.8
v 0.3 6.6 -0.9
v 0.3 7.7 1.1
v 0.3 7.7 1
v 0.3 7.7 -0.8
v 0.3 7.7 -0.9
v 0.5 6.1 1
v 0.5 6.1 0.9
v 0.5 6.1 -0.7
v 0.5 6.1 -0.8
v 0.5 6.6 1
v 0.5 6.6 0.9
v 0.5 6.6 -0.7
v 0.5 6.6 -0.8
v 0.5 7.7 1
v 0.5 7.7 0.9
v 0.5 7.7 -0.7
v 0.5 7.7 -0.8
v 0.7 6.1 0.9
v 0.7 6.1 0.8
v 0.7 6.1 -0.6
v 0.7 6.1 -0.7
v 0.7 6.6 0.9
v 0.7 6.6 0.8
v 0.7 6.6 -0.6
v 0.7 6.6 -0.7
v 0.7 7.7 0.9
v 0.7 7.7 0.8
v 0.7 7.7 -0.6
v 0.7 7.7 -0.7
v 0.8 6.1 0.8
v 0.8 6.1 0.6
v 0.8 6.1 -0.4
v 0.8 6.1 -0.6
v 0.8 6.6 0.8
v 0.8 6.6 0.6
v 0.8 6.6 -0.4
v 0.8 6.6 -0.6
v 0.8 7.7 0.8
v 0.8 7.7 0.6
v 0.8 7.7 -0.4
v 0.8 7.7 -0.6
v 0.9 6.1 0.6
v 0.9 6.1 0.4
v 0.9 6.1 -0.2
v 0.9 6.1 -0.4
v 0.9 6.6 0.6
v 0.9 6.6 0.4
v 0.9 6.6 -0.2
v 0.9 6.6 -0.4
v 0.9 7.7 0.6
v 0.9 7.7 0.4
v 0.9 7.7 -0.2
v 0.9 7.7 -0.4
v 1 6.1 0.4
v 1 6.1 -0.2
v 1 6.6 0.4
v 1 6.6 -0.2
v 1 7.7 0.4
v 1 7.7 -0.2
v -0.3 6.1 1.1
v -0.3 6.6 1.1
v -0.3 7.7 1.1
v 0.3 6.1 1.1
v 0.3 6.6 1.1
v 0.3 7.7 1.1
v -0.5 6.1 1
v -0.5 6.6 1
v -0.5 7.7 1
v -0.3 6.1 1
v -0.3 6.6 1
v -0.3 7.7 1
v 0.3 6.1 1
v 0.3 6.6 1
v 0.3 7.7 1
v 0.5 6.1 1
v 0.5 6.6 1
v 0.5 7.7 1
v -0.7 6.1 0.9
v -0.7 6.6 0.9
v -0.7 7.7 0.9
v -0.5 6.1 0.9
v -0.5 6.6 0.9
v -0.5 7.7 0.9
v 0.5 6.1 0.9
v 0.5 6.6 0.9
v 0.5 7.7 0.9
v 0.7 6.1 0.9
v 0.7 6.6 0.9
v 0.7 7.7 0.9
v -0.8 6.1 0.8
v -0.8 6.6 0.8
v -0.8 7.7 0.8
v -0.7 6.1 0.8
v -0.7 6.6 0.8
v -0.7 7.7 0.8
v 0.7 6.1 0.8
v 0.7 6.6 0.8
v 0.7 7.7 0.8
v 0.8 6.1 0.8
v 0.8 6.6 0.8
v 0.8 7.7 0.8
v -0.9 6.1 0.6
v -0.9 6.6 0.6
v -0.9 7.7 0.6
v -0.8 6.1 0.6
v -0.8 6.6 0.6
v -0.8 7.7 0.6
v 0.8 6.1 0.6
v 0.8 6.6 0.6
v 0.8 7.7 0.6
v 0.9 6.1 0.6
v 0.9 6.6 0.6
v 0.9 7.7 0.6
v -1 6.1 0.4
v -1 6.6 0.4
v -1 7.7 0.4
v -0.9 6.1 0.4
v -0.9 6.6 0.4
v -0.9 7.7 0.4
v 0.9 6.1 0.4
v 0.9 6.6 0.4
v 0.9 7.7 0.4
v 1 6.1 0.4
v 1 6.6 0.4
v 1 7.7 0.4
v -1 6.1 -0.2
v -1 6.6 -0.2
v -1 7.7 -0.2
v -0.9 6.1 -0.2
v -0.9 6.6 -0.2
v -0.9 7.7 -0.2
v 0.9 6.1 -0.2
v 0.9 6.6 -0.2
v 0.9 7.7 -0.2
v 1 6.1 -0.2
v 1 6.6 -0.2
v 1 7.7 -0.2
v -0.9 6.1 -0.4
v -0.9 6.6 -0.4
v -0.9 7.7 -0.4
v -0.8 6.1 -0.4
v -0.8 6.6 -0.4
v -0.8 7.7 -0.4
v 0.8 6.1 -0.4
v 0.8 6.6 -0.4
v 0.8 7.7 -0.4
v 0.9 6.1 -0.4
v 0.9 6.6 -0.4
v 0.9 7.7 -0.4
v -0.8 6.1 -0.6
v -0.8 6.6 -0.6
v -0.8 7.7 -0.6
v -0.7 6.1 -0.6
v -0.7 6.6 -0.6
v -0.7 7.7 -0.6
v 0.7 6.1 -0.6
v 0.7 6.6 -0.6
v 0.7 7.7 -0.6
v 0.8 6.1 -0.6
v 0.8 6.6 -0.6
v 0.8 7.7 -0.6
v -0.7 6.1 -0.7
v -0.7 6.6 -0.7
v -0.7 7.7 -0.7
v -0.5 6.1 -0.7
v -0.5 6.6 -0.7
v -0.5 7.7 -0.7
v 0.5 6.1 -0.7
v 0.5 6.6 -0.7
v 0.5 7.7 -0.7
v 0.7 6.1 -0.7
v 0.7 6.6 -0.7
v 0.7 7.7 -0.7
v -0.5 6.1 -0.8
v -0.5 6.6 -0.8
v -0.5 7.7 -0.8
v -0.3 6.1 -0.8
v -0.3 6.6 -0.8
v -0.3 7.7 -0.8
v 0.3 6.1 -0.8
v 0.3 6.6 -0.8
v 0.3 7.7 -0.8
v 0.5 6.1 -0.8
v 0.5 6.6 -0.8
v 0.5 7.7 -0.8
v -0.3 6.1 -0.9
v -0.3 6.6 -0.9
v -0.3 7.7 -0.9
v 0.3 6.1 -0.9
v 0.3 6.6 -0.9
v 0.3 7.7 -0.9
v -0.3 6.1 1.1
v 0.3 6.1 1.1
v -0.5 6.1 1
v -0.3 6.1 1
v 0.3 6.1 1
v 0.5 6.1 1
v -0.7 6.1 0.9
v -0.5 6.1 0.9
v 0.5 6.1 0.9
v 0.7 6.1 0.9
v -0.8 6.1 0.8
v -0.7 6.1 0.8
v 0.7 6.1 0.8
v 0.8 6.1 0.8
v -0.9 6.1 0.6
v -0.8 6.1 0.6
v 0.8 6.1 0.6
v 0.9 6.1 0.6
v -1 6.1 0.4
v -0.9 6.1 0.4
v 0.9 6.1 0.4
v 1 6.1 0.4
v -1 6.1 -0.2
v -0.9 6.1 -0.2
v 0.9 6.1 -0.2
v 1 6.1 -0.2
v -0.9 6.1 -0.4
v -0.8 6.1 -0.4
v 0.8 6.1 -0.4
v 0.9 6.1 -0.4
v -0.8 6.1 -0.6
v -0.7 6.1 -0.6
v 0.7 6.1 -0.6
v 0.8 6.1 -0.6
v -0.7 6.1 -0.7
v -0.5 6.1 -0.7
v 0.5 6.1 -0.7
v 0.7 6.1 -0.7
v -0.5 6.1 -0.8
v -0.3 6.1 -0.8
v 0.3 6.1 -0.8
v 0.5 6.1 -0.8
v -0.3 6.1 -0.9
v 0.3 6.1 -0.9
v -0.3 7.7 1.1
v 0.3 7.7 1.1
v -0.5 7.7 1
v -0.3 7.7 1
v 0.3 7.7 1
v 0.5 7.7 1
v -0.7 7.7 0.9
v -0.5 7.7 0.9
v 0.5 7.7 0.9
v 0.7 7.7 0.9
v -0.8 7.7 0.8
v -0.7 7.7 0.8
v 0.7 7.7 0.8
v 0.8 7.7 0.8
v -0.9 7.7 0.6
v -0.8 7.7 0.6
v 0.8 7.7 0.6
v 0.9 7.7 0.6
v -1 7.7 0.4
v -0.9 7.7 0.4
v 0.9 7.7 0.4
v 1 7.7 0.4
v -1 7.7 -0.2
v -0.9 7.7 -0.2
v 0.9 7.7 -0.2
v 1 7.7 -0.2
v -0.9 7.7 -0.4
v -0.8 7.7 -0.4
v 0.8 7.7 -0.4
v 0.9 7.7 -0.4
v -0.8 7.7 -0.6
v -0.7 7.7 -0.6
v 0.7 7.7 -0.6
v 0.8 7.7 -0.6
v -0.7 7.7 -0.7
v -0.5 7.7 -0.7
v 0.5 7.7 -0.7
v 0.7 7.7 -0.7
v -0.5 7.7 -0.8
v -0.3 7.7 -0.8
v 0.3 7.7 -0.8
v 0.5 7.7 -0.8
v -0.3 7.7 -0.9
v 0.3 7.7 -0.9

# faces
f 3/1/1 2/1/1 1/1/1
f 4/1/1 2/1/1 3/1/1
f 5/2/1 4/2/1 3/2/1
f 6/2/1 4/2/1 5/2/1
f 11/1/1 8/1/1 7/1/1
f 12/1/1 8/1/1 11/1/1
f 13/1/1 10/1/1 9/1/1
f 14/1/1 10/1/1 13/1/1
f 15/2/1 12/2/1 11/2/1
f 16/2/1 12/2/1 15/2/1
f 17/2/1 14/2/1 13/2/1
f 18/2/1 14/2/1 17/2/1
f 23/1/1 20/1/1 19/1/1
f 24/1/1 20/1/1 23/1/1
f 25/1/1 22/1/1 21/1/1
f 26/1/1 22/1/1 25/1/1
f 27/2/1 24/2/1 23/2/1
f 28/2/1 24/2/1 27/2/1
f 29/2/1 26/2/1 25/2/1
f 30/2/1 26/2/1 29/2/1
f 35/1/1 32/1/1 31/1/1
f 36/1/1 32/1/1 35/1/1
f 37/1/1 34/1/1 33/1/1
f 38/1/1 34/1/1 37/1/1
f 39/2/1 36/2/1 35/2/1
f 40/2/1 36/2/1 39/2/1
f 41/2/1 38/2/1 37/2/1
f 42/2/1 38/2/1 41/2/1
f 47/1/1 44/1/1 43/1/1
f 48/1/1 44/1/1 47/1/1
f 49/1/1 46/1/1 45/1/1
f 50/1/1 46/1/1 49/1/1
f 51/2/1 48/2/1 47/2/1
f 52/2/1 48/2/1 51/2/1
f 53/2/1 50/2/1 49/2/1
f 54/2/1 50/2/1 53/2/1
f 59/1/1 56/1/1 55/1/1
f 60/1/1 56/1/1 59/1/1
f 61/1/1 58/1/1 57/1/1
f 62/1/1 58/1/1 61/1/1
f 63/2/1 60/2/1 59/2/1
f 64/2/1 60/2/1 63/2/1
f 65/2/1 62/2/1 61/2/1
f 66/2/1 62/2/1 65/2/1
f 67/1/2 68/1/2 71/1/2
f 71/1/2 68/1/2 72/1/2
f 69/1/2 70/1/2 73/1/2
f 73/1/2 70/1/2 74/1/2
f 71/2/2 72/2/2 75/2/2
f 75/2/2 72/2/2 76/2/2
f 73/2/2 74/2/2 77/2/2
f 77/2/2 74/2/2 78/2/2
f 79/1/2 80/1/2 83/1/2
f 83/1/2 80/1/2 84/1/2
f 81/1/2 82/1/2 85/1/2
f 85/1/2 82/1/2 86/1/2
f 83/2/2 84/2/2 87/2/2
f 87/2/2 84/2/2 88/2/2
f 85/2/2 86/2/2 89/2/2
f 89/2/2 86/2/2 90/2/2
f 91/1/2 92/1/2 95/1/2
f 95/1/2 92/1/2 96/1/2
f 93/1/2 94/1/2 97/1/2
f 97/1/2 94/1/2 98/1/2
f 95/2/2 96/2/2 99/2/2
f 99/2/2 96/2/2 100/2/2
f 97/2/2 98/2/2 101/2/2
f 101/2/2 98/2/2 102/2/2
f 103/1/2 104/1/2 107/1/2
f 107/1/2 104/1/2 108/1/2
f 105/1/2 106/1/2 109/1/2
f 109/1/2 106/1/2 110/1/2
f 107/2/2 108/2/2 111/2/2
f 111/2/2 108/2/2 112/2/2
f 109/2/2 110/2/2 113/2/2
f 113/2/2 110/2/2 114/2/2
f 115/1/2 116/1/2 119/1/2
f 119/1/2 116/1/2 120/1/2
f 117/1/2 118/1/2 121/1/2
f 121/1/2 118/1/2 122/1/2
f 119/2/2 120/2/2 123/2/2
f 123/2/2 120/2/2 124/2/2
f 121/2/2 122/2/2 125/2/2
f 125/2/2 122/2/2 126/2/2
f 127/1/2 128/1/2 129/1/2
f 129/1/2 128/1/2 130/1/2
f 129/2/2 130/2/2 131/2/2
f 131/2/2 130/2/2 132/2/2
f 136/1/3 134/1/3 133/1/3
f 137/2/3 135/2/3 134/2/3
f 137/1/3 134/1/3 136/1/3
f 138/2/3 135/2/3 137/2/3
f 142/1/3 140/1/3 139/1/3
f 143/2/3 141/2/3 140/2/3
f 143/1/3 140/1/3 142/1/3
f 144/2/3 141/2/3 143/2/3
f 148/1/3 146/1/3 145/1/3
f 149/2/3 147/2/3 146/2/3
f 149/1/3 146/1/3 148/1/3
f 150/2/3 147/2/3 149/2/3
f 154/1/3 152/1/3 151/1/3
f 155/2/3 153/2/3 152/2/3
f 155/1/3 152/1/3 154/1/3
f 156/2/3 153/2/3 155/2/3
f 160/1/3 158/1/3 157/1/3
f 161/2/3 159/2/3 158/2/3
f 161/1/3 158/1/3 160/1/3
f 162/2/3 159/2/3 161/2/3
f 166/1/3 164/1/3 163/1/3
f 167/2/3 165/2/3 164/2/3
f 167/1/3 164/1/3 166/1/3
f 168/2/3 165/2/3 167/2/3
f 172/1/3 170/1/3 169/1/3
f 173/2/3 171/2/3 170/2/3
f 173/1/3 170/1/3 172/1/3
f 174/2/3 171/2/3 173/2/3
f 178/1/3 176/1/3 175/1/3
f 179/2/3 177/2/3 176/2/3
f 179/1/3 176/1/3 178/1/3
f 180/2/3 177/2/3 179/2/3
f 184/1/3 182/1/3 181/1/3
f 185/2/3 183/2/3 182/2/3
f 185/1/3 182/1/3 184/1/3
f 186/2/3 183/2/3 185/2/3
f 190/1/3 188/1/3 187/1/3
f 191/2/3 189/2/3 188/2/3
f 191/1/3 188/1/3 190/1/3
f 192/2/3 189/2/3 191/2/3
f 196/1/3 194/1/3 193/1/3
f 197/2/3 195/2/3 194/2/3
f 197/1/3 194/1/3 196/1/3
f 198/2/3 195/2/3 197/2/3
f 199/1/4 200/1/4 202/1/4
f 200/2/4 201/2/4 203/2/4
f 202/1/4 200/1/4 203/1/4
f 203/2/4 201/2/4 204/2/4
f 205/1/4 206/1/4 208/1/4
f 206/2/4 207/2/4 209/2/4
f 208/1/4 206/1/4 209/1/4
f 209/2/4 207/2/4 210/2/4
f 211/1/4 212/1/4 214/1/4
f 212/2/4 213/2/4 215/2/4
f 214/1/4 212/1/4 215/1/4
f 215/2/4 213/2/4 216/2/4
f 217/1/4 218/1/4 220/1/4
f 218/2/4 219/2/4 221/2/4
f 220/1/4 218/1/4 221/1/4
f 221/2/4 219/2/4 222/2/4
f 223/1/4 224/1/4 226/1/4
f 224/2/4 225/2/4 227/2/4
f 226/1/4 224/1/4 227/1/4
f 227/2/4 225/2/4 228/2/4
f 229/1/4 230/1/4 232/1/4
f 230/2/4 231/2/4 233/2/4
f 232/1/4 230/1/4 233/1/4
f 233/2/4 231/2/4 234/2/4
f 235/1/4 236/1/4 238/1/4
f 236/2/4 237/2/4 239/2/4
f 238/1/4 236/1/4 239/1/4
f 239/2/4 237/2/4 240/2/4
f 241/1/4 242/1/4 244/1/4
f 242/2/4 243/2/4 245/2/4
f 244/1/4 242/1/4 245/1/4
f 245/2/4 243/2/4 246/2/4
f 247/1/4 248/1/4 250/1/4
f 248/2/4 249/2/4 251/2/4
f 250/1/4 248/1/4 251/1/4
f 251/2/4 249/2/4 252/2/4
f 253/1/4 254/1/4 256/1/4
f 254/2/4 255/2/4 257/2/4
f 256/1/4 254/1/4 257/1/4
f 257/2/4 255/2/4 258/2/4
f 259/1/4 260/1/4 262/1/4
f 260/2/4 261/2/4 263/2/4
f 262/1/4 260/1/4 263/1/4
f 263/2/4 261/2/4 264/2/4
f 268/1/5 266/1/5 265/1/5
f 269/1/5 266/1/5 268/1/5
f 272/1/5 268/1/5 267/1/5
f 272/1/5 270/1/5 269/1/5
f 272/1/5 269/1/5 268/1/5
f 273/1/5 270/1/5 272/1/5
f 276/1/5 272/1/5 271/1/5
f 276/1/5 274/1/5 273/1/5
f 276/1/5 273/1/5 272/1/5
f 277/1/5 274/1/5 276/1/5
f 280/1/5 276/1/5 275/1/5
f 280/1/5 278/1/5 277/1/5
f 280/1/5 277/1/5 276/1/5
f 281/1/5 278/1/5 280/1/5
f 284/1/5 280/1/5 279/1/5
f 284/1/5 282/1/5 281/1/5
f 284/1/5 281/1/5 280/1/5
f 285/1/5 282/1/5 284/1/5
f 287/1/5 284/1/5 283/1/5
f 287/1/5 286/1/5 285/1/5
f 287/1/5 285/1/5 284/1/5
f 288/1/5 286/1/5 287/1/5
f 289/1/5 286/1/5 288/1/5
f 290/1/5 286/1/5 289/1/5
f 291/1/5 289/1/5 288/1/5
f 292/1/5 289/1/5 291/1/5
f 293/1/5 289/1/5 292/1/5
f 294/1/5 289/1/5 293/1/5
f 295/1/5 293/1/5 292/1/5
f 296/1/5 293/1/5 295/1/5
f 297/1/5 293/1/5 296/1/5
f 298/1/5 293/1/5 297/1/5
f 299/1/5 297/1/5 296/1/5
f 300/1/5 297/1/5 299/1/5
f 301/1/5 297/1/5 300/1/5
f 302/1/5 297/1/5 301/1/5
f 303/1/5 301/1/5 300/1/5
f 304/1/5 301/1/5 303/1/5
f 305/1/5 301/1/5 304/1/5
f 306/1/5 301/1/5 305/1/5
f 307/1/5 305/1/5 304/1/5
f 308/1/5 305/1/5 307/1/5
f 309/2/6 310/2/6 312/2/6
f 312/2/6 310/2/6 313/2/6
f 311/2/6 312/2/6 316/2/6
f 313/2/6 314/2/6 316/2/6
f 312/2/6 313/2/6 316/2/6
f 316/2/6 314/2/6 317/2/6
f 315/2/6 316/2/6 320/2/6
f 317/2/6 318/2/6 320/2/6
f 316/2/6 317/2/6 320/2/6
f 320/2/6 318/2/6 321/2/6
f 319/2/6 320/2/6 324/2/6
f 321/2/6 322/2/6 324/2/6
f 320/2/6 321/2/6 324/2/6
f 324/2/6 322/2/6 325/2/6
f 323/2/6 324/2/6 328/2/6
f 325/2/6 326/2/6 328/2/6
f 324/2/6 325/2/6 328/2/6
f 328/2/6 326/2/6 329/2/6
f 327/2/6 328/2/6 331/2/6
f 329/2/6 330/2/6 331/2/6
f 328/2/6 329/2/6 331/2/6
f 331/2/6 330/2/6 332/2/6
f 332/2/6 330/2/6 333/2/6
f 333/2/6 330/2/6 334/2/6
f 332/2/6 333/2/6 335/2/6
f 335/2/6 333/2/6 336/2/6
f 336/2/6 333/2/6 337/2/6
f 337/2/6 333/2/6 338/2/6
f 336/2/6 337/2/6 339/2/6
f 339/2/6 337/2/6 340/2/6
f 340/2/6 337/2/6 341/2/6
f 341/2/6 337/2/6 342/2/6
f 340/2/6 341/2/6 343/2/6
f 343/2/6 341/2/6 344/2/6
f 344/2/6 341/2/6 345/2/6
f 345/2/6 341/2/6 346/2/6
f 344/2/6 345/2/6 347/2/6
f 347/2/6 345/2/6 348/2/6
f 348/2/6 345/2/6 349/2/6
f 349/2/6 345/2/6 350/2/6
f 348/2/6 349/2/6 351/2/6
f 351/2/6 349/2/6 352/2/6
