# MagicaVoxel @ Ephtracy

# group
o spike1

# material
mtllib obstacle1-3-spike1.mtl
usemtl palette

# normals
vn -1 0 0
vn 1 0 0
vn 0 0 1
vn 0 0 -1
vn 0 -1 0
vn 0 1 0

# texcoords
vt 0.0136719 0.5
vt 0.0175781 0.5
vt 0.0214844 0.5
vt 0.0410156 0.5
vt 0.0449219 0.5
vt 0.0683594 0.5
vt 0.0917969 0.5
vt 0.115234 0.5
vt 0.990234 0.5

# verts
v -1.8 0.5 0
v -1.8 0.5 -1.8
v -1.8 0.7 0
v -1.8 0.7 -1.8
v -1.7 0.7 -0.1
v -1.7 0.7 -1.7
v -1.7 0.9 -0.1
v -1.7 0.9 -1.7
v -1.6 0.9 -0.2
v -1.6 0.9 -1.6
v -1.6 1.1 -0.2
v -1.6 1.1 -1.6
v -1.5 1.1 -0.3
v -1.5 1.1 -1.5
v -1.5 1.2 -0.3
v -1.5 1.2 -1.5
v -1.5 1.4 -0.3
v -1.5 1.4 -1.5
v -1.4 1.4 -0.4
v -1.4 1.4 -1.4
v -1.4 1.6 -0.4
v -1.4 1.6 -1.3
v -1.4 1.6 -1.4
v -1.4 1.9 -0.4
v -1.4 1.9 -1.3
v -1.3 1.9 -0.5
v -1.3 1.9 -1.3
v -1.3 2.1 -0.5
v -1.3 2.1 -1.3
v -1.2 2.1 -0.6
v -1.2 2.1 -1.2
v -1.2 2.2 -0.6
v -1.2 2.2 -1.2
v -1.2 2.3 -0.6
v -1.2 2.3 -1.2
v -1.1 2.3 -0.7
v -1.1 2.3 -1.1
v -1.1 2.4 -0.7
v -1.1 2.4 -1.1
v -1.1 2.6 -0.7
v -1.1 2.6 -1.1
v -1 2.6 -0.8
v -1 2.6 -1
v -1 2.7 -0.9
v -1 2.7 -1
v -1 2.8 -0.8
v -1 2.8 -0.9
v -0.9 2.7 -0.8
v -0.9 2.7 -0.9
v -0.9 2.8 -0.8
v -0.9 2.8 -0.9
v -0.8 2.6 -0.8
v -0.8 2.6 -1
v -0.8 2.7 -0.8
v -0.8 2.7 -1
v -0.7 2.3 -0.7
v -0.7 2.3 -1.1
v -0.7 2.4 -0.7
v -0.7 2.4 -1.1
v -0.7 2.6 -0.7
v -0.7 2.6 -1.1
v -0.6 1.9 -0.5
v -0.6 1.9 -1.3
v -0.6 2.1 -0.5
v -0.6 2.1 -0.6
v -0.6 2.1 -1.2
v -0.6 2.1 -1.3
v -0.6 2.2 -0.6
v -0.6 2.2 -1.2
v -0.6 2.3 -0.6
v -0.6 2.3 -1.2
v -0.5 1.6 -0.4
v -0.5 1.6 -1.3
v -0.5 1.9 -0.4
v -0.5 1.9 -1.3
v -0.4 1.4 -0.4
v -0.4 1.4 -1.4
v -0.4 1.6 -0.4
v -0.4 1.6 -1.4
v -0.3 1.1 -0.3
v -0.3 1.1 -1.5
v -0.3 1.2 -0.3
v -0.3 1.2 -1.5
v -0.3 1.4 -0.3
v -0.3 1.4 -1.5
v -0.2 0.9 -0.2
v -0.2 0.9 -1.6
v -0.2 1.1 -0.2
v -0.2 1.1 -1.6
v -0.0999999 0.7 -0.1
v -0.0999999 0.7 -1.7
v -0.0999999 0.9 -0.1
v -0.0999999 0.9 -1.7
v 0 0.5 0
v 0 0.5 -1.8
v 0 0.7 0
v 0 0.7 -1.8
v -1.8 0.5 0
v -1.8 0.7 0
v 0 0.5 0
v 0 0.7 0
v -1.7 0.7 -0.1
v -1.7 0.9 -0.1
v -0.0999999 0.7 -0.1
v -0.0999999 0.9 -0.1
v -1.6 0.9 -0.2
v -1.6 1.1 -0.2
v -0.2 0.9 -0.2
v -0.2 1.1 -0.2
v -1.5 1.1 -0.3
v -1.5 1.2 -0.3
v -1.5 1.4 -0.3
v -0.3 1.1 -0.3
v -0.3 1.2 -0.3
v -0.3 1.4 -0.3
v -1.4 1.4 -0.4
v -1.4 1.6 -0.4
v -1.4 1.9 -0.4
v -0.5 1.6 -0.4
v -0.5 1.9 -0.4
v -0.4 1.4 -0.4
v -0.4 1.6 -0.4
v -1.3 1.9 -0.5
v -1.3 2.1 -0.5
v -0.6 1.9 -0.5
v -0.6 2.1 -0.5
v -1.2 2.1 -0.6
v -1.2 2.2 -0.6
v -1.2 2.3 -0.6
v -0.6 2.1 -0.6
v -0.6 2.2 -0.6
v -0.6 2.3 -0.6
v -1.1 2.3 -0.7
v -1.1 2.4 -0.7
v -1.1 2.6 -0.7
v -0.7 2.3 -0.7
v -0.7 2.4 -0.7
v -0.7 2.6 -0.7
v -1 2.6 -0.8
v -1 2.8 -0.8
v -0.9 2.7 -0.8
v -0.9 2.8 -0.8
v -0.8 2.6 -0.8
v -0.8 2.7 -0.8
v -1 2.7 -0.9
v -1 2.8 -0.9
v -0.9 2.7 -0.9
v -0.9 2.8 -0.9
v -1 2.6 -1
v -1 2.7 -1
v -0.8 2.6 -1
v -0.8 2.7 -1
v -1.1 2.3 -1.1
v -1.1 2.4 -1.1
v -1.1 2.6 -1.1
v -0.7 2.3 -1.1
v -0.7 2.4 -1.1
v -0.7 2.6 -1.1
v -1.2 2.1 -1.2
v -1.2 2.2 -1.2
v -1.2 2.3 -1.2
v -0.6 2.1 -1.2
v -0.6 2.2 -1.2
v -0.6 2.3 -1.2
v -1.4 1.6 -1.3
v -1.4 1.9 -1.3
v -1.3 1.9 -1.3
v -1.3 2.1 -1.3
v -0.6 1.9 -1.3
v -0.6 2.1 -1.3
v -0.5 1.6 -1.3
v -0.5 1.9 -1.3
v -1.4 1.4 -1.4
v -1.4 1.6 -1.4
v -0.4 1.4 -1.4
v -0.4 1.6 -1.4
v -1.5 1.1 -1.5
v -1.5 1.2 -1.5
v -1.5 1.4 -1.5
v -0.3 1.1 -1.5
v -0.3 1.2 -1.5
v -0.3 1.4 -1.5
v -1.6 0.9 -1.6
v -1.6 1.1 -1.6
v -0.2 0.9 -1.6
v -0.2 1.1 -1.6
v -1.7 0.7 -1.7
v -1.7 0.9 -1.7
v -0.0999999 0.7 -1.7
v -0.0999999 0.9 -1.7
v -1.8 0.5 -1.8
v -1.8 0.7 -1.8
v 0 0.5 -1.8
v 0 0.7 -1.8
v -1.8 0.5 0
v 0 0.5 0
v -1.8 0.5 -1.8
v 0 0.5 -1.8
v -1.8 0.7 0
v 0 0.7 0
v -1.7 0.7 -0.1
v -0.0999999 0.7 -0.1
v -1.7 0.7 -1.7
v -0.0999999 0.7 -1.7
v -1.8 0.7 -1.8
v 0 0.7 -1.8
v -1.7 0.9 -0.1
v -0.0999999 0.9 -0.1
v -1.6 0.9 -0.2
v -0.2 0.9 -0.2
v -1.6 0.9 -1.6
v -0.2 0.9 -1.6
v -1.7 0.9 -1.7
v -0.0999999 0.9 -1.7
v -1.6 1.1 -0.2
v -0.2 1.1 -0.2
v -1.5 1.1 -0.3
v -0.3 1.1 -0.3
v -1.5 1.1 -1.5
v -0.3 1.1 -1.5
v -1.6 1.1 -1.6
v -0.2 1.1 -1.6
v -1.5 1.4 -0.3
v -0.3 1.4 -0.3
v -1.4 1.4 -0.4
v -0.4 1.4 -0.4
v -1.4 1.4 -1.4
v -0.4 1.4 -1.4
v -1.5 1.4 -1.5
v -0.3 1.4 -1.5
v -0.5 1.6 -0.4
v -0.4 1.6 -0.4
v -1.4 1.6 -1.3
v -0.5 1.6 -1.3
v -1.4 1.6 -1.4
v -0.4 1.6 -1.4
v -1.4 1.9 -0.4
v -0.5 1.9 -0.4
v -1.3 1.9 -0.5
v -0.6 1.9 -0.5
v -1.4 1.9 -1.3
v -1.3 1.9 -1.3
v -0.6 1.9 -1.3
v -0.5 1.9 -1.3
v -1.3 2.1 -0.5
v -0.6 2.1 -0.5
v -1.2 2.1 -0.6
v -0.6 2.1 -0.6
v -1.2 2.1 -1.2
v -0.6 2.1 -1.2
v -1.3 2.1 -1.3
v -0.6 2.1 -1.3
v -1.2 2.3 -0.6
v -0.6 2.3 -0.6
v -1.1 2.3 -0.7
v -0.7 2.3 -0.7
v -1.1 2.3 -1.1
v -0.7 2.3 -1.1
v -1.2 2.3 -1.2
v -0.6 2.3 -1.2
v -1.1 2.6 -0.7
v -0.7 2.6 -0.7
v -1 2.6 -0.8
v -0.8 2.6 -0.8
v -1 2.6 -1
v -0.8 2.6 -1
v -1.1 2.6 -1.1
v -0.7 2.6 -1.1
v -0.9 2.7 -0.8
v -0.8 2.7 -0.8
v -1 2.7 -0.9
v -0.9 2.7 -0.9
v -1 2.7 -1
v -0.8 2.7 -1
v -1 2.8 -0.8
v -0.9 2.8 -0.8
v -1 2.8 -0.9
v -0.9 2.8 -0.9

# faces
f 3/9/1 2/9/1 1/9/1
f 4/9/1 2/9/1 3/9/1
f 7/8/1 6/8/1 5/8/1
f 8/8/1 6/8/1 7/8/1
f 11/7/1 10/7/1 9/7/1
f 12/7/1 10/7/1 11/7/1
f 15/7/1 14/7/1 13/7/1
f 16/7/1 14/7/1 15/7/1
f 17/6/1 16/6/1 15/6/1
f 18/6/1 16/6/1 17/6/1
f 21/6/1 20/6/1 19/6/1
f 22/6/1 20/6/1 21/6/1
f 23/6/1 20/6/1 22/6/1
f 24/5/1 22/5/1 21/5/1
f 25/5/1 22/5/1 24/5/1
f 28/3/1 27/3/1 26/3/1
f 29/3/1 27/3/1 28/3/1
f 32/3/1 31/3/1 30/3/1
f 33/3/1 31/3/1 32/3/1
f 34/2/1 33/2/1 32/2/1
f 35/2/1 33/2/1 34/2/1
f 38/2/1 37/2/1 36/2/1
f 39/2/1 37/2/1 38/2/1
f 40/1/1 39/1/1 38/1/1
f 41/1/1 39/1/1 40/1/1
f 44/1/1 43/1/1 42/1/1
f 45/1/1 43/1/1 44/1/1
f 46/1/1 44/1/1 42/1/1
f 47/1/1 44/1/1 46/1/1
f 48/1/2 49/1/2 50/1/2
f 50/1/2 49/1/2 51/1/2
f 52/1/2 53/1/2 54/1/2
f 54/1/2 53/1/2 55/1/2
f 56/2/2 57/2/2 58/2/2
f 58/2/2 57/2/2 59/2/2
f 58/1/2 59/1/2 60/1/2
f 60/1/2 59/1/2 61/1/2
f 62/3/2 63/3/2 64/3/2
f 64/3/2 63/3/2 65/3/2
f 65/3/2 63/3/2 66/3/2
f 66/3/2 63/3/2 67/3/2
f 65/3/2 66/3/2 68/3/2
f 68/3/2 66/3/2 69/3/2
f 68/2/2 69/2/2 70/2/2
f 70/2/2 69/2/2 71/2/2
f 72/5/2 73/5/2 74/5/2
f 74/5/2 73/5/2 75/5/2
f 76/6/2 77/6/2 78/6/2
f 78/6/2 77/6/2 79/6/2
f 80/7/2 81/7/2 82/7/2
f 82/7/2 81/7/2 83/7/2
f 82/6/2 83/6/2 84/6/2
f 84/6/2 83/6/2 85/6/2
f 86/7/2 87/7/2 88/7/2
f 88/7/2 87/7/2 89/7/2
f 90/8/2 91/8/2 92/8/2
f 92/8/2 91/8/2 93/8/2
f 94/9/2 95/9/2 96/9/2
f 96/9/2 95/9/2 97/9/2
f 100/9/3 99/9/3 98/9/3
f 101/9/3 99/9/3 100/9/3
f 104/8/3 103/8/3 102/8/3
f 105/8/3 103/8/3 104/8/3
f 108/7/3 107/7/3 106/7/3
f 109/7/3 107/7/3 108/7/3
f 113/7/3 111/7/3 110/7/3
f 114/6/3 112/6/3 111/6/3
f 114/7/3 111/7/3 113/7/3
f 115/6/3 112/6/3 114/6/3
f 119/6/3 117/6/3 116/6/3
f 119/5/3 118/5/3 117/5/3
f 120/5/3 118/5/3 119/5/3
f 121/6/3 119/6/3 116/6/3
f 122/6/3 119/6/3 121/6/3
f 125/3/3 124/3/3 123/3/3
f 126/3/3 124/3/3 125/3/3
f 130/3/3 128/3/3 127/3/3
f 131/2/3 129/2/3 128/2/3
f 131/3/3 128/3/3 130/3/3
f 132/2/3 129/2/3 131/2/3
f 136/2/3 134/2/3 133/2/3
f 137/1/3 135/1/3 134/1/3
f 137/2/3 134/2/3 136/2/3
f 138/1/3 135/1/3 137/1/3
f 141/1/3 140/1/3 139/1/3
f 142/1/3 140/1/3 141/1/3
f 143/1/3 141/1/3 139/1/3
f 144/1/3 141/1/3 143/1/3
f 145/1/4 146/1/4 147/1/4
f 147/1/4 146/1/4 148/1/4
f 149/1/4 150/1/4 151/1/4
f 151/1/4 150/1/4 152/1/4
f 153/2/4 154/2/4 156/2/4
f 154/1/4 155/1/4 157/1/4
f 156/2/4 154/2/4 157/2/4
f 157/1/4 155/1/4 158/1/4
f 159/3/4 160/3/4 162/3/4
f 160/2/4 161/2/4 163/2/4
f 162/3/4 160/3/4 163/3/4
f 163/2/4 161/2/4 164/2/4
f 165/5/4 166/5/4 167/5/4
f 165/5/4 167/5/4 169/5/4
f 167/3/4 168/3/4 169/3/4
f 169/3/4 168/3/4 170/3/4
f 165/5/4 169/5/4 171/5/4
f 171/5/4 169/5/4 172/5/4
f 173/6/4 174/6/4 175/6/4
f 175/6/4 174/6/4 176/6/4
f 177/7/4 178/7/4 180/7/4
f 178/6/4 179/6/4 181/6/4
f 180/7/4 178/7/4 181/7/4
f 181/6/4 179/6/4 182/6/4
f 183/7/4 184/7/4 185/7/4
f 185/7/4 184/7/4 186/7/4
f 187/8/4 188/8/4 189/8/4
f 189/8/4 188/8/4 190/8/4
f 191/9/4 192/9/4 193/9/4
f 193/9/4 192/9/4 194/9/4
f 197/9/5 196/9/5 195/9/5
f 198/9/5 196/9/5 197/9/5
f 199/9/6 200/9/6 201/9/6
f 201/9/6 200/9/6 202/9/6
f 199/9/6 201/9/6 203/9/6
f 202/9/6 200/9/6 204/9/6
f 199/9/6 203/9/6 205/9/6
f 203/9/6 204/9/6 205/9/6
f 204/9/6 200/9/6 206/9/6
f 205/9/6 204/9/6 206/9/6
f 207/8/6 208/8/6 209/8/6
f 209/8/6 208/8/6 210/8/6
f 207/8/6 209/8/6 211/8/6
f 210/8/6 208/8/6 212/8/6
f 207/8/6 211/8/6 213/8/6
f 211/8/6 212/8/6 213/8/6
f 212/8/6 208/8/6 214/8/6
f 213/8/6 212/8/6 214/8/6
f 215/7/6 216/7/6 217/7/6
f 217/7/6 216/7/6 218/7/6
f 215/7/6 217/7/6 219/7/6
f 218/7/6 216/7/6 220/7/6
f 215/7/6 219/7/6 221/7/6
f 219/7/6 220/7/6 221/7/6
f 220/7/6 216/7/6 222/7/6
f 221/7/6 220/7/6 222/7/6
f 223/6/6 224/6/6 225/6/6
f 225/6/6 224/6/6 226/6/6
f 223/6/6 225/6/6 227/6/6
f 226/6/6 224/6/6 228/6/6
f 223/6/6 227/6/6 229/6/6
f 227/6/6 228/6/6 229/6/6
f 228/6/6 224/6/6 230/6/6
f 229/6/6 228/6/6 230/6/6
f 231/6/6 232/6/6 234/6/6
f 233/6/6 234/6/6 235/6/6
f 234/6/6 232/6/6 236/6/6
f 235/6/6 234/6/6 236/6/6
f 237/5/6 238/5/6 239/5/6
f 239/5/6 238/5/6 240/5/6
f 237/5/6 239/5/6 241/5/6
f 241/5/6 239/5/6 242/5/6
f 240/5/6 238/5/6 243/5/6
f 243/5/6 238/5/6 244/5/6
f 245/3/6 246/3/6 247/3/6
f 247/3/6 246/3/6 248/3/6
f 245/3/6 247/3/6 249/3/6
f 245/3/6 249/3/6 251/3/6
f 249/3/6 250/3/6 251/3/6
f 251/3/6 250/3/6 252/3/6
f 253/2/6 254/2/6 255/2/6
f 255/2/6 254/2/6 256/2/6
f 253/2/6 255/2/6 257/2/6
f 256/2/6 254/2/6 258/2/6
f 253/2/6 257/2/6 259/2/6
f 257/2/6 258/2/6 259/2/6
f 258/2/6 254/2/6 260/2/6
f 259/2/6 258/2/6 260/2/6
f 261/1/6 262/1/6 263/1/6
f 263/1/6 262/1/6 264/1/6
f 261/1/6 263/1/6 265/1/6
f 264/1/6 262/1/6 266/1/6
f 261/1/6 265/1/6 267/1/6
f 265/1/6 266/1/6 267/1/6
f 266/1/6 262/1/6 268/1/6
f 267/1/6 266/1/6 268/1/6
f 269/1/6 270/1/6 272/1/6
f 271/1/6 272/1/6 273/1/6
f 272/1/6 270/1/6 274/1/6
f 273/1/6 272/1/6 274/1/6
f 275/1/6 276/1/6 277/1/6
f 277/1/6 276/1/6 278/1/6
