# MagicaVoxel @ Ephtracy

# group
o spike1

# material
mtllib obstacle3-0-spike1.mtl
usemtl palette

# normals
vn -1 0 0
vn 1 0 0
vn 0 0 1
vn 0 0 -1
vn 0 -1 0
vn 0 1 0

# texcoords
vt 0.0136719 0.5
vt 0.0175781 0.5
vt 0.0214844 0.5
vt 0.0410156 0.5
vt 0.0449219 0.5
vt 0.0683594 0.5
vt 0.0917969 0.5
vt 0.115234 0.5
vt 0.990234 0.5

# verts
v -1.5 0.5 1.5
v -1.5 0.5 -1.5
v -1.5 0.7 1.5
v -1.5 0.7 -1.5
v -1.3 0.7 1.3
v -1.3 0.7 -1.3
v -1.3 1.1 1.3
v -1.3 1.1 -1.3
v -1.2 1.1 1.2
v -1.2 1.1 -1.2
v -1.2 1.3 1.2
v -1.2 1.3 -1.2
v -1 1.3 1
v -1 1.3 -1
v -1 1.5 1
v -1 1.5 -1
v -1 1.7 1
v -1 1.7 -1
v -0.8 1.7 0.8
v -0.8 1.7 -0.8
v -0.8 2 0.8
v -0.8 2 -0.8
v -0.7 2 0.7
v -0.7 2 -0.7
v -0.7 2.4 0.7
v -0.7 2.4 -0.7
v -0.5 2.4 0.5
v -0.5 2.4 -0.5
v -0.5 2.8 0.5
v -0.5 2.8 -0.5
v -0.3 2.8 0.3
v -0.3 2.8 -0.3
v -0.3 2.9 0.3
v -0.3 2.9 -0.3
v -0.3 3.2 0.3
v -0.3 3.2 -0.3
v -0.2 3.2 0.2
v -0.2 3.2 -0.2
v -0.2 3.5 0.2
v -0.2 3.5 -0.2
v 0.2 3.2 0.2
v 0.2 3.2 -0.2
v 0.2 3.5 0.2
v 0.2 3.5 -0.2
v 0.3 2.8 0.3
v 0.3 2.8 -0.3
v 0.3 2.9 0.3
v 0.3 2.9 -0.3
v 0.3 3.2 0.3
v 0.3 3.2 -0.3
v 0.5 2.4 0.5
v 0.5 2.4 -0.5
v 0.5 2.8 0.5
v 0.5 2.8 -0.5
v 0.7 2 0.7
v 0.7 2 -0.7
v 0.7 2.4 0.7
v 0.7 2.4 -0.7
v 0.8 1.7 0.8
v 0.8 1.7 -0.8
v 0.8 2 0.8
v 0.8 2 -0.8
v 1 1.3 1
v 1 1.3 -1
v 1 1.5 1
v 1 1.5 -1
v 1 1.7 1
v 1 1.7 -1
v 1.2 1.1 1.2
v 1.2 1.1 -1.2
v 1.2 1.3 1.2
v 1.2 1.3 -1.2
v 1.3 0.7 1.3
v 1.3 0.7 -1.3
v 1.3 1.1 1.3
v 1.3 1.1 -1.3
v 1.5 0.5 1.5
v 1.5 0.5 -1.5
v 1.5 0.7 1.5
v 1.5 0.7 -1.5
v -1.5 0.5 1.5
v -1.5 0.7 1.5
v 1.5 0.5 1.5
v 1.5 0.7 1.5
v -1.3 0.7 1.3
v -1.3 1.1 1.3
v 1.3 0.7 1.3
v 1.3 1.1 1.3
v -1.2 1.1 1.2
v -1.2 1.3 1.2
v 1.2 1.1 1.2
v 1.2 1.3 1.2
v -1 1.3 1
v -1 1.5 1
v -1 1.7 1
v 1 1.3 1
v 1 1.5 1
v 1 1.7 1
v -0.8 1.7 0.8
v -0.8 2 0.8
v 0.8 1.7 0.8
v 0.8 2 0.8
v -0.7 2 0.7
v -0.7 2.4 0.7
v 0.7 2 0.7
v 0.7 2.4 0.7
v -0.5 2.4 0.5
v -0.5 2.8 0.5
v 0.5 2.4 0.5
v 0.5 2.8 0.5
v -0.3 2.8 0.3
v -0.3 2.9 0.3
v -0.3 3.2 0.3
v 0.3 2.8 0.3
v 0.3 2.9 0.3
v 0.3 3.2 0.3
v -0.2 3.2 0.2
v -0.2 3.5 0.2
v 0.2 3.2 0.2
v 0.2 3.5 0.2
v -0.2 3.2 -0.2
v -0.2 3.5 -0.2
v 0.2 3.2 -0.2
v 0.2 3.5 -0.2
v -0.3 2.8 -0.3
v -0.3 2.9 -0.3
v -0.3 3.2 -0.3
v 0.3 2.8 -0.3
v 0.3 2.9 -0.3
v 0.3 3.2 -0.3
v -0.5 2.4 -0.5
v -0.5 2.8 -0.5
v 0.5 2.4 -0.5
v 0.5 2.8 -0.5
v -0.7 2 -0.7
v -0.7 2.4 -0.7
v 0.7 2 -0.7
v 0.7 2.4 -0.7
v -0.8 1.7 -0.8
v -0.8 2 -0.8
v 0.8 1.7 -0.8
v 0.8 2 -0.8
v -1 1.3 -1
v -1 1.5 -1
v -1 1.7 -1
v 1 1.3 -1
v 1 1.5 -1
v 1 1.7 -1
v -1.2 1.1 -1.2
v -1.2 1.3 -1.2
v 1.2 1.1 -1.2
v 1.2 1.3 -1.2
v -1.3 0.7 -1.3
v -1.3 1.1 -1.3
v 1.3 0.7 -1.3
v 1.3 1.1 -1.3
v -1.5 0.5 -1.5
v -1.5 0.7 -1.5
v 1.5 0.5 -1.5
v 1.5 0.7 -1.5
v -1.5 0.5 1.5
v 1.5 0.5 1.5
v -1.5 0.5 -1.5
v 1.5 0.5 -1.5
v -1.5 0.7 1.5
v 1.5 0.7 1.5
v -1.3 0.7 1.3
v 1.3 0.7 1.3
v -1.3 0.7 -1.3
v 1.3 0.7 -1.3
v -1.5 0.7 -1.5
v 1.5 0.7 -1.5
v -1.3 1.1 1.3
v 1.3 1.1 1.3
v -1.2 1.1 1.2
v 1.2 1.1 1.2
v -1.2 1.1 -1.2
v 1.2 1.1 -1.2
v -1.3 1.1 -1.3
v 1.3 1.1 -1.3
v -1.2 1.3 1.2
v 1.2 1.3 1.2
v -1 1.3 1
v 1 1.3 1
v -1 1.3 -1
v 1 1.3 -1
v -1.2 1.3 -1.2
v 1.2 1.3 -1.2
v -1 1.7 1
v 1 1.7 1
v -0.8 1.7 0.8
v 0.8 1.7 0.8
v -0.8 1.7 -0.8
v 0.8 1.7 -0.8
v -1 1.7 -1
v 1 1.7 -1
v -0.8 2 0.8
v 0.8 2 0.8
v -0.7 2 0.7
v 0.7 2 0.7
v -0.7 2 -0.7
v 0.7 2 -0.7
v -0.8 2 -0.8
v 0.8 2 -0.8
v -0.7 2.4 0.7
v 0.7 2.4 0.7
v -0.5 2.4 0.5
v 0.5 2.4 0.5
v -0.5 2.4 -0.5
v 0.5 2.4 -0.5
v -0.7 2.4 -0.7
v 0.7 2.4 -0.7
v -0.5 2.8 0.5
v 0.5 2.8 0.5
v -0.3 2.8 0.3
v 0.3 2.8 0.3
v -0.3 2.8 -0.3
v 0.3 2.8 -0.3
v -0.5 2.8 -0.5
v 0.5 2.8 -0.5
v -0.3 3.2 0.3
v 0.3 3.2 0.3
v -0.2 3.2 0.2
v 0.2 3.2 0.2
v -0.2 3.2 -0.2
v 0.2 3.2 -0.2
v -0.3 3.2 -0.3
v 0.3 3.2 -0.3
v -0.2 3.5 0.2
v 0.2 3.5 0.2
v -0.2 3.5 -0.2
v 0.2 3.5 -0.2

# faces
f 3/9/1 2/9/1 1/9/1
f 4/9/1 2/9/1 3/9/1
f 7/8/1 6/8/1 5/8/1
f 8/8/1 6/8/1 7/8/1
f 11/7/1 10/7/1 9/7/1
f 12/7/1 10/7/1 11/7/1
f 15/7/1 14/7/1 13/7/1
f 16/7/1 14/7/1 15/7/1
f 17/6/1 16/6/1 15/6/1
f 18/6/1 16/6/1 17/6/1
f 21/6/1 20/6/1 19/6/1
f 22/6/1 20/6/1 21/6/1
f 25/5/1 24/5/1 23/5/1
f 26/5/1 24/5/1 25/5/1
f 29/3/1 28/3/1 27/3/1
f 30/3/1 28/3/1 29/3/1
f 33/2/1 32/2/1 31/2/1
f 34/2/1 32/2/1 33/2/1
f 35/1/1 34/1/1 33/1/1
f 36/1/1 34/1/1 35/1/1
f 39/1/1 38/1/1 37/1/1
f 40/1/1 38/1/1 39/1/1
f 41/1/2 42/1/2 43/1/2
f 43/1/2 42/1/2 44/1/2
f 45/2/2 46/2/2 47/2/2
f 47/2/2 46/2/2 48/2/2
f 47/1/2 48/1/2 49/1/2
f 49/1/2 48/1/2 50/1/2
f 51/3/2 52/3/2 53/3/2
f 53/3/2 52/3/2 54/3/2
f 55/5/2 56/5/2 57/5/2
f 57/5/2 56/5/2 58/5/2
f 59/6/2 60/6/2 61/6/2
f 61/6/2 60/6/2 62/6/2
f 63/7/2 64/7/2 65/7/2
f 65/7/2 64/7/2 66/7/2
f 65/6/2 66/6/2 67/6/2
f 67/6/2 66/6/2 68/6/2
f 69/7/2 70/7/2 71/7/2
f 71/7/2 70/7/2 72/7/2
f 73/8/2 74/8/2 75/8/2
f 75/8/2 74/8/2 76/8/2
f 77/9/2 78/9/2 79/9/2
f 79/9/2 78/9/2 80/9/2
f 83/9/3 82/9/3 81/9/3
f 84/9/3 82/9/3 83/9/3
f 87/8/3 86/8/3 85/8/3
f 88/8/3 86/8/3 87/8/3
f 91/7/3 90/7/3 89/7/3
f 92/7/3 90/7/3 91/7/3
f 96/7/3 94/7/3 93/7/3
f 97/6/3 95/6/3 94/6/3
f 97/7/3 94/7/3 96/7/3
f 98/6/3 95/6/3 97/6/3
f 101/6/3 100/6/3 99/6/3
f 102/6/3 100/6/3 101/6/3
f 105/5/3 104/5/3 103/5/3
f 106/5/3 104/5/3 105/5/3
f 109/3/3 108/3/3 107/3/3
f 110/3/3 108/3/3 109/3/3
f 114/2/3 112/2/3 111/2/3
f 115/1/3 113/1/3 112/1/3
f 115/2/3 112/2/3 114/2/3
f 116/1/3 113/1/3 115/1/3
f 119/1/3 118/1/3 117/1/3
f 120/1/3 118/1/3 119/1/3
f 121/1/4 122/1/4 123/1/4
f 123/1/4 122/1/4 124/1/4
f 125/2/4 126/2/4 128/2/4
f 126/1/4 127/1/4 129/1/4
f 128/2/4 126/2/4 129/2/4
f 129/1/4 127/1/4 130/1/4
f 131/3/4 132/3/4 133/3/4
f 133/3/4 132/3/4 134/3/4
f 135/5/4 136/5/4 137/5/4
f 137/5/4 136/5/4 138/5/4
f 139/6/4 140/6/4 141/6/4
f 141/6/4 140/6/4 142/6/4
f 143/7/4 144/7/4 146/7/4
f 144/6/4 145/6/4 147/6/4
f 146/7/4 144/7/4 147/7/4
f 147/6/4 145/6/4 148/6/4
f 149/7/4 150/7/4 151/7/4
f 151/7/4 150/7/4 152/7/4
f 153/8/4 154/8/4 155/8/4
f 155/8/4 154/8/4 156/8/4
f 157/9/4 158/9/4 159/9/4
f 159/9/4 158/9/4 160/9/4
f 163/9/5 162/9/5 161/9/5
f 164/9/5 162/9/5 163/9/5
f 165/9/6 166/9/6 167/9/6
f 167/9/6 166/9/6 168/9/6
f 165/9/6 167/9/6 169/9/6
f 168/9/6 166/9/6 170/9/6
f 165/9/6 169/9/6 171/9/6
f 169/9/6 170/9/6 171/9/6
f 170/9/6 166/9/6 172/9/6
f 171/9/6 170/9/6 172/9/6
f 173/8/6 174/8/6 175/8/6
f 175/8/6 174/8/6 176/8/6
f 173/8/6 175/8/6 177/8/6
f 176/8/6 174/8/6 178/8/6
f 173/8/6 177/8/6 179/8/6
f 177/8/6 178/8/6 179/8/6
f 178/8/6 174/8/6 180/8/6
f 179/8/6 178/8/6 180/8/6
f 181/7/6 182/7/6 183/7/6
f 183/7/6 182/7/6 184/7/6
f 181/7/6 183/7/6 185/7/6
f 184/7/6 182/7/6 186/7/6
f 181/7/6 185/7/6 187/7/6
f 185/7/6 186/7/6 187/7/6
f 186/7/6 182/7/6 188/7/6
f 187/7/6 186/7/6 188/7/6
f 189/6/6 190/6/6 191/6/6
f 191/6/6 190/6/6 192/6/6
f 189/6/6 191/6/6 193/6/6
f 192/6/6 190/6/6 194/6/6
f 189/6/6 193/6/6 195/6/6
f 193/6/6 194/6/6 195/6/6
f 194/6/6 190/6/6 196/6/6
f 195/6/6 194/6/6 196/6/6
f 197/6/6 198/6/6 199/6/6
f 199/6/6 198/6/6 200/6/6
f 197/6/6 199/6/6 201/6/6
f 200/6/6 198/6/6 202/6/6
f 197/6/6 201/6/6 203/6/6
f 201/6/6 202/6/6 203/6/6
f 202/6/6 198/6/6 204/6/6
f 203/6/6 202/6/6 204/6/6
f 205/5/6 206/5/6 207/5/6
f 207/5/6 206/5/6 208/5/6
f 205/5/6 207/5/6 209/5/6
f 208/5/6 206/5/6 210/5/6
f 205/5/6 209/5/6 211/5/6
f 209/5/6 210/5/6 211/5/6
f 210/5/6 206/5/6 212/5/6
f 211/5/6 210/5/6 212/5/6
f 213/3/6 214/3/6 215/3/6
f 215/3/6 214/3/6 216/3/6
f 213/3/6 215/3/6 217/3/6
f 216/3/6 214/3/6 218/3/6
f 213/3/6 217/3/6 219/3/6
f 217/3/6 218/3/6 219/3/6
f 218/3/6 214/3/6 220/3/6
f 219/3/6 218/3/6 220/3/6
f 221/1/6 222/1/6 223/1/6
f 223/1/6 222/1/6 224/1/6
f 221/1/6 223/1/6 225/1/6
f 224/1/6 222/1/6 226/1/6
f 221/1/6 225/1/6 227/1/6
f 225/1/6 226/1/6 227/1/6
f 226/1/6 222/1/6 228/1/6
f 227/1/6 226/1/6 228/1/6
f 229/1/6 230/1/6 231/1/6
f 231/1/6 230/1/6 232/1/6
