# MagicaVoxel @ Ephtracy

# group
o base

# material
mtllib obstacle3-1-base.mtl
usemtl palette

# normals
vn -1 0 0
vn 1 0 0
vn 0 0 1
vn 0 0 -1
vn 0 -1 0
vn 0 1 0

# texcoords
vt 0.845703 0.5
vt 0.982422 0.5
vt 0.990234 0.5

# verts
v -2 0 2
v -2 0 1.2
v -2 0 0.4
v -2 0 -0.4
v -2 0 -1.2
v -2 0 -2
v -2 0.5 2
v -2 0.5 1.2
v -2 0.5 0.4
v -2 0.5 -0.4
v -2 0.5 -1.2
v -2 0.5 -2
v 2 0 2
v 2 0 1.2
v 2 0 0.4
v 2 0 -0.4
v 2 0 -1.2
v 2 0 -2
v 2 0.5 2
v 2 0.5 1.2
v 2 0.5 0.4
v 2 0.5 -0.4
v 2 0.5 -1.2
v 2 0.5 -2
v -2 0 2
v -2 0.5 2
v -1.2 0 2
v -1.2 0.5 2
v -0.4 0 2
v -0.4 0.5 2
v 0.4 0 2
v 0.4 0.5 2
v 1.2 0 2
v 1.2 0.5 2
v 2 0 2
v 2 0.5 2
v -2 0 -2
v -2 0.5 -2
v -1.2 0 -2
v -1.2 0.5 -2
v -0.4 0 -2
v -0.4 0.5 -2
v 0.4 0 -2
v 0.4 0.5 -2
v 1.2 0 -2
v 1.2 0.5 -2
v 2 0 -2
v 2 0.5 -2
v -2 0 2
v -1.2 0 2
v -0.4 0 2
v 0.4 0 2
v 1.2 0 2
v 2 0 2
v -1.5 0 1.5
v -1.2 0 1.5
v -0.4 0 1.5
v 0.4 0 1.5
v 1.2 0 1.5
v 1.5 0 1.5
v -2 0 1.2
v -1.5 0 1.2
v 1.5 0 1.2
v 2 0 1.2
v -2 0 0.4
v -1.5 0 0.4
v 1.5 0 0.4
v 2 0 0.4
v -2 0 -0.4
v -1.5 0 -0.4
v 1.5 0 -0.4
v 2 0 -0.4
v -2 0 -1.2
v -1.5 0 -1.2
v 1.5 0 -1.2
v 2 0 -1.2
v -1.5 0 -1.5
v -1.2 0 -1.5
v -0.4 0 -1.5
v 0.4 0 -1.5
v 1.2 0 -1.5
v 1.5 0 -1.5
v -2 0 -2
v -1.2 0 -2
v -0.4 0 -2
v 0.4 0 -2
v 1.2 0 -2
v 2 0 -2
v -2 0.5 2
v -1.2 0.5 2
v -0.4 0.5 2
v 0.4 0.5 2
v 1.2 0.5 2
v 2 0.5 2
v -1.5 0.5 1.5
v -1.2 0.5 1.5
v -0.4 0.5 1.5
v 0.4 0.5 1.5
v 1.2 0.5 1.5
v 1.5 0.5 1.5
v -2 0.5 1.2
v -1.5 0.5 1.2
v 1.5 0.5 1.2
v 2 0.5 1.2
v -2 0.5 0.4
v -1.5 0.5 0.4
v 1.5 0.5 0.4
v 2 0.5 0.4
v -2 0.5 -0.4
v -1.5 0.5 -0.4
v 1.5 0.5 -0.4
v 2 0.5 -0.4
v -2 0.5 -1.2
v -1.5 0.5 -1.2
v 1.5 0.5 -1.2
v 2 0.5 -1.2
v -1.5 0.5 -1.5
v -1.2 0.5 -1.5
v -0.4 0.5 -1.5
v 0.4 0.5 -1.5
v 1.2 0.5 -1.5
v 1.5 0.5 -1.5
v -2 0.5 -2
v -1.2 0.5 -2
v -0.4 0.5 -2
v 0.4 0.5 -2
v 1.2 0.5 -2
v 2 0.5 -2

# faces
f 7/3/1 2/3/1 1/3/1
f 8/1/1 3/1/1 2/1/1
f 8/3/1 2/3/1 7/3/1
f 9/3/1 4/3/1 3/3/1
f 9/1/1 3/1/1 8/1/1
f 10/1/1 5/1/1 4/1/1
f 10/3/1 4/3/1 9/3/1
f 11/3/1 6/3/1 5/3/1
f 11/1/1 5/1/1 10/1/1
f 12/3/1 6/3/1 11/3/1
f 13/3/2 14/3/2 19/3/2
f 14/1/2 15/1/2 20/1/2
f 19/3/2 14/3/2 20/3/2
f 15/3/2 16/3/2 21/3/2
f 20/1/2 15/1/2 21/1/2
f 16/1/2 17/1/2 22/1/2
f 21/3/2 16/3/2 22/3/2
f 17/3/2 18/3/2 23/3/2
f 22/1/2 17/1/2 23/1/2
f 23/3/2 18/3/2 24/3/2
f 27/3/3 26/3/3 25/3/3
f 28/3/3 26/3/3 27/3/3
f 29/1/3 28/1/3 27/1/3
f 30/1/3 28/1/3 29/1/3
f 31/3/3 30/3/3 29/3/3
f 32/3/3 30/3/3 31/3/3
f 33/1/3 32/1/3 31/1/3
f 34/1/3 32/1/3 33/1/3
f 35/3/3 34/3/3 33/3/3
f 36/3/3 34/3/3 35/3/3
f 37/3/4 38/3/4 39/3/4
f 39/3/4 38/3/4 40/3/4
f 39/1/4 40/1/4 41/1/4
f 41/1/4 40/1/4 42/1/4
f 41/3/4 42/3/4 43/3/4
f 43/3/4 42/3/4 44/3/4
f 43/1/4 44/1/4 45/1/4
f 45/1/4 44/1/4 46/1/4
f 45/3/4 46/3/4 47/3/4
f 47/3/4 46/3/4 48/3/4
f 55/3/5 50/3/5 49/3/5
f 56/1/5 51/1/5 50/1/5
f 56/3/5 50/3/5 55/3/5
f 57/3/5 52/3/5 51/3/5
f 57/1/5 51/1/5 56/1/5
f 58/1/5 53/1/5 52/1/5
f 58/3/5 52/3/5 57/3/5
f 59/3/5 54/3/5 53/3/5
f 59/1/5 53/1/5 58/1/5
f 60/3/5 54/3/5 59/3/5
f 61/3/5 55/3/5 49/3/5
f 62/2/5 58/2/5 57/2/5
f 62/3/5 55/3/5 61/3/5
f 62/2/5 56/2/5 55/2/5
f 62/2/5 60/2/5 59/2/5
f 62/2/5 59/2/5 58/2/5
f 62/2/5 57/2/5 56/2/5
f 63/3/5 54/3/5 60/3/5
f 63/2/5 60/2/5 62/2/5
f 64/3/5 54/3/5 63/3/5
f 65/1/5 62/1/5 61/1/5
f 66/2/5 63/2/5 62/2/5
f 66/1/5 62/1/5 65/1/5
f 67/1/5 64/1/5 63/1/5
f 67/2/5 63/2/5 66/2/5
f 68/1/5 64/1/5 67/1/5
f 69/3/5 66/3/5 65/3/5
f 70/2/5 67/2/5 66/2/5
f 70/3/5 66/3/5 69/3/5
f 71/3/5 68/3/5 67/3/5
f 71/2/5 67/2/5 70/2/5
f 72/3/5 68/3/5 71/3/5
f 73/1/5 70/1/5 69/1/5
f 74/2/5 71/2/5 70/2/5
f 74/1/5 70/1/5 73/1/5
f 75/1/5 72/1/5 71/1/5
f 75/2/5 71/2/5 74/2/5
f 76/1/5 72/1/5 75/1/5
f 77/3/5 74/3/5 73/3/5
f 77/2/5 75/2/5 74/2/5
f 78/2/5 75/2/5 77/2/5
f 79/2/5 75/2/5 78/2/5
f 80/2/5 75/2/5 79/2/5
f 81/2/5 75/2/5 80/2/5
f 82/3/5 76/3/5 75/3/5
f 82/2/5 75/2/5 81/2/5
f 83/3/5 77/3/5 73/3/5
f 83/3/5 78/3/5 77/3/5
f 84/1/5 79/1/5 78/1/5
f 84/3/5 78/3/5 83/3/5
f 85/3/5 80/3/5 79/3/5
f 85/1/5 79/1/5 84/1/5
f 86/1/5 81/1/5 80/1/5
f 86/3/5 80/3/5 85/3/5
f 87/3/5 82/3/5 81/3/5
f 87/1/5 81/1/5 86/1/5
f 88/3/5 76/3/5 82/3/5
f 88/3/5 82/3/5 87/3/5
f 89/3/6 90/3/6 95/3/6
f 90/1/6 91/1/6 96/1/6
f 95/3/6 90/3/6 96/3/6
f 91/3/6 92/3/6 97/3/6
f 96/1/6 91/1/6 97/1/6
f 92/1/6 93/1/6 98/1/6
f 97/3/6 92/3/6 98/3/6
f 93/3/6 94/3/6 99/3/6
f 98/1/6 93/1/6 99/1/6
f 99/3/6 94/3/6 100/3/6
f 89/3/6 95/3/6 101/3/6
f 97/2/6 98/2/6 102/2/6
f 101/3/6 95/3/6 102/3/6
f 95/2/6 96/2/6 102/2/6
f 99/2/6 100/2/6 102/2/6
f 98/2/6 99/2/6 102/2/6
f 96/2/6 97/2/6 102/2/6
f 100/3/6 94/3/6 103/3/6
f 102/2/6 100/2/6 103/2/6
f 103/3/6 94/3/6 104/3/6
f 101/1/6 102/1/6 105/1/6
f 102/2/6 103/2/6 106/2/6
f 105/1/6 102/1/6 106/1/6
f 103/1/6 104/1/6 107/1/6
f 106/2/6 103/2/6 107/2/6
f 107/1/6 104/1/6 108/1/6
f 105/3/6 106/3/6 109/3/6
f 106/2/6 107/2/6 110/2/6
f 109/3/6 106/3/6 110/3/6
f 107/3/6 108/3/6 111/3/6
f 110/2/6 107/2/6 111/2/6
f 111/3/6 108/3/6 112/3/6
f 109/1/6 110/1/6 113/1/6
f 110/2/6 111/2/6 114/2/6
f 113/1/6 110/1/6 114/1/6
f 111/1/6 112/1/6 115/1/6
f 114/2/6 111/2/6 115/2/6
f 115/1/6 112/1/6 116/1/6
f 113/3/6 114/3/6 117/3/6
f 114/2/6 115/2/6 117/2/6
f 117/2/6 115/2/6 118/2/6
f 118/2/6 115/2/6 119/2/6
f 119/2/6 115/2/6 120/2/6
f 120/2/6 115/2/6 121/2/6
f 115/3/6 116/3/6 122/3/6
f 121/2/6 115/2/6 122/2/6
f 113/3/6 117/3/6 123/3/6
f 117/3/6 118/3/6 123/3/6
f 118/1/6 119/1/6 124/1/6
f 123/3/6 118/3/6 124/3/6
f 119/3/6 120/3/6 125/3/6
f 124/1/6 119/1/6 125/1/6
f 120/1/6 121/1/6 126/1/6
f 125/3/6 120/3/6 126/3/6
f 121/3/6 122/3/6 127/3/6
f 126/1/6 121/1/6 127/1/6
f 122/3/6 116/3/6 128/3/6
f 127/3/6 122/3/6 128/3/6
